<svg xmlns="http://www.w3.org/2000/svg" viewBox="0 0 1080 1080" width="1080" height="1080" preserveAspectRatio="xMidYMid meet" style="width: 100%; height: 100%; transform: translate3d(0px, 0px, 0px);"><defs><clipPath id="__lottie_element_35"><rect width="1080" height="1080" x="0" y="0"></rect></clipPath></defs><g clip-path="url(#__lottie_element_35)"><g transform="matrix(0.980105996131897,-0.1984746903181076,0.1984746903181076,0.980105996131897,628.9288330078125,575.8956298828125)" opacity="1" style="display: block;"><g opacity="1" transform="matrix(1,0,0,1,142.218994140625,192.2480010986328)"><path fill="rgb(42,36,94)" fill-opacity="1" d=" M-48.57099914550781,0 C-48.57099914550781,28.569000244140625 -26.825000762939453,51.72999954223633 0,51.72999954223633 C26.825000762939453,51.72999954223633 48.57099914550781,28.569000244140625 48.57099914550781,0 C48.57099914550781,-28.56999969482422 26.825000762939453,-51.72999954223633 0,-51.72999954223633 C-26.825000762939453,-51.72999954223633 -48.57099914550781,-28.56999969482422 -48.57099914550781,0z"></path></g><g opacity="1" transform="matrix(1,0,0,1,95.5199966430664,101.51799774169922)"><path fill="rgb(2,193,194)" fill-opacity="1" d=" M4.9120001792907715,101.26799774169922 C30.552000045776367,99.40899658203125 53.36000061035156,93.30000305175781 70.7699966430664,79.06500244140625 C80.9489974975586,70.75700378417969 89.28800201416016,59.659000396728516 95.2699966430664,45.018001556396484 C76.52400207519531,-1.7209999561309814 47.50699996948242,-41.52199935913086 16.576000213623047,-80.05000305175781 C-1.1540000438690186,-96.71600341796875 -25.85099983215332,-101.26699829101562 -46.85100173950195,-94.96700286865234 C-74.1729965209961,-86.79299926757812 -95.2699966430664,-60.3129997253418 -86.7229995727539,-18.371999740600586 C-66.95899963378906,21.797000885009766 -37.042999267578125,61.70199966430664 4.9120001792907715,101.26799774169922z"></path></g><g opacity="1" transform="matrix(1,0,0,1,119.7300033569336,90.41600036621094)"><path fill="rgb(53,205,206)" fill-opacity="1" d=" M46.56100082397461,90.16600036621094 C56.7400016784668,81.85800170898438 65.0790023803711,70.76000213623047 71.06099700927734,56.11899948120117 C52.314998626708984,9.380000114440918 23.29599952697754,-30.42099952697754 -7.633999824523926,-68.9489974975586 C-25.364999771118164,-85.61499786376953 -50.06100082397461,-90.16600036621094 -71.06099700927734,-83.86599731445312 C-29.886999130249023,-47.95800018310547 9.371000289916992,9.555999755859375 46.56100082397461,90.16600036621094z"></path></g></g><g transform="matrix(0.994244396686554,-0.10713604092597961,0.10713604092597961,0.994244396686554,211.5589599609375,589.4207153320312)" opacity="1" style="display: block;"><g opacity="1" transform="matrix(1,0,0,1,53.095001220703125,176.46099853515625)"><path fill="rgb(42,36,94)" fill-opacity="1" d=" M47.81100082397461,8.559000015258789 C42.777000427246094,36.680999755859375 17.291000366210938,55.64799880981445 -9.114999771118164,50.92100143432617 C-35.52000045776367,46.19499969482422 -52.845001220703125,19.56599998474121 -47.8120002746582,-8.557000160217285 C-42.77799987792969,-36.68000030517578 -17.29199981689453,-55.64699935913086 9.11400032043457,-50.91999816894531 C35.51900100708008,-46.194000244140625 52.845001220703125,-19.56399917602539 47.81100082397461,8.559000015258789z"></path></g><g opacity="1" transform="matrix(1,0,0,1,116.39600372314453,97.2229995727539)"><path fill="rgb(2,193,194)" fill-opacity="1" d=" M-24.024999618530273,96.9729995727539 C-48.93600082397461,90.625 -70.31199645996094,80.59400177001953 -84.94100189208984,63.513999938964844 C-93.49800109863281,53.54199981689453 -99.7509994506836,41.14899826049805 -103.05899810791016,25.683000564575195 C-76.37200164794922,-17.023000717163086 -40.79600143432617,-51.0890007019043 -3.561000108718872,-83.56500244140625 C16.82900047302246,-96.84500122070312 41.94200134277344,-96.9729995727539 61.50299835205078,-87.072998046875 C86.95800018310547,-74.21199798583984 103.05899810791016,-44.42900085449219 87.25700378417969,-4.650000095367432 C60.7239990234375,31.408000946044922 24.246000289916992,65.41699981689453 -24.024999618530273,96.9729995727539z"></path></g><g opacity="1" transform="matrix(1,0,0,1,95.61799621582031,80.49400329589844)"><path fill="rgb(53,205,206)" fill-opacity="1" d=" M-64.16200256347656,80.24299621582031 C-72.71900177001953,70.27100372314453 -78.9729995727539,57.87900161743164 -82.28099822998047,42.41299819946289 C-55.59400177001953,-0.2930000126361847 -20.017000198364258,-34.35900115966797 17.216999053955078,-66.83499908447266 C37.606998443603516,-80.11499786376953 62.720001220703125,-80.24400329589844 82.28099822998047,-70.34400177001953 C35.42499923706055,-42.25199890136719 -13.35099983215332,7.445000171661377 -64.16200256347656,80.24299621582031z"></path></g></g><g transform="matrix(1,0,0,1,341.81500244140625,541.345458984375)" opacity="1" style="display: block;"><g opacity="1" transform="matrix(1,0,0,1,202.8300018310547,194.91600036621094)"><path fill="rgb(2,193,194)" fill-opacity="1" d=" M-16.09000015258789,159.15899658203125 C-157.406005859375,142.1439971923828 -202.5800018310547,20.73900032043457 -193.73399353027344,-159.32000732421875 C-193.73399353027344,-159.32000732421875 -172.91900634765625,-159.72300720214844 -172.91900634765625,-159.72300720214844 C-172.91900634765625,-159.72300720214844 178.15199279785156,-166.59800720214844 178.15199279785156,-166.59800720214844 C179.10299682617188,-160.6739959716797 179.94500732421875,-154.78399658203125 180.66700744628906,-148.94200134277344 C202.5800018310547,27.12299919128418 124.32599639892578,166.59800720214844 -16.09000015258789,159.15899658203125z"></path></g><g opacity="1" transform="matrix(1,0,0,1,206.70399475097656,166.70199584960938)"><path fill="rgb(53,205,206)" fill-opacity="1" d=" M-12.279000282287598,132.8719940185547 C-129.91900634765625,118.64700317382812 -175.33700561523438,19.437999725341797 -176.79299926757812,-131.50900268554688 C-176.79299926757812,-131.50900268554688 174.2790069580078,-138.38400268554688 174.2790069580078,-138.38400268554688 C175.22999572753906,-132.4600067138672 176.07200622558594,-126.57099914550781 176.79299926757812,-120.72899627685547 C174.94200134277344,28.020999908447266 103.52100372314453,138.38400268554688 -12.279000282287598,132.8719940185547z"></path></g><g opacity="1" transform="matrix(1,0,0,1,328.4070129394531,135.2030029296875)"><path fill="rgb(42,36,94)" fill-opacity="1" d=" M-19.30699920654297,-44.16400146484375 C-19.30699920654297,-44.16400146484375 19.511999130249023,-49.05500030517578 19.511999130249023,-49.05500030517578 C24.41900062561035,-49.67300033569336 28.7549991607666,-45.88199996948242 28.490999221801758,-41.207000732421875 C28.490999221801758,-41.207000732421875 23.930999755859375,39.803001403808594 23.930999755859375,39.803001403808594 C23.74799919128418,43.051998138427734 21.349000930786133,45.814998626708984 17.999000549316406,46.534000396728516 C5.103000164031982,49.30400085449219 -8.100000381469727,49.67300033569336 -21.542999267578125,48.154998779296875 C-25.6560001373291,47.691001892089844 -28.7549991607666,44.34299850463867 -28.624000549316406,40.439998626708984 C-28.624000549316406,40.439998626708984 -26.009000778198242,-37.1510009765625 -26.009000778198242,-37.1510009765625 C-25.88800048828125,-40.73699951171875 -23.065000534057617,-43.689998626708984 -19.30699920654297,-44.16400146484375z"></path></g><g opacity="1" transform="matrix(1,0,0,1,328.98699951171875,107.09600067138672)"><path fill="rgb(240,200,8)" fill-opacity="1" d=" M-18.70400047302246,-2.8929998874664307 C-18.70400047302246,-2.8929998874664307 -18.45800018310547,7.4670000076293945 -18.45800018310547,7.4670000076293945 C-18.417999267578125,9.140999794006348 -16.857999801635742,10.435999870300293 -15.10099983215332,10.253999710083008 C-15.10099983215332,10.253999710083008 15.357000350952148,7.11299991607666 15.357000350952148,7.11299991607666 C16.79800033569336,6.964000225067139 17.902999877929688,5.859000205993652 17.981000900268555,4.491000175476074 C17.981000900268555,4.491000175476074 18.63800048828125,-7.181000232696533 18.63800048828125,-7.181000232696533 C18.738000869750977,-8.982999801635742 17.049999237060547,-10.4350004196167 15.163999557495117,-10.166999816894531 C15.163999557495117,-10.166999816894531 -16.195999145507812,-5.714000225067139 -16.195999145507812,-5.714000225067139 C-17.667999267578125,-5.505000114440918 -18.73699951171875,-4.302999973297119 -18.70400047302246,-2.8929998874664307z"></path></g><g opacity="1" transform="matrix(1,0,0,1,328.60198974609375,133.09100341796875)"><path fill="rgb(240,200,8)" fill-opacity="1" d=" M-18.159000396728516,-3.4630000591278076 C-18.159000396728516,-3.4630000591278076 -18.729000091552734,6.678999900817871 -18.729000091552734,6.678999900817871 C-18.81999969482422,8.28499984741211 -17.474000930786133,9.656999588012695 -15.770000457763672,9.694999694824219 C-15.770000457763672,9.694999694824219 13.859999656677246,10.361000061035156 13.859999656677246,10.361000061035156 C15.39799976348877,10.395999908447266 16.695999145507812,9.324000358581543 16.86400032043457,7.881999969482422 C16.86400032043457,7.881999969482422 18.604000091552734,-6.98799991607666 18.604000091552734,-6.98799991607666 C18.81999969482422,-8.835000038146973 17.1200008392334,-10.395999908447266 15.173999786376953,-10.138999938964844 C15.173999786376953,-10.138999938964844 -15.62399959564209,-6.074999809265137 -15.62399959564209,-6.074999809265137 C-17.024999618530273,-5.889999866485596 -18.083999633789062,-4.800000190734863 -18.159000396728516,-3.4630000591278076z"></path></g><g opacity="1" transform="matrix(1,0,0,1,326.95001220703125,163.2010040283203)"><path fill="rgb(240,200,8)" fill-opacity="1" d=" M-18.07699966430664,-5.665999889373779 C-18.07699966430664,-5.665999889373779 -18.738000869750977,6.072999954223633 -18.738000869750977,6.072999954223633 C-18.829999923706055,7.701000213623047 -17.447999954223633,9.083000183105469 -15.722000122070312,9.090999603271484 C-15.722000122070312,9.090999603271484 15.057999610900879,9.222000122070312 15.057999610900879,9.222000122070312 C16.63800048828125,9.229000091552734 17.934999465942383,8.072999954223633 18.018999099731445,6.583000183105469 C18.018999099731445,6.583000183105469 18.736000061035156,-6.163000106811523 18.736000061035156,-6.163000106811523 C18.829999923706055,-7.828999996185303 17.381999969482422,-9.229000091552734 15.616000175476074,-9.178999900817871 C15.616000175476074,-9.178999900817871 -15.220000267028809,-8.305000305175781 -15.220000267028809,-8.305000305175781 C-16.759000778198242,-8.26099967956543 -17.996000289916992,-7.11899995803833 -18.07699966430664,-5.665999889373779z"></path></g><g opacity="1" transform="matrix(1,0,0,1,194.9290008544922,49.737998962402344)"><path fill="rgb(42,36,94)" fill-opacity="1" d=" M-184.16799926757812,-8.906999588012695 C-118.23899841308594,49.487998962402344 136.55599975585938,39.310001373291016 183.7310028076172,-14.770999908447266 C187.29200744628906,-18.854000091552734 185.44400024414062,-25.45199966430664 180.35299682617188,-26.79199981689453 C96.30999755859375,-48.90299987792969 -115.78299713134766,-49.487998962402344 -182.86700439453125,-18.68000030517578 C-186.6020050048828,-16.965999603271484 -187.29100036621094,-11.673999786376953 -184.16799926757812,-8.906999588012695z"></path></g></g><g transform="matrix(1,0,0,1,378.43499755859375,194.47860717773438)" opacity="1" style="display: block;"><g opacity="1" transform="matrix(1,0,0,1,160.9669952392578,66.44000244140625)"><path fill="rgb(42,36,94)" fill-opacity="1" d=" M-1.9730000495910645,-30.836000442504883 C-1.8680000305175781,-4.442999839782715 -7.710000038146973,14.890999794006348 -16.408000946044922,30.836000442504883 C-16.408000946044922,30.836000442504883 16.408000946044922,29.517000198364258 16.408000946044922,29.517000198364258 C4.460999965667725,13.086999893188477 2.5989999771118164,-7.050000190734863 8.548999786376953,-30.058000564575195 C8.548999786376953,-30.058000564575195 -1.9730000495910645,-30.836000442504883 -1.9730000495910645,-30.836000442504883z"></path></g><g opacity="1" transform="matrix(1,0,0,1,159.38699340820312,104.13500213623047)"><path fill="rgb(2,193,194)" fill-opacity="1" d=" M35.97999954223633,10.107000350952148 C35.97999954223633,10.107000350952148 18.26799964904785,10.237000465393066 18.26799964904785,10.237000465393066 C18.26799964904785,10.237000465393066 -38.470001220703125,10.664999961853027 -38.470001220703125,10.664999961853027 C-34.50699996948242,-1.4759999513626099 -24.454999923706055,-10.295999526977539 1.1890000104904175,-10.664999961853027 C5.22599983215332,-10.604999542236328 9.031000137329102,-10.470000267028809 12.541999816894531,-10.192000389099121 C28.55299949645996,-8.935999870300293 38.470001220703125,-4.664000034332275 35.97999954223633,10.107000350952148z"></path></g><g opacity="1" transform="matrix(1,0,0,1,184.89300537109375,104.15799713134766)"><path fill="rgb(53,205,206)" fill-opacity="1" d=" M10.473999977111816,10.083999633789062 C10.473999977111816,10.083999633789062 -7.23799991607666,10.21399974822998 -7.23799991607666,10.21399974822998 C-3.690000057220459,4.3429999351501465 -6.341000080108643,-2.6010000705718994 -12.96399974822998,-10.21399974822998 C3.046999931335449,-8.958000183105469 12.96399974822998,-4.686999797821045 10.473999977111816,10.083999633789062z"></path></g><g opacity="1" transform="matrix(1,0,0,1,165.41299438476562,22.090999603271484)"><path fill="rgb(240,200,8)" fill-opacity="1" d=" M21.538000106811523,1.5920000076293945 C20.635000228881836,13.168000221252441 10.260000228881836,21.84000015258789 -1.6349999904632568,20.961000442504883 C-13.529000282287598,20.082000732421875 -22.440000534057617,9.986000061035156 -21.535999298095703,-1.590999960899353 C-20.632999420166016,-13.168000221252441 -10.258000373840332,-21.84000015258789 1.6369999647140503,-20.961000442504883 C13.531000137329102,-20.08099937438965 22.44099998474121,-9.984999656677246 21.538000106811523,1.5920000076293945z"></path></g><g opacity="1" transform="matrix(1,0,0,1,173.31399536132812,22.468000411987305)"><path fill="rgb(243,211,57)" fill-opacity="1" d=" M13.635000228881836,1.2170000076293945 C12.732000350952148,12.793000221252441 2.3550000190734863,21.465999603271484 -9.538999557495117,20.586999893188477 C-11.27400016784668,20.458999633789062 -12.954000473022461,20.136999130249023 -14.538000106811523,19.635000228881836 C-4.9029998779296875,18.125 2.7760000228881836,10.359000205993652 3.546999931335449,0.47099998593330383 C4.318999767303467,-9.416000366210938 -2.065999984741211,-18.222000122070312 -11.355999946594238,-21.131000518798828 C-9.713000297546387,-21.393999099731445 -8.001999855041504,-21.465999603271484 -6.267000198364258,-21.336999893188477 C5.626999855041504,-20.45800018310547 14.538000106811523,-10.359000205993652 13.635000228881836,1.2170000076293945z"></path></g><g opacity="1" transform="matrix(1,0,0,1,154.6280059814453,229.427001953125)"><path fill="rgb(2,193,194)" fill-opacity="1" d=" M152.2790069580078,46.792999267578125 C152.20399475097656,50.07500076293945 150.76199340820312,53.198001861572266 148.26400756835938,55.40399932861328 C126.4540023803711,74.65599822998047 99.2979965209961,89.4209976196289 69.35700225830078,99.01699829101562 C2.559999942779541,120.44999694824219 -78.08000183105469,116.197998046875 -144.07400512695312,78.85199737548828 C-150.83799743652344,75.02300262451172 -154.3769989013672,67.46099853515625 -152.94500732421875,59.9739990234375 C-139.64199829101562,-9.564000129699707 -138.63800048828125,-85.29000091552734 -41.582000732421875,-112.61499786376953 C-20.121000289916992,-118.65699768066406 2.260999917984009,-120.44999694824219 24.257999420166016,-117.90699768066406 C33.0359992980957,-116.9010009765625 41.75899887084961,-115.21099853515625 50.33399963378906,-112.81700134277344 C116.927001953125,-94.22799682617188 154.3780059814453,-44.71500015258789 152.2790069580078,46.792999267578125z"></path></g><g opacity="1" transform="matrix(1,0,0,1,243.91099548339844,219.98199462890625)"><path fill="rgb(53,205,206)" fill-opacity="1" d=" M58.792999267578125,65.01499938964844 C37.013999938964844,84.18599700927734 9.928000450134277,98.89399719238281 -19.927000045776367,108.46199798583984 C10.527999877929688,50.30799865722656 -1.1640000343322754,-56.28300094604492 -65.0250015258789,-108.46199798583984 C-56.24800109863281,-107.45600128173828 -47.52399826049805,-105.76599884033203 -38.95000076293945,-103.37200164794922 C27.58300018310547,-84.79900360107422 65.0250015258789,-35.35900115966797 63,55.9900016784668 C62.92300033569336,59.43000030517578 61.41400146484375,62.707000732421875 58.792999267578125,65.01499938964844z"></path></g><g opacity="1" transform="matrix(1,0,0,1,153.70199584960938,231.18499755859375)"><path fill="rgb(42,36,94)" fill-opacity="1" d=" M11.409000396728516,-88.3030014038086 C-72.03600311279297,-89.48400115966797 -101.99199676513672,-42.99599838256836 -114.58200073242188,18.968000411987305 C-122.60299682617188,71.84500122070312 -69.6780014038086,89.48400115966797 -14.347000122070312,70.03199768066406 C1.1740000247955322,64.57499694824219 17.934999465942383,63.15800094604492 34.03099822998047,66.7040023803711 C82.55400085449219,77.39099884033203 122.60299682617188,63.53099822998047 115.53099822998047,10.694000244140625 C113.14199829101562,-56.71500015258789 70.83200073242188,-81.61900329589844 11.409000396728516,-88.3030014038086z"></path></g></g><g transform="matrix(1,0,0,1,513.43896484375,416.9896240234375)" opacity="1" style="display: block;"><g opacity="1" transform="matrix(1,0,0,1,25.614999771118164,17.534000396728516)"><path fill="rgb(240,200,8)" fill-opacity="1" d=" M25.149999618530273,-5.232999801635742 C25.364999771118164,6.818999767303467 14.277999877929688,16.788999557495117 0.3880000114440918,17.035999298095703 C-13.501999855041504,17.284000396728516 -24.934999465942383,7.714000225067139 -25.149999618530273,-4.336999893188477 C-25.364999771118164,-16.388999938964844 -13.920999526977539,-6.296999931335449 -0.03200000151991844,-6.545000076293945 C13.859000205993652,-6.791999816894531 24.934999465942383,-17.284000396728516 25.149999618530273,-5.232999801635742z"></path></g></g><g transform="matrix(1,0,0,1,466.6340026855469,394.8146057128906)" opacity="1" style="display: block;"><g opacity="1" transform="matrix(1,0,0,1,9.10200023651123,17.993000030517578)"><path fill="rgb(240,200,8)" fill-opacity="1" d=" M8.166999816894531,0.5509999990463257 C7.480999946594238,10.182000160217285 3.2679998874664307,17.743000030517578 -1.2419999837875366,17.43899917602539 C-5.751999855041504,17.135000228881836 -8.85200023651123,9.079999923706055 -8.166000366210938,-0.5509999990463257 C-7.480000019073486,-10.182000160217285 -3.2679998874664307,-17.743000030517578 1.2419999837875366,-17.43899917602539 C5.751999855041504,-17.135000228881836 8.852999687194824,-9.081000328063965 8.166999816894531,0.5509999990463257z"></path></g></g><g transform="matrix(1,0,0,1,585.7030029296875,388.5926208496094)" opacity="1" style="display: block;"><g opacity="1" transform="matrix(1,0,0,1,9.829000473022461,18.19300079345703)"><path fill="rgb(240,200,8)" fill-opacity="1" d=" M-8.093999862670898,1.1929999589920044 C-6.609000205993652,10.73799991607666 -1.781000018119812,17.94300079345703 2.688999891281128,17.284000396728516 C7.158999919891357,16.625 9.579000473022461,8.35200023651123 8.093000411987305,-1.1929999589920044 C6.607999801635742,-10.73900032043457 1.7799999713897705,-17.94300079345703 -2.690000057220459,-17.284000396728516 C-7.159999847412109,-16.625 -9.579000473022461,-8.352999687194824 -8.093999862670898,1.1929999589920044z"></path></g></g><g transform="matrix(1,0,0,1,476.60498046875,913.100341796875)" opacity="1" style="display: block;"><g opacity="1" transform="matrix(1,0,0,1,65.98699951171875,22.253999710083008)"><path fill="rgb(2,193,194)" fill-opacity="1" d=" M59.816001892089844,5.015999794006348 C59.13999938964844,5.931000232696533 58.20800018310547,6.665999889373779 57.12900161743164,7.124000072479248 C45.17499923706055,12.232999801635742 33.28799819946289,15.739999771118164 21.44700050354004,17.659000396728516 C-5.311999797821045,22.003999710083008 -31.774999618530273,18.238000869750977 -57.9739990234375,6.60699987411499 C-59.23899841308594,6.041999816894531 -60.29499816894531,5.109000205993652 -60.97800064086914,3.9560000896453857 C-64.69200134277344,-2.3469998836517334 -65.73600006103516,-8.538000106811523 -64.26000213623047,-14.616999626159668 C-63.43600082397461,-18.018999099731445 -59.78099822998047,-20.075000762939453 -56.180999755859375,-19.20400047302246 C-28.360000610351562,-12.46399974822998 -0.5839999914169312,-10.746999740600586 27.136999130249023,-14.614999771118164 C36.9640007019043,-15.97599983215332 46.7869987487793,-18.054000854492188 56.611000061035156,-20.847000122070312 C60.6870002746582,-22.003999710083008 64.91799926757812,-19.232999801635742 65.19499969482422,-15.217000007629395 C65.73600006103516,-7.585999965667725 64.11599731445312,-0.7770000100135803 59.816001892089844,5.015999794006348z"></path></g><g opacity="1" transform="matrix(1,0,0,1,109.5780029296875,20.08099937438965)"><path fill="rgb(53,205,206)" fill-opacity="1" d=" M16.224000930786133,7.188000202178955 C15.54800033569336,8.102999687194824 14.616999626159668,8.83899974822998 13.538000106811523,9.29699993133545 C1.5839999914169312,14.406000137329102 -10.303999900817871,17.91200065612793 -22.145000457763672,19.83099937438965 C-10.324000358581543,11.347000122070312 -7.210999965667725,0.8730000257492065 -16.45400047302246,-12.442000389099121 C-6.626999855041504,-13.803000450134277 3.194999933242798,-15.880999565124512 13.019000053405762,-18.673999786376953 C17.094999313354492,-19.83099937438965 21.326000213623047,-17.06100082397461 21.60300064086914,-13.045000076293945 C22.143999099731445,-5.414000034332275 20.52400016784668,1.3949999809265137 16.224000930786133,7.188000202178955z"></path></g></g><g transform="matrix(1,0,0,1,493.44500732421875,965.2534790039062)" opacity="1" style="display: block;"><g opacity="1" transform="matrix(1,0,0,1,48.7400016784668,14.944000244140625)"><path fill="rgb(2,193,194)" fill-opacity="1" d=" M47.16699981689453,-4.163000106811523 C46.84400177001953,-2.8550000190734863 46.388999938964844,-1.5509999990463257 45.79499816894531,-0.26600000262260437 C44.1349983215332,3.3949999809265137 40.77000045776367,6.146999835968018 36.7140007019043,7.269999980926514 C31.06599998474121,8.843999862670898 25.32900047302246,10.128000259399414 19.51099967956543,11.149999618530273 C3.625999927520752,13.937000274658203 -12.869000434875488,14.694000244140625 -29.97100067138672,13.512999534606934 C-35.895999908447266,13.102999687194824 -41.3129997253418,10.076000213623047 -44.47999954223633,5.318999767303467 C-46.124000549316406,2.86899995803833 -47.176998138427734,0.5389999747276306 -47.56800079345703,-1.6480000019073486 C-48.4900016784668,-6.715000152587891 -44.1349983215332,-11.230999946594238 -38.70600128173828,-10.951000213623047 C-16.99799919128418,-9.83899974822998 3.7820000648498535,-9.970000267028809 23.21500015258789,-11.934000015258789 C28.107999801635742,-12.42199993133545 32.90800094604492,-13.032999992370605 37.61600112915039,-13.765999794006348 C43.49100112915039,-14.694000244140625 48.49100112915039,-9.644000053405762 47.16699981689453,-4.163000106811523z"></path></g><g opacity="1" transform="matrix(1,0,0,1,82.74099731445312,13.17199993133545)"><path fill="rgb(53,205,206)" fill-opacity="1" d=" M13.166000366210938,-2.3910000324249268 C12.843000411987305,-1.0829999446868896 12.387999534606934,0.22100000083446503 11.793999671936035,1.50600004196167 C10.133999824523926,5.166999816894531 6.769000053405762,7.919000148773193 2.7130000591278076,9.041999816894531 C-2.934999942779541,10.616000175476074 -8.67199993133545,11.899999618530273 -14.489999771118164,12.92199993133545 C-9.64900016784668,6.379000186920166 -7.9679999351501465,-1.1670000553131104 -10.78600025177002,-10.161999702453613 C-5.89300012588501,-10.649999618530273 -1.093000054359436,-11.26099967956543 3.615000009536743,-11.994000434875488 C9.489999771118164,-12.92199993133545 14.489999771118164,-7.872000217437744 13.166000366210938,-2.3910000324249268z"></path></g></g><g transform="matrix(0.998538076877594,0.054052986204624176,-0.054052986204624176,0.998538076877594,497.2281494140625,590.2715454101562)" opacity="1" style="display: block;"><g opacity="1" transform="matrix(1,0,0,1,64.08000183105469,100.15299987792969)"><path fill="rgb(240,200,8)" fill-opacity="1" d=" M53.34199905395508,99.90299987792969 C53.34199905395508,99.90299987792969 -53.34199905395508,99.90299987792969 -53.34199905395508,99.90299987792969 C-59.13399887084961,99.90299987792969 -63.83000183105469,95.20700073242188 -63.83000183105469,89.41500091552734 C-63.83000183105469,89.41500091552734 -63.83000183105469,-89.41400146484375 -63.83000183105469,-89.41400146484375 C-63.83000183105469,-95.20700073242188 -59.13399887084961,-99.90299987792969 -53.34199905395508,-99.90299987792969 C-53.34199905395508,-99.90299987792969 53.34199905395508,-99.90299987792969 53.34199905395508,-99.90299987792969 C59.1349983215332,-99.90299987792969 63.83000183105469,-95.20700073242188 63.83000183105469,-89.41400146484375 C63.83000183105469,-89.41400146484375 63.83000183105469,89.41500091552734 63.83000183105469,89.41500091552734 C63.83000183105469,95.20700073242188 59.1349983215332,99.90299987792969 53.34199905395508,99.90299987792969z"></path></g><g opacity="1" transform="matrix(1,0,0,1,20.481000900268555,33.99700164794922)"><path fill="rgb(42,36,94)" fill-opacity="1" d=" M9.04800033569336,22.290000915527344 C9.04800033569336,22.290000915527344 -9.04800033569336,22.290000915527344 -9.04800033569336,22.290000915527344 C-10.067000389099121,22.290000915527344 -10.892000198364258,21.464000701904297 -10.892000198364258,20.44499969482422 C-10.892000198364258,20.44499969482422 -10.892000198364258,-20.445999145507812 -10.892000198364258,-20.445999145507812 C-10.892000198364258,-21.46500015258789 -10.067000389099121,-22.290000915527344 -9.04800033569336,-22.290000915527344 C-9.04800033569336,-22.290000915527344 9.04800033569336,-22.290000915527344 9.04800033569336,-22.290000915527344 C10.067000389099121,-22.290000915527344 10.892000198364258,-21.46500015258789 10.892000198364258,-20.445999145507812 C10.892000198364258,-20.445999145507812 10.892000198364258,20.44499969482422 10.892000198364258,20.44499969482422 C10.892000198364258,21.464000701904297 10.067000389099121,22.290000915527344 9.04800033569336,22.290000915527344z"></path></g></g><g transform="matrix(0.9799333214759827,-0.19932569563388824,0.19932569563388824,0.9799333214759827,548.4093627929688,661.56884765625)" opacity="1" style="display: block;"><g opacity="1" transform="matrix(1,0,0,1,174.59800720214844,124.70999908447266)"><path fill="rgb(2,193,194)" fill-opacity="1" d=" M-102.62100219726562,11.972999572753906 C-101.68000030517578,18.865999221801758 -97.74099731445312,24.959999084472656 -92.00900268554688,28.875999450683594 C-43.17399978637695,62.231998443603516 11.928999900817871,80.51200103759766 71.1240005493164,88.9469985961914 C82.75299835205078,90.60900115966797 94.03199768066406,83.87999725341797 97.88300323486328,72.7770004272461 C102.81600189208984,58.55500030517578 105.72699737548828,43.42599868774414 105.41999816894531,26.81999969482422 C105.23400115966797,17.170000076293945 103.96499633789062,7.01800012588501 101.36100006103516,-3.7249999046325684 C100.06999969482422,-9.052000045776367 96.99600219726562,-13.788999557495117 92.6969985961914,-17.18000030517578 C43.93899917602539,-55.5890007019043 -9.140999794006348,-82.29399871826172 -68.47699737548828,-89.23999786376953 C-80.20500183105469,-90.60800170898438 -91.24299621582031,-83.44300079345703 -94.83100128173828,-72.18599700927734 C-96.02400207519531,-68.44499969482422 -97.09600067138672,-64.75700378417969 -98.0479965209961,-61.104000091552734 C-104.88600158691406,-34.847999572753906 -105.72699737548828,-10.72599983215332 -102.62100219726562,11.972999572753906z"></path></g><g opacity="1" transform="matrix(1,0,0,1,178.28399658203125,92.81600189208984)"><path fill="rgb(53,205,206)" fill-opacity="1" d=" M-101.73400115966797,-29.208999633789062 C-20.615999221801758,-14.013999938964844 47.233001708984375,15.26099967956543 101.73400115966797,58.7140007019043 C101.5479965209961,49.06399917602539 100.27899932861328,38.91299819946289 97.67500305175781,28.170000076293945 C96.38400268554688,22.843000411987305 93.30999755859375,18.104999542236328 89.01100158691406,14.71399974822998 C40.25199890136719,-23.69499969482422 -12.82699966430664,-50.39899826049805 -72.16400146484375,-57.34600067138672 C-83.89099884033203,-58.7140007019043 -94.92900085449219,-51.54800033569336 -98.51699829101562,-40.29100036621094 C-99.71099853515625,-36.54999923706055 -100.78199768066406,-32.86199951171875 -101.73400115966797,-29.208999633789062z"></path></g><g opacity="1" transform="matrix(1,0,0,1,51.00199890136719,62.0880012512207)"><path fill="rgb(42,36,94)" fill-opacity="1" d=" M49.18600082397461,-13.958000183105469 C50.75199890136719,9.522000312805176 41.58000183105469,30.4689998626709 25.26099967956543,49.729000091552734 C17.582000732421875,58.79399871826172 5.440999984741211,61.8380012512207 -4.170000076293945,57.1879997253418 C-18.292999267578125,50.35599899291992 -30.69499969482422,42.310001373291016 -39.47800064086914,31.702999114990234 C-40.9630012512207,29.908000946044922 -42.1619987487793,27.854999542236328 -43.0369987487793,25.62700080871582 C-50.75199890136719,5.989999771118164 -48.178001403808594,-13.824000358581543 -30.756000518798828,-33.893001556396484 C-28.173999786376953,-36.86600112915039 -26.155000686645508,-40.32099914550781 -24.910999298095703,-44.04499816894531 C-21.83300018310547,-53.2599983215332 -16.4689998626709,-58.20000076293945 -9.527999877929688,-60.1879997253418 C-3.7699999809265137,-61.8380012512207 2.125,-60.959999084472656 7.11299991607666,-58.29399871826172 C20.999000549316406,-50.869998931884766 32.89699935913086,-40.30099868774414 43.65299987792969,-27.922000885009766 C46.922000885009766,-24.158000946044922 48.83300018310547,-19.24799919128418 49.18600082397461,-13.958000183105469z"></path></g></g><g transform="matrix(0.998538076877594,0.054052986204624176,-0.054052986204624176,0.998538076877594,256.8223876953125,639.2294311523438)" opacity="1" style="display: block;"><g opacity="1" transform="matrix(1,0,0,1,105.97599792480469,100.0790023803711)"><path fill="rgb(2,193,194)" fill-opacity="1" d=" M102.62100219726562,11.972999572753906 C101.68000030517578,18.864999771118164 97.74099731445312,24.958999633789062 92.00800323486328,28.875999450683594 C43.17300033569336,62.23099899291992 -11.928999900817871,80.51000213623047 -71.1240005493164,88.94499969482422 C-82.75299835205078,90.60800170898438 -94.03299713134766,83.88099670410156 -97.88300323486328,72.7770004272461 C-102.81700134277344,58.55500030517578 -105.72699737548828,43.42599868774414 -105.4209976196289,26.81999969482422 C-105.23500061035156,17.170000076293945 -103.96499633789062,7.017000198364258 -101.36100006103516,-3.7249999046325684 C-100.06999969482422,-9.053000450134277 -96.99600219726562,-13.788999557495117 -92.6969985961914,-17.18000030517578 C-43.93899917602539,-55.5890007019043 9.140999794006348,-82.29499816894531 68.47799682617188,-89.24199676513672 C80.20500183105469,-90.60900115966797 91.24400329589844,-83.44300079345703 94.83100128173828,-72.18599700927734 C96.02400207519531,-68.44499969482422 97.09500122070312,-64.75800323486328 98.0469970703125,-61.104000091552734 C104.88500213623047,-34.8489990234375 105.72699737548828,-10.72700023651123 102.62100219726562,11.972999572753906z"></path></g><g opacity="1" transform="matrix(1,0,0,1,102.29000091552734,68.18399810791016)"><path fill="rgb(53,205,206)" fill-opacity="1" d=" M101.73400115966797,-29.208999633789062 C20.615999221801758,-14.013999938964844 -47.233001708984375,15.26099967956543 -101.73400115966797,58.7140007019043 C-101.5479965209961,49.06399917602539 -100.27899932861328,38.9119987487793 -97.6760025024414,28.170000076293945 C-96.38500213623047,22.841999053955078 -93.30999755859375,18.104999542236328 -89.01100158691406,14.71399974822998 C-40.25299835205078,-23.69499969482422 12.82699966430664,-50.39899826049805 72.16400146484375,-57.34700012207031 C83.89099884033203,-58.7140007019043 94.92900085449219,-51.54800033569336 98.51699829101562,-40.29100036621094 C99.70999908447266,-36.54999923706055 100.78199768066406,-32.862998962402344 101.73400115966797,-29.208999633789062z"></path></g><g opacity="1" transform="matrix(1,0,0,1,226.2519989013672,59.029998779296875)"><path fill="rgb(42,36,94)" fill-opacity="1" d=" M-43.07899856567383,-25.878999710083008 C-50.79100036621094,-3.6470000743865967 -47.47700119018555,18.979000091552734 -36.82699966430664,41.86600112915039 C-31.81399917602539,52.63800048828125 -20.90999984741211,58.779998779296875 -10.41100025177002,56.834999084472656 C5.013999938964844,53.97600173950195 19.10099983215332,49.49100112915039 30.374000549316406,41.582000732421875 C32.28099822998047,40.24399948120117 33.97999954223633,38.577999114990234 35.4119987487793,36.6609992980957 C48.040000915527344,19.760000228881836 50.79100036621094,-0.028999999165534973 39.290000915527344,-23.98699951171875 C37.584999084472656,-27.538000106811523 36.54999923706055,-31.402999877929688 36.33399963378906,-35.323001861572266 C35.79899978637695,-45.02399826049805 31.930999755859375,-51.20600128173828 25.76099967956543,-54.957000732421875 C20.645000457763672,-58.06800079345703 14.72700023651123,-58.77899932861328 9.211999893188477,-57.525001525878906 C-6.142000198364258,-54.03300094604492 -20.40999984741211,-46.981998443603516 -34.053001403808594,-37.8849983215332 C-38.20100021362305,-35.11800003051758 -41.340999603271484,-30.88800048828125 -43.07899856567383,-25.878999710083008z"></path></g></g><g transform="matrix(-1,0,0,1,240.0850067138672,420.949462890625)" opacity="1" style="display: block;"><g opacity="1" transform="matrix(1,0,0,1,65.28199768066406,65.28299713134766)"><path fill="rgb(240,200,8)" fill-opacity="1" d=" M65.03199768066406,0 C65.03199768066406,35.91699981689453 35.91600036621094,65.03199768066406 0,65.03199768066406 C-35.91699981689453,65.03199768066406 -65.03199768066406,35.91699981689453 -65.03199768066406,0 C-65.03199768066406,-35.91699981689453 -35.91699981689453,-65.03199768066406 0,-65.03199768066406 C35.91600036621094,-65.03199768066406 65.03199768066406,-35.91699981689453 65.03199768066406,0z"></path></g><g opacity="1" transform="matrix(1,0,0,1,65.28199768066406,44.05400085449219)"><path fill="rgb(42,36,94)" fill-opacity="1" d=" M18.37700080871582,0 C18.37700080871582,10.14900016784668 10.14900016784668,18.37700080871582 0,18.37700080871582 C-10.14900016784668,18.37700080871582 -18.37700080871582,10.14900016784668 -18.37700080871582,0 C-18.37700080871582,-10.14900016784668 -10.14900016784668,-18.37700080871582 0,-18.37700080871582 C10.14900016784668,-18.37700080871582 18.37700080871582,-10.14900016784668 18.37700080871582,0z"></path></g><g opacity="1" transform="matrix(1,0,0,1,65.28199768066406,85.93800354003906)"><path fill="rgb(42,36,94)" fill-opacity="1" d=" M19.198999404907227,18.951000213623047 C19.198999404907227,18.951000213623047 -19.198999404907227,18.951000213623047 -19.198999404907227,18.951000213623047 C-25.82699966430664,18.951000213623047 -31.200000762939453,13.57800006866455 -31.200000762939453,6.951000213623047 C-31.200000762939453,6.951000213623047 -31.200000762939453,5.178999900817871 -31.200000762939453,5.178999900817871 C-31.200000762939453,-8.14799976348877 -20.39699935913086,-18.951000213623047 -7.070000171661377,-18.951000213623047 C-7.070000171661377,-18.951000213623047 7.070000171661377,-18.951000213623047 7.070000171661377,-18.951000213623047 C20.39699935913086,-18.951000213623047 31.200000762939453,-8.14799976348877 31.200000762939453,5.178999900817871 C31.200000762939453,5.178999900817871 31.200000762939453,6.951000213623047 31.200000762939453,6.951000213623047 C31.200000762939453,13.57800006866455 25.82699966430664,18.951000213623047 19.198999404907227,18.951000213623047z"></path></g></g><g transform="matrix(-1,0,0,1,342.125,206.06146240234375)" opacity="1" style="display: block;"><g opacity="1" transform="matrix(1,0,0,1,65.28299713134766,65.28299713134766)"><path fill="rgb(2,193,194)" fill-opacity="1" d=" M65.03299713134766,0 C65.03299713134766,35.91600036621094 35.91600036621094,65.03299713134766 -0.0010000000474974513,65.03299713134766 C-35.91699981689453,65.03299713134766 -65.03299713134766,35.91600036621094 -65.03299713134766,0 C-65.03299713134766,-35.91699981689453 -35.91699981689453,-65.03299713134766 -0.0010000000474974513,-65.03299713134766 C35.91600036621094,-65.03299713134766 65.03299713134766,-35.91699981689453 65.03299713134766,0z"></path></g><g opacity="1" transform="matrix(1,0,0,1,65.28199768066406,44.05400085449219)"><path fill="rgb(42,36,94)" fill-opacity="1" d=" M18.37700080871582,0 C18.37700080871582,10.14900016784668 10.14900016784668,18.37700080871582 0,18.37700080871582 C-10.14900016784668,18.37700080871582 -18.37700080871582,10.14900016784668 -18.37700080871582,0 C-18.37700080871582,-10.14900016784668 -10.14900016784668,-18.37700080871582 0,-18.37700080871582 C10.14900016784668,-18.37700080871582 18.37700080871582,-10.14900016784668 18.37700080871582,0z"></path></g><g opacity="1" transform="matrix(1,0,0,1,65.28199768066406,85.93800354003906)"><path fill="rgb(42,36,94)" fill-opacity="1" d=" M19.198999404907227,18.951000213623047 C19.198999404907227,18.951000213623047 -19.198999404907227,18.951000213623047 -19.198999404907227,18.951000213623047 C-25.82699966430664,18.951000213623047 -31.200000762939453,13.57800006866455 -31.200000762939453,6.949999809265137 C-31.200000762939453,6.949999809265137 -31.200000762939453,5.178999900817871 -31.200000762939453,5.178999900817871 C-31.200000762939453,-8.14799976348877 -20.39699935913086,-18.951000213623047 -7.070000171661377,-18.951000213623047 C-7.070000171661377,-18.951000213623047 7.070000171661377,-18.951000213623047 7.070000171661377,-18.951000213623047 C20.39699935913086,-18.951000213623047 31.200000762939453,-8.14799976348877 31.200000762939453,5.178999900817871 C31.200000762939453,5.178999900817871 31.200000762939453,6.949999809265137 31.200000762939453,6.949999809265137 C31.200000762939453,13.57800006866455 25.82699966430664,18.951000213623047 19.198999404907227,18.951000213623047z"></path></g></g><g transform="matrix(-1,0,0,1,876.1380004882812,206.06146240234375)" opacity="1" style="display: block;"><g opacity="1" transform="matrix(1,0,0,1,65.28299713134766,65.28299713134766)"><path fill="rgb(2,193,194)" fill-opacity="1" d=" M65.03299713134766,0 C65.03299713134766,35.91600036621094 35.91600036621094,65.03299713134766 0,65.03299713134766 C-35.91699981689453,65.03299713134766 -65.03299713134766,35.91600036621094 -65.03299713134766,0 C-65.03299713134766,-35.91699981689453 -35.91699981689453,-65.03299713134766 0,-65.03299713134766 C35.91600036621094,-65.03299713134766 65.03299713134766,-35.91699981689453 65.03299713134766,0z"></path></g><g opacity="1" transform="matrix(1,0,0,1,65.28299713134766,44.05400085449219)"><path fill="rgb(42,36,94)" fill-opacity="1" d=" M18.37700080871582,0 C18.37700080871582,10.14900016784668 10.14900016784668,18.37700080871582 0,18.37700080871582 C-10.14900016784668,18.37700080871582 -18.37700080871582,10.14900016784668 -18.37700080871582,0 C-18.37700080871582,-10.14900016784668 -10.14900016784668,-18.37700080871582 0,-18.37700080871582 C10.14900016784668,-18.37700080871582 18.37700080871582,-10.14900016784668 18.37700080871582,0z"></path></g><g opacity="1" transform="matrix(1,0,0,1,65.28299713134766,85.93800354003906)"><path fill="rgb(42,36,94)" fill-opacity="1" d=" M19.198999404907227,18.951000213623047 C19.198999404907227,18.951000213623047 -19.200000762939453,18.951000213623047 -19.200000762939453,18.951000213623047 C-25.82699966430664,18.951000213623047 -31.200000762939453,13.57800006866455 -31.200000762939453,6.949999809265137 C-31.200000762939453,6.949999809265137 -31.200000762939453,5.178999900817871 -31.200000762939453,5.178999900817871 C-31.200000762939453,-8.14799976348877 -20.398000717163086,-18.951000213623047 -7.071000099182129,-18.951000213623047 C-7.071000099182129,-18.951000213623047 7.068999767303467,-18.951000213623047 7.068999767303467,-18.951000213623047 C20.395999908447266,-18.951000213623047 31.200000762939453,-8.14799976348877 31.200000762939453,5.178999900817871 C31.200000762939453,5.178999900817871 31.200000762939453,6.949999809265137 31.200000762939453,6.949999809265137 C31.200000762939453,13.57800006866455 25.82699966430664,18.951000213623047 19.198999404907227,18.951000213623047z"></path></g></g><g transform="matrix(-1,0,0,1,970.5880126953125,420.949462890625)" opacity="1" style="display: block;"><g opacity="1" transform="matrix(1,0,0,1,65.28199768066406,65.28299713134766)"><path fill="rgb(240,200,8)" fill-opacity="1" d=" M65.03199768066406,0 C65.03199768066406,35.91699981689453 35.91699981689453,65.03199768066406 0,65.03199768066406 C-35.91600036621094,65.03199768066406 -65.03199768066406,35.91699981689453 -65.03199768066406,0 C-65.03199768066406,-35.91699981689453 -35.91600036621094,-65.03199768066406 0,-65.03199768066406 C35.91699981689453,-65.03199768066406 65.03199768066406,-35.91699981689453 65.03199768066406,0z"></path></g><g opacity="1" transform="matrix(1,0,0,1,65.28199768066406,44.05400085449219)"><path fill="rgb(42,36,94)" fill-opacity="1" d=" M18.37700080871582,0 C18.37700080871582,10.14900016784668 10.14900016784668,18.37700080871582 0,18.37700080871582 C-10.14900016784668,18.37700080871582 -18.37700080871582,10.14900016784668 -18.37700080871582,0 C-18.37700080871582,-10.14900016784668 -10.14900016784668,-18.37700080871582 0,-18.37700080871582 C10.14900016784668,-18.37700080871582 18.37700080871582,-10.14900016784668 18.37700080871582,0z"></path></g><g opacity="1" transform="matrix(1,0,0,1,65.28199768066406,85.93800354003906)"><path fill="rgb(42,36,94)" fill-opacity="1" d=" M19.198999404907227,18.951000213623047 C19.198999404907227,18.951000213623047 -19.198999404907227,18.951000213623047 -19.198999404907227,18.951000213623047 C-25.82699966430664,18.951000213623047 -31.200000762939453,13.57800006866455 -31.200000762939453,6.951000213623047 C-31.200000762939453,6.951000213623047 -31.200000762939453,5.178999900817871 -31.200000762939453,5.178999900817871 C-31.200000762939453,-8.14799976348877 -20.39699935913086,-18.951000213623047 -7.070000171661377,-18.951000213623047 C-7.070000171661377,-18.951000213623047 7.070000171661377,-18.951000213623047 7.070000171661377,-18.951000213623047 C20.395999908447266,-18.951000213623047 31.200000762939453,-8.14799976348877 31.200000762939453,5.178999900817871 C31.200000762939453,5.178999900817871 31.200000762939453,6.951000213623047 31.200000762939453,6.951000213623047 C31.200000762939453,13.57800006866455 25.82699966430664,18.951000213623047 19.198999404907227,18.951000213623047z"></path></g></g><g transform="matrix(-1,0,0,1,605.3359985351562,43.6434326171875)" opacity="1" style="display: block;"><g opacity="1" transform="matrix(1,0,0,1,65.28199768066406,65.28199768066406)"><path fill="rgb(240,200,8)" fill-opacity="1" d=" M65.03199768066406,0 C65.03199768066406,35.91699981689453 35.91699981689453,65.03199768066406 0,65.03199768066406 C-35.91600036621094,65.03199768066406 -65.03199768066406,35.91699981689453 -65.03199768066406,0 C-65.03199768066406,-35.91699981689453 -35.91600036621094,-65.03199768066406 0,-65.03199768066406 C35.91699981689453,-65.03199768066406 65.03199768066406,-35.91699981689453 65.03199768066406,0z"></path></g><g opacity="1" transform="matrix(1,0,0,1,65.28199768066406,44.053001403808594)"><path fill="rgb(42,36,94)" fill-opacity="1" d=" M18.37700080871582,-0.0010000000474974513 C18.37700080871582,10.14799976348877 10.14799976348877,18.375999450683594 0,18.375999450683594 C-10.149999618530273,18.375999450683594 -18.37700080871582,10.14799976348877 -18.37700080871582,-0.0010000000474974513 C-18.37700080871582,-10.149999618530273 -10.149999618530273,-18.375999450683594 0,-18.375999450683594 C10.14799976348877,-18.375999450683594 18.37700080871582,-10.149999618530273 18.37700080871582,-0.0010000000474974513z"></path></g><g opacity="1" transform="matrix(1,0,0,1,65.28199768066406,85.93699645996094)"><path fill="rgb(42,36,94)" fill-opacity="1" d=" M19.198999404907227,18.951000213623047 C19.198999404907227,18.951000213623047 -19.198999404907227,18.951000213623047 -19.198999404907227,18.951000213623047 C-25.82699966430664,18.951000213623047 -31.200000762939453,13.57800006866455 -31.200000762939453,6.951000213623047 C-31.200000762939453,6.951000213623047 -31.200000762939453,5.178999900817871 -31.200000762939453,5.178999900817871 C-31.200000762939453,-8.14799976348877 -20.39699935913086,-18.951000213623047 -7.070000171661377,-18.951000213623047 C-7.070000171661377,-18.951000213623047 7.070000171661377,-18.951000213623047 7.070000171661377,-18.951000213623047 C20.39699935913086,-18.951000213623047 31.200000762939453,-8.14799976348877 31.200000762939453,5.178999900817871 C31.200000762939453,5.178999900817871 31.200000762939453,6.951000213623047 31.200000762939453,6.951000213623047 C31.200000762939453,13.57800006866455 25.82699966430664,18.951000213623047 19.198999404907227,18.951000213623047z"></path></g></g></g></svg>