<svg xmlns="http://www.w3.org/2000/svg" viewBox="0 0 1080 1080" width="1080" height="1080" preserveAspectRatio="xMidYMid meet" style="width: 100%; height: 100%; transform: translate3d(0px, 0px, 0px);"><defs><clipPath id="__lottie_element_2"><rect width="1080" height="1080" x="0" y="0"></rect></clipPath></defs><g clip-path="url(#__lottie_element_2)"><g transform="matrix(0.9995723366737366,0.029241641983389854,-0.029241641983389854,0.9995723366737366,800.622314453125,821.54638671875)" opacity="1" style="display: block;"><g opacity="1" transform="matrix(1,0,0,1,51.16999816894531,45.2869987487793)"><path fill="rgb(42,36,94)" fill-opacity="1" d=" M-32.222999572753906,-45.034000396728516 C-0.9369999766349792,-45.00600051879883 27.426000595092773,-41.75699996948242 46.70500183105469,-28.485000610351562 C49.345001220703125,-26.66699981689453 50.91999816894531,-23.635000228881836 50.805999755859375,-20.43000030517578 C49.327999114990234,21.381999969482422 27.09600067138672,39.19900131225586 -5.495999813079834,45.0369987487793 C-17.565000534057617,43.928001403808594 -21.906999588012695,37.90800094604492 -15.986000061035156,25.3700008392334 C-35.270999908447266,26.711999893188477 -41.3390007019043,16.740999221801758 -33.904998779296875,-4.7870001792907715 C-44.94900131225586,-2.009999990463257 -50.91999816894531,-4.560999870300293 -49.577999114990234,-14.798999786376953 C-49.029998779296875,-18.988000869750977 -47.30799865722656,-22.94099998474121 -44.810001373291016,-26.347999572753906 C-42.029998779296875,-30.141000747680664 -40.112998962402344,-34.36399841308594 -39.242000579833984,-39.10900115966797 C-38.61600112915039,-42.52199935913086 -35.69300079345703,-45.0369987487793 -32.222999572753906,-45.034000396728516z"></path></g></g><g transform="matrix(0.9999841451644897,-0.005625838413834572,0.005625838413834572,0.9999841451644897,743.15478515625,493.55340576171875)" opacity="1" style="display: block;"><g opacity="1" transform="matrix(1,0,0,1,101.97100067138672,159.13400268554688)"><path fill="rgb(42,36,94)" fill-opacity="1" d=" M33.465999603271484,-39.007999420166016 C42.974998474121094,-24.256999969482422 47.85200119018555,-9.505000114440918 47.88800048828125,5.244999885559082 C47.88800048828125,5.244999885559082 -39.209999084472656,39.007999420166016 -39.209999084472656,39.007999420166016 C-47.888999938964844,24.638999938964844 -46.862998962402344,10.723999977111816 -33.731998443603516,-2.621000051498413 C-33.731998443603516,-2.621000051498413 33.465999603271484,-39.007999420166016 33.465999603271484,-39.007999420166016z"></path></g><g opacity="1" transform="matrix(1,0,0,1,73.20800018310547,87.27400207519531)"><path fill="rgb(2,193,194)" fill-opacity="1" d=" M72.66300201416016,31.50200080871582 C72.95800018310547,32.75699996948242 72.4000015258789,34.064998626708984 71.29100036621094,34.72100067138672 C71.29100036621094,34.72100067138672 57.356998443603516,42.965999603271484 57.356998443603516,42.965999603271484 C57.356998443603516,42.965999603271484 -17.12299919128418,87.02300262451172 -17.12299919128418,87.02300262451172 C-56.198001861572266,13.038999557495117 -72.95800018310547,-56.500999450683594 -22.974000930786133,-82.14299774169922 C-19.347000122070312,-84.00399780273438 -15.373000144958496,-85.63500213623047 -11.026000022888184,-87.02300262451172 C35.694000244140625,-84.27400207519531 57.505001068115234,-32.88600158691406 72.66300201416016,31.50200080871582z"></path></g><g opacity="1" transform="matrix(1,0,0,1,98.19400024414062,65.24500274658203)"><path fill="rgb(53,205,206)" fill-opacity="1" d=" M46.20000076293945,56.81100082397461 C46.20000076293945,56.81100082397461 32.37099838256836,64.99500274658203 32.37099838256836,64.99500274658203 C20.51300048828125,5.797999858856201 -4.236000061035156,-38.30799865722656 -47.959999084472656,-60.11399841308594 C-44.33300018310547,-61.974998474121094 -40.36000061035156,-63.60599899291992 -36.012001037597656,-64.99500274658203 C10.678999900817871,-62.24700164794922 32.4900016784668,-10.918999671936035 47.64699935913086,53.41299819946289 C47.959999084472656,54.737998962402344 47.37200164794922,56.11899948120117 46.20000076293945,56.81100082397461z"></path></g><g opacity="1" transform="matrix(1,0,0,1,112.79000091552734,237.61399841308594)"><path fill="rgb(2,193,194)" fill-opacity="1" d=" M70.21900177001953,67.03600311279297 C69.4489974975586,71.97100067138672 65.72200012207031,75.8949966430664 60.874000549316406,77.09600067138672 C52.16899871826172,79.2490005493164 43.257999420166016,80.79299926757812 34.152000427246094,81.74500274658203 C12.211000442504883,84.05400085449219 -10.881999969482422,82.93199920654297 -34.98899841308594,78.72000122070312 C-36.84199905395508,78.3949966430664 -38.516998291015625,77.38300323486328 -39.65299987792969,75.88400268554688 C-63.74100112915039,44.073001861572266 -77.31700134277344,6.696000099182129 -59.63399887084961,-47.25699996948242 C-56.30799865722656,-42.96900177001953 -16.302000045776367,-56.39899826049805 12.185999870300293,-68.7750015258789 C25.06399917602539,-74.37000274658203 35.577999114990234,-79.75 39.31100082397461,-83.18000030517578 C40.26100158691406,-84.0530014038086 41.77799987792969,-83.8219985961914 42.39699935913086,-82.69100189208984 C72.82499694824219,-27.038999557495117 77.31700134277344,21.572999954223633 70.21900177001953,67.03600311279297z"></path></g><g opacity="1" transform="matrix(1,0,0,1,157.54100036621094,236.45199584960938)"><path fill="rgb(53,205,206)" fill-opacity="1" d=" M16.125,78.25599670410156 C7.420000076293945,80.41000366210938 -1.4930000305175781,81.9540023803711 -10.600000381469727,82.90599822998047 C-3.6410000324249268,28.93400001525879 -8.300000190734863,-21.94499969482422 -32.564998626708984,-67.61199951171875 C-19.658000946044922,-73.22100067138672 -9.123000144958496,-78.61299896240234 -5.414000034332275,-82.04199981689453 C-4.479000091552734,-82.90599822998047 -2.9820001125335693,-82.6760025024414 -2.371999979019165,-81.55799865722656 C28.07200050354004,-25.89299964904785 32.564998626708984,22.729000091552734 25.466999053955078,68.20099639892578 C24.695999145507812,73.13400268554688 20.97100067138672,77.05699920654297 16.125,78.25599670410156z"></path></g></g><g transform="matrix(1,0,0,1,446.14898681640625,466.61480712890625)" opacity="1" style="display: block;"><g opacity="1" transform="matrix(1,0,0,1,197.16700744628906,217.17799377441406)"><path fill="rgb(2,193,194)" fill-opacity="1" d=" M32.81100082397461,187.1929931640625 C32.81100082397461,187.1929931640625 32.79800033569336,187.1929931640625 32.79800033569336,187.1929931640625 C28.45400047302246,188.09800720214844 23.993999481201172,188.88900756835938 19.41900062561035,189.5659942626953 C7.519999980926514,190.31100463867188 -3.7269999980926514,190.14999389648438 -14.342000007629395,189.1529998779297 C-145.43600463867188,176.94400024414062 -181.50100708007812,36.862998962402344 -194.11099243164062,-134.7899932861328 C-194.11099243164062,-134.7899932861328 -58.39899826049805,-155.91900634765625 -58.39899826049805,-155.91900634765625 C-58.39899826049805,-155.91900634765625 55.89899826049805,-173.71099853515625 55.89899826049805,-173.71099853515625 C55.89899826049805,-173.71099853515625 55.94499969482422,-173.72300720214844 55.94499969482422,-173.72300720214844 C55.94499969482422,-173.72300720214844 162.4810028076172,-190.31100463867188 162.4810028076172,-190.31100463867188 C194.11099243164062,22.864999771118164 170.4499969482422,158.7729949951172 32.81100082397461,187.1929931640625z"></path></g><g opacity="1" transform="matrix(1,0,0,1,310.62799072265625,215.61900329589844)"><path fill="rgb(53,205,206)" fill-opacity="1" d=" M-80.6500015258789,188.7519989013672 C-15.899999618530273,170.156005859375 -0.2070000022649765,-71.4530029296875 -57.5620002746582,-172.15199279785156 C-57.5620002746582,-172.15199279785156 -57.51599884033203,-172.16400146484375 -57.51599884033203,-172.16400146484375 C-57.51599884033203,-172.16400146484375 49.02000045776367,-188.7519989013672 49.02000045776367,-188.7519989013672 C80.6500015258789,24.423999786376953 56.98899841308594,160.33200073242188 -80.6500015258789,188.7519989013672z"></path></g><g opacity="1" transform="matrix(1,0,0,1,317.9020080566406,144.03599548339844)"><path fill="rgb(42,36,94)" fill-opacity="1" d=" M-17.783000946044922,-38.43899917602539 C-17.783000946044922,-38.43899917602539 15.189000129699707,-45.09400177001953 15.189000129699707,-45.09400177001953 C19.356000900268555,-45.935001373291016 23.24799919128418,-42.750999450683594 23.24799919128418,-38.500999450683594 C23.24799919128418,-38.500999450683594 23.24799919128418,35.15700149536133 23.24799919128418,35.15700149536133 C23.24799919128418,38.11199951171875 21.32900047302246,40.75199890136719 18.496999740600586,41.59600067138672 C7.598999977111816,44.84400177001953 -3.677999973297119,45.93600082397461 -15.25100040435791,45.33300018310547 C-18.790000915527344,45.14799880981445 -21.604000091552734,42.29100036621094 -21.679000854492188,38.74800109863281 C-21.679000854492188,38.74800109863281 -23.179000854492188,-31.701000213623047 -23.179000854492188,-31.701000213623047 C-23.24799919128418,-34.957000732421875 -20.975000381469727,-37.79399871826172 -17.783000946044922,-38.43899917602539z"></path></g><g opacity="1" transform="matrix(1,0,0,1,317.5849914550781,119)"><path fill="rgb(240,200,8)" fill-opacity="1" d=" M-15.819000244140625,-1.5429999828338623 C-15.819000244140625,-1.5429999828338623 -15.109000205993652,7.828999996185303 -15.109000205993652,7.828999996185303 C-14.994999885559082,9.343000411987305 -13.597999572753906,10.427000045776367 -12.104000091552734,10.16100025177002 C-12.104000091552734,10.16100025177002 13.798999786376953,5.568999767303467 13.798999786376953,5.568999767303467 C15.024999618530273,5.3520002365112305 15.916999816894531,4.2870001792907715 15.916999816894531,3.0429999828338623 C15.916999816894531,3.0429999828338623 15.916999816894531,-7.570000171661377 15.916999816894531,-7.570000171661377 C15.916999816894531,-9.208000183105469 14.402999877929688,-10.427000045776367 12.802000045776367,-10.076000213623047 C12.802000045776367,-10.076000213623047 -13.8100004196167,-4.243000030517578 -13.8100004196167,-4.243000030517578 C-15.059000015258789,-3.9700000286102295 -15.916000366210938,-2.818000078201294 -15.819000244140625,-1.5429999828338623z"></path></g><g opacity="1" transform="matrix(1,0,0,1,318.8139953613281,142.2550048828125)"><path fill="rgb(240,200,8)" fill-opacity="1" d=" M-15.687000274658203,-1.7710000276565552 C-15.687000274658203,-1.7710000276565552 -15.687000274658203,7.448999881744385 -15.687000274658203,7.448999881744385 C-15.687000274658203,8.90999984741211 -14.470000267028809,10.076000213623047 -13.01099967956543,10.01200008392334 C-13.01099967956543,10.01200008392334 12.369000434875488,8.916999816894531 12.369000434875488,8.916999816894531 C13.6850004196167,8.859999656677246 14.744999885559082,7.815000057220459 14.819999694824219,6.5 C14.819999694824219,6.5 15.590999603271484,-7.073999881744385 15.590999603271484,-7.073999881744385 C15.687000274658203,-8.758000373840332 14.157999992370605,-10.076000213623047 12.505999565124512,-9.730999946594238 C12.505999565124512,-9.730999946594238 -13.645000457763672,-4.2829999923706055 -13.645000457763672,-4.2829999923706055 C-14.833999633789062,-4.035999774932861 -15.687000274658203,-2.986999988555908 -15.687000274658203,-1.7710000276565552z"></path></g><g opacity="1" transform="matrix(1,0,0,1,318.8609924316406,169.88999938964844)"><path fill="rgb(240,200,8)" fill-opacity="1" d=" M-15.734000205993652,-4.0329999923706055 C-15.734000205993652,-4.0329999923706055 -15.734000205993652,6.640999794006348 -15.734000205993652,6.640999794006348 C-15.734000205993652,8.121000289916992 -14.486000061035156,9.293999671936035 -13.008000373840332,9.201000213623047 C-13.008000373840332,9.201000213623047 13.32800006866455,7.557000160217285 13.32800006866455,7.557000160217285 C14.680000305175781,7.4720001220703125 15.734000205993652,6.349999904632568 15.734000205993652,4.99399995803833 C15.734000205993652,4.99399995803833 15.734000205993652,-6.5929999351501465 15.734000205993652,-6.5929999351501465 C15.734000205993652,-8.107999801635742 14.428000450134277,-9.295000076293945 12.918999671936035,-9.14799976348877 C12.918999671936035,-9.14799976348877 -13.416999816894531,-6.5879998207092285 -13.416999816894531,-6.5879998207092285 C-14.730999946594238,-6.460000038146973 -15.734000205993652,-5.354000091552734 -15.734000205993652,-4.0329999923706055z"></path></g><g opacity="1" transform="matrix(1,0,0,1,181.60299682617188,59.505001068115234)"><path fill="rgb(42,36,94)" fill-opacity="1" d=" M-170.968994140625,33.358001708984375 C-115.48400115966797,59.25400161743164 131.90499877929688,19.85700035095215 174.66000366210938,-21.430999755859375 C181.35299682617188,-27.893999099731445 178.43899536132812,-39.233001708984375 169.52099609375,-41.88800048828125 C111.17500305175781,-59.255001068115234 -122.03399658203125,-29.19300079345703 -173.44200134277344,10.586999893188477 C-181.35299682617188,16.70800018310547 -180.0330047607422,29.128000259399414 -170.968994140625,33.358001708984375z"></path></g></g><g transform="matrix(1,0,0,1,572.343017578125,880.0008544921875)" opacity="1" style="display: block;"><g opacity="1" transform="matrix(1,0,0,1,80.73999786376953,32.34400177001953)"><path fill="rgb(2,193,194)" fill-opacity="1" d=" M74.51699829101562,3.065999984741211 C73.78399658203125,4.327000141143799 72.71700286865234,5.381999969482422 71.44499969482422,6.0920000076293945 C57.332000732421875,14.003999710083008 43.13999938964844,19.82699966430664 28.8439998626709,23.586999893188477 C-3.4619998931884766,32.09299850463867 -36.22700119018555,30.042999267578125 -69.46199798583984,17.753000259399414 C-71.06600189208984,17.156999588012695 -72.4540023803711,16.05500030517578 -73.40499877929688,14.633000373840332 C-78.58699798583984,6.848999977111816 -80.48999786376953,-1.0720000267028809 -79.2969970703125,-9.119999885559082 C-78.63200378417969,-13.62399959564209 -74.36799621582031,-16.68600082397461 -69.875,-15.940999984741211 C-35.14899826049805,-10.173999786376953 -0.9860000014305115,-10.918999671936035 32.547000885009766,-18.90999984741211 C44.435001373291016,-21.729999542236328 56.24399948120117,-25.479000091552734 67.98300170898438,-30.1560001373291 C72.8550033569336,-32.09299850463867 78.31199645996094,-28.952999114990234 79.05699920654297,-23.770999908447266 C80.48999786376953,-13.92300033569336 79.19499969482422,-4.913000106811523 74.51699829101562,3.065999984741211z"></path></g><g opacity="1" transform="matrix(1,0,0,1,135.40699768066406,28.090999603271484)"><path fill="rgb(53,205,206)" fill-opacity="1" d=" M19.850000381469727,7.318999767303467 C19.117000579833984,8.579999923706055 18.049999237060547,9.635000228881836 16.777999877929688,10.345000267028809 C2.6649999618530273,18.256999969482422 -11.527000427246094,24.079999923706055 -25.822999954223633,27.84000015258789 C-12.21500015258789,15.562000274658203 -9.463000297546387,1.6330000162124634 -22.1200008392334,-14.657999992370605 C-10.232000350952148,-17.47800064086914 1.5770000219345093,-21.226999282836914 13.315999984741211,-25.90399932861328 C18.187999725341797,-27.840999603271484 23.645000457763672,-24.701000213623047 24.389999389648438,-19.518999099731445 C25.822999954223633,-9.670999526977539 24.527999877929688,-0.6600000262260437 19.850000381469727,7.318999767303467z"></path></g></g><g transform="matrix(1,0,0,1,597.6320190429688,955.1741333007812)" opacity="1" style="display: block;"><g opacity="1" transform="matrix(1,0,0,1,59.43899917602539,22.54199981689453)"><path fill="rgb(2,193,194)" fill-opacity="1" d=" M58.124000549316406,-9.017000198364258 C57.86000061035156,-7.285999774932861 57.4370002746582,-5.543000221252441 56.840999603271484,-3.812000036239624 C55.178001403808594,1.1180000305175781 51.33700180053711,5.048999786376953 46.48699951171875,6.940999984741211 C39.73400115966797,9.58899974822998 32.84600067138672,11.871000289916992 25.829999923706055,13.819999694824219 C6.672999858856201,19.138999938964844 -13.437000274658203,21.889999389648438 -34.48400115966797,22.18899917602539 C-41.775001525878906,22.29199981689453 -48.71099853515625,18.944000244140625 -53.06800079345703,13.109000205993652 C-55.32600021362305,10.104999542236328 -56.849998474121094,7.193999767303467 -57.54899978637695,4.395999908447266 C-59.18899917602539,-2.0799999237060547 -54.31700134277344,-8.40999984741211 -47.645999908447266,-8.626999855041504 C-20.968000411987305,-9.508999824523926 4.448999881744385,-11.906000137329102 28.0310001373291,-16.538000106811523 C33.970001220703125,-17.695999145507812 39.78099822998047,-19.00200080871582 45.46799850463867,-20.45800018310547 C52.56399917602539,-22.29199981689453 59.189998626708984,-16.27400016784668 58.124000549316406,-9.017000198364258z"></path></g><g opacity="1" transform="matrix(1,0,0,1,101.9489974975586,18.305999755859375)"><path fill="rgb(53,205,206)" fill-opacity="1" d=" M15.61400032043457,-4.781000137329102 C15.350000381469727,-3.049999952316284 14.927000045776367,-1.3070000410079956 14.331000328063965,0.42399999499320984 C12.668000221252441,5.354000091552734 8.82800006866455,9.28499984741211 3.9779999256134033,11.177000045776367 C-2.7750000953674316,13.824999809265137 -9.663999557495117,16.10700035095215 -16.68000030517578,18.055999755859375 C-11.418000221252441,9.045000076293945 -10.121999740600586,-0.9279999732971191 -14.479000091552734,-12.302000045776367 C-8.539999961853027,-13.460000038146973 -2.7290000915527344,-14.765999794006348 2.9579999446868896,-16.222000122070312 C10.053999900817871,-18.055999755859375 16.68000030517578,-12.038000106811523 15.61400032043457,-4.781000137329102z"></path></g></g><g transform="matrix(0.99684739112854,-0.07934295386075974,0.07934295386075974,0.99684739112854,411.197265625,88.14834594726562)" opacity="1" style="display: block;"><g opacity="1" transform="matrix(1,0,0,1,162.072998046875,121.98899841308594)"><path fill="rgb(2,193,194)" fill-opacity="1" d=" M39.38600158691406,4.573999881744385 C39.38600158691406,4.573999881744385 16.92799949645996,8.885000228881836 16.92799949645996,8.885000228881836 C16.92799949645996,8.885000228881836 -37.974998474121094,19.43199920654297 -37.974998474121094,19.43199920654297 C-37.71200180053711,5.90500020980835 -39.38600158691406,-8.392000198364258 -1.9210000038146973,-14.663000106811523 C-0.6140000224113464,-14.961000442504883 0.6710000038146973,-15.213000297546387 1.9329999685287476,-15.442999839782715 C23.691999435424805,-19.43199920654297 37.25299835205078,-13.918000221252441 39.38600158691406,4.573999881744385z"></path></g><g opacity="1" transform="matrix(1,0,0,1,182.7310028076172,116.97000122070312)"><path fill="rgb(53,205,206)" fill-opacity="1" d=" M-5.807000160217285,14.411999702453613 C-2.8259999752044678,-0.6520000100135803 -7.367000102996826,-7.866000175476074 -18.726999282836914,-10.42199993133545 C3.0320000648498535,-14.411999702453613 16.5939998626709,-8.89799976348877 18.726999282836914,9.593999862670898 C18.726999282836914,9.593999862670898 -5.807000160217285,14.411999702453613 -5.807000160217285,14.411999702453613z"></path></g><g opacity="1" transform="matrix(1,0,0,1,162.1269989013672,68.64399719238281)"><path fill="rgb(42,36,94)" fill-opacity="1" d=" M-15.411999702453613,-38.784000396728516 C-10.739999771118164,-6.117000102996826 -10.470000267028809,21.06100082397461 -15.411999702453613,41.733001708984375 C-15.411999702453613,41.733001708984375 15.411999702453613,36.70199966430664 15.411999702453613,36.70199966430664 C-0.19599999487400055,17.82699966430664 -6.01800012588501,-10.510000228881836 -8.857000350952148,-41.733001708984375 C-8.857000350952148,-41.733001708984375 -15.411999702453613,-38.784000396728516 -15.411999702453613,-38.784000396728516z"></path></g><g opacity="1" transform="matrix(1,0,0,1,149.88400268554688,24.72599983215332)"><path fill="rgb(240,200,8)" fill-opacity="1" d=" M24.475000381469727,-0.0010000000474974513 C24.475000381469727,13.517000198364258 13.517000198364258,24.475000381469727 -0.0010000000474974513,24.475000381469727 C-13.517000198364258,24.475000381469727 -24.475000381469727,13.517000198364258 -24.475000381469727,-0.0010000000474974513 C-24.475000381469727,-13.517999649047852 -13.517000198364258,-24.475000381469727 -0.0010000000474974513,-24.475000381469727 C13.517000198364258,-24.475000381469727 24.475000381469727,-13.517999649047852 24.475000381469727,-0.0010000000474974513z"></path></g><g opacity="1" transform="matrix(1,0,0,1,159.2530059814453,24.726999282836914)"><path fill="rgb(243,211,57)" fill-opacity="1" d=" M15.104000091552734,0 C15.104000091552734,13.515999794006348 4.144000053405762,24.47599983215332 -9.371999740600586,24.47599983215332 C-11.343999862670898,24.47599983215332 -13.270000457763672,24.246999740600586 -15.104000091552734,23.799999237060547 C-4.35099983215332,21.219999313354492 3.640000104904175,11.543999671936035 3.640000104904175,0 C3.640000104904175,-11.543999671936035 -4.35099983215332,-21.219999313354492 -15.104000091552734,-23.799999237060547 C-13.270000457763672,-24.246999740600586 -11.343999862670898,-24.47599983215332 -9.371999740600586,-24.47599983215332 C4.144000053405762,-24.47599983215332 15.104000091552734,-13.517000198364258 15.104000091552734,0z"></path></g><g opacity="1" transform="matrix(1,0,0,1,175.48599243164062,255.89700317382812)"><path fill="rgb(2,193,194)" fill-opacity="1" d=" M167.06199645996094,75.03900146484375 C146.2310028076172,85.81500244140625 124.83899688720703,95.36499786376953 102.88500213623047,103.677001953125 C102.88500213623047,103.677001953125 102.88500213623047,103.68800354003906 102.88500213623047,103.68800354003906 C54.78200149536133,121.91600036621094 3.9839999675750732,134.2740020751953 -49.4739990234375,140.9010009765625 C-75.05000305175781,144.07699584960938 -101.23500061035156,145.9340057373047 -128.0030059814453,146.4949951171875 C-135.30599975585938,146.6439971923828 -141.69200134277344,141.60000610351562 -143.23899841308594,134.468994140625 C-164.00100708007812,39.04100036621094 -175.23599243164062,-51.96099853515625 -95.93800354003906,-100.76399993896484 C-76.33399963378906,-112.83599853515625 -51.18199920654297,-122.33999633789062 -19.266000747680664,-128.67999267578125 C-11.9399995803833,-130.31900024414062 -4.821000099182129,-131.61399841308594 2.0920000076293945,-132.55499267578125 C105.052001953125,-146.6439971923828 163.4510040283203,-83.4990005493164 174.77699279785156,61.236000061035156 C175.23599243164062,66.96800231933594 172.16400146484375,72.4020004272461 167.06199645996094,75.03900146484375z"></path></g><g opacity="1" transform="matrix(1,0,0,1,264.13299560546875,240.7519989013672)"><path fill="rgb(53,205,206)" fill-opacity="1" d=" M78.41500091552734,90.18399810791016 C57.58399963378906,100.95999908447266 39.678001403808594,112.89399719238281 -22.64900016784668,131.49899291992188 C-11.265999794006348,52.314998626708984 14.765999794006348,-94.06800079345703 -86.58899688720703,-117.38700103759766 C-86.58899688720703,-117.38700103759766 -86.55500030517578,-117.41000366210938 -86.55500030517578,-117.41000366210938 C16.405000686645508,-131.49899291992188 74.80400085449219,-68.35399627685547 86.12999725341797,76.38099670410156 C86.58899688720703,82.11299896240234 83.51699829101562,87.5469970703125 78.41500091552734,90.18399810791016z"></path></g><g opacity="1" transform="matrix(1,0,0,1,194.53599548339844,267.635986328125)"><path fill="rgb(42,36,94)" fill-opacity="1" d=" M-63.58399963378906,-83.4209976196289 C-128.88400268554688,-51.86600112915039 -134.7740020751953,0.18000000715255737 -123.54199981689453,57.12699890136719 C-108.8219985961914,99.1050033569336 -70.81900024414062,90.84700012207031 -18.3799991607666,60.887001037597656 C-3.2019999027252197,52.215999603271484 14.545000076293945,48.94599914550781 31.756000518798828,51.994998931884766 C88.40499877929688,62.027000427246094 134.7740020751953,41.78499984741211 111.59500122070312,-28.53499984741211 C92.75700378417969,-72.06700134277344 56.91699981689453,-93.14299774169922 7.130000114440918,-97.18199920654297 C-16.57200050354004,-99.1050033569336 -39.90599822998047,-94.86299896240234 -63.58399963378906,-83.4209976196289z"></path></g></g><g transform="matrix(0.9999996423721313,0.0008587027550674975,-0.0008587027550674975,0.9999996423721313,542.1488037109375,316.36712646484375)" opacity="1" style="display: block;"><g opacity="1" transform="matrix(1,0,0,1,13.494999885559082,21.6299991607666)"><path fill="rgb(240,200,8)" fill-opacity="1" d=" M10.62914752960205,-2.531001329421997 C13.193984031677246,8.29234790802002 10.514653205871582,18.199962615966797 4.644784450531006,19.597705841064453 C-1.2250840663909912,20.99544906616211 -8.064351081848145,13.353370666503906 -10.630147933959961,2.5300209522247314 C-13.193984031677246,-8.293328285217285 -10.513672828674316,-18.199962615966797 -4.64380407333374,-19.597705841064453 C1.2270644903182983,-20.99544906616211 8.064311981201172,-13.354351043701172 10.62914752960205,-2.531001329421997z"></path></g></g><g transform="matrix(0.9999996423721313,0.0008587027550674975,-0.0008587027550674975,0.9999996423721313,657.118408203125,289.2596435546875)" opacity="1" style="display: block;"><g opacity="1" transform="matrix(1,0,0,1,13.494999885559082,21.628999710083008)"><path fill="rgb(240,200,8)" fill-opacity="1" d=" M10.67473030090332,-2.5349318981170654 C13.241307258605957,8.301461219787598 10.545960426330566,18.220003128051758 4.67656135559082,19.60775375366211 C-1.1928377151489258,20.995506286621094 -8.061026573181152,13.343592643737793 -10.629286766052246,2.512932538986206 C-13.194609642028809,-8.308539390563965 -10.483870506286621,-18.20876121520996 -4.614471435546875,-19.596513748168945 C1.2549277544021606,-20.983264923095703 8.11016845703125,-13.363874435424805 10.67473030090332,-2.5349318981170654z"></path></g></g><g transform="matrix(0.9999996423721313,0.0008587027550674975,-0.0008587027550674975,0.9999996423721313,594.8297119140625,331.9982604980469)" opacity="1" style="display: block;"><g opacity="1" transform="matrix(1,0,0,1,29.56399917602539,19.895000457763672)"><path fill="rgb(240,200,8)" fill-opacity="1" d=" M27.93199920654297,-10.944000244140625 C29.31399917602539,-2.243000030517578 19.191999435424805,14.744000434875488 3.765000104904175,17.19499969482422 C-11.66100025177002,19.645000457763672 -26.548999786376953,6.63100004196167 -27.930999755859375,-2.069999933242798 C-29.31399917602539,-10.772000312805176 -16.009000778198242,-7.72599983215332 -0.5830000042915344,-10.175999641418457 C14.843000411987305,-12.626999855041504 26.548999786376953,-19.645000457763672 27.93199920654297,-10.944000244140625z"></path></g></g><g transform="matrix(0.9978771209716797,-0.06512447446584702,0.06512447446584702,0.9978771209716797,411.44775390625,99.92694091796875)" opacity="0.9956071282632474" style="display: block;"><g opacity="1" transform="matrix(1,0,0,1,33.8129997253418,46.680999755859375)"><path fill="rgb(240,200,8)" fill-opacity="1" d=" M-32.75400161743164,39.54399871826172 C-32.75400161743164,39.54399871826172 -17.10300064086914,-42.084999084472656 -17.10300064086914,-42.084999084472656 C-16.558000564575195,-44.92399978637695 -13.42300033569336,-46.430999755859375 -10.866999626159668,-45.08100128173828 C-10.866999626159668,-45.08100128173828 30.488000869750977,-23.2450008392334 30.488000869750977,-23.2450008392334 C33.012001037597656,-21.913000106811523 33.56399917602539,-18.535999298095703 31.594999313354492,-16.469999313354492 C31.594999313354492,-16.469999313354492 -25.415000915527344,43.32400131225586 -25.415000915527344,43.32400131225586 C-28.37700080871582,46.430999755859375 -33.5629997253418,43.7599983215332 -32.75400161743164,39.54399871826172z"></path></g></g><g transform="matrix(0.9978771209716797,-0.06512447446584702,0.06512447446584702,0.9978771209716797,238.10003662109375,77.4547119140625)" opacity="0.9956071282632474" style="display: block;"><g opacity="1" transform="matrix(1,0,0,1,27.534000396728516,46.97800064086914)"><path fill="rgb(240,200,8)" fill-opacity="1" d=" M18.882999420166016,43.10499954223633 C18.882999420166016,43.10499954223633 -25.73200035095215,-27.023000717163086 -25.73200035095215,-27.023000717163086 C-27.284000396728516,-29.46299934387207 -26.03700065612793,-32.70800018310547 -23.250999450683594,-33.479000091552734 C-23.250999450683594,-33.479000091552734 21.81800079345703,-45.965999603271484 21.81800079345703,-45.965999603271484 C24.56800079345703,-46.72800064086914 27.28499984741211,-44.650001525878906 27.270000457763672,-41.79600143432617 C27.270000457763672,-41.79600143432617 26.81599998474121,40.81999969482422 26.81599998474121,40.81999969482422 C26.79199981689453,45.11199951171875 21.187000274658203,46.72700119018555 18.882999420166016,43.10499954223633z"></path></g></g><g transform="matrix(0.9978771209716797,-0.06512447446584702,0.06512447446584702,0.9978771209716797,131.68490600585938,196.1240234375)" opacity="0.9956071282632474" style="display: block;"><g opacity="1" transform="matrix(1,0,0,1,47.16699981689453,30.851999282836914)"><path fill="rgb(240,200,8)" fill-opacity="1" d=" M40.45600128173828,30.179000854492188 C40.45600128173828,30.179000854492188 -42.25699996948242,21.98900032043457 -42.25699996948242,21.98900032043457 C-45.13399887084961,21.70400047302246 -46.91699981689453,18.719999313354492 -45.80400085449219,16.052000045776367 C-45.80400085449219,16.052000045776367 -27.805999755859375,-27.11400032043457 -27.805999755859375,-27.11400032043457 C-26.70800018310547,-29.74799919128418 -23.395999908447266,-30.601999282836914 -21.160999298095703,-28.827999114990234 C-21.160999298095703,-28.827999114990234 43.55500030517578,22.527000427246094 43.55500030517578,22.527000427246094 C46.91699981689453,25.19499969482422 44.72700119018555,30.601999282836914 40.45600128173828,30.179000854492188z"></path></g></g><g transform="matrix(0.9978771209716797,-0.06512447446584702,0.06512447446584702,0.9978771209716797,162.31280517578125,379.1669616699219)" opacity="0.9956071282632474" style="display: block;"><g opacity="1" transform="matrix(1,0,0,1,46.08700180053711,35.224998474121094)"><path fill="rgb(240,200,8)" fill-opacity="1" d=" M42.85100173950195,-26.81599998474121 C42.85100173950195,-26.81599998474121 -14.965999603271484,32.89699935913086 -14.965999603271484,32.89699935913086 C-16.976999282836914,34.974998474121094 -20.42300033569336,34.516998291015625 -21.82200050354004,31.98699951171875 C-21.82200050354004,31.98699951171875 -44.457000732421875,-8.937999725341797 -44.457000732421875,-8.937999725341797 C-45.83700180053711,-11.4350004196167 -44.44900131225586,-14.560999870300293 -41.66999816894531,-15.210000038146973 C-41.66999816894531,-15.210000038146973 38.78200149536133,-33.999000549316406 38.78200149536133,-33.999000549316406 C42.96099853515625,-34.974998474121094 45.83700180053711,-29.899999618530273 42.85100173950195,-26.81599998474121z"></path></g></g><g transform="matrix(1,0,0,1,328.63299560546875,406.53179931640625)" opacity="1" style="display: block;"><g opacity="1" transform="matrix(1,0,0,1,153.48199462890625,231.29800415039062)"><path fill="rgb(42,36,94)" fill-opacity="1" d=" M-45.125999450683594,2.934999942779541 C-41.474998474121094,20.09000015258789 -32.141998291015625,30.558000564575195 -17.834999084472656,35.17100143432617 C2.572000026702881,31.96299934387207 21.273000717163086,26.298999786376953 34.391998291015625,12.600000381469727 C45.125999450683594,-2.7880001068115234 42.97800064086914,-18.763999938964844 31.441999435424805,-35.17100143432617 C31.441999435424805,-35.17100143432617 -45.125999450683594,2.934999942779541 -45.125999450683594,2.934999942779541z"></path></g><g opacity="1" transform="matrix(1,0,0,1,93.5479965209961,118.85199737548828)"><path fill="rgb(2,193,194)" fill-opacity="1" d=" M91.37200164794922,77.2750015258789 C91.26899719238281,80.69000244140625 90.177001953125,84.01499938964844 88.2249984741211,86.80000305175781 C81.22799682617188,96.73799896240234 73.15399932861328,104.23600006103516 63.987998962402344,109.31999969482422 C51.93199920654297,116.0469970703125 38.013999938964844,118.60199737548828 22.312000274658203,117.1510009765625 C16.343000411987305,116.58699798583984 10.682000160217285,114.13400268554688 6.059999942779541,110.2959976196289 C-33.25199890136719,77.6989974975586 -64.51300048828125,20.631000518798828 -89.95899963378906,-54.0369987487793 C-93.2969970703125,-63.82099914550781 -87.43000030517578,-74.38700103759766 -77.38999938964844,-76.63300323486328 C-49.8390007019043,-82.78299713134766 -24.22599983215332,-91.70600128173828 -0.5260000228881836,-103.33699798583984 C6.046999931335449,-106.55899810791016 12.491999626159668,-110 18.770000457763672,-113.64600372314453 C27.295000076293945,-118.60199737548828 38.28499984741211,-115.49600219726562 43.04800033569336,-106.8290023803711 C76.91600036621094,-45.20399856567383 93.2979965209961,16.163999557495117 91.37200164794922,77.2750015258789z"></path></g><g opacity="1" transform="matrix(1,0,0,1,139.93299865722656,114.21099853515625)"><path fill="rgb(53,205,206)" fill-opacity="1" d=" M44.986000061035156,81.91600036621094 C44.882999420166016,85.33100128173828 43.79199981689453,88.65599822998047 41.84000015258789,91.44100189208984 C34.84299850463867,101.37899780273438 26.76799964904785,108.87699890136719 17.601999282836914,113.96099853515625 C14.82800006866455,30.895000457763672 -1.8229999542236328,-43.15700149536133 -46.9119987487793,-98.69599914550781 C-40.3390007019043,-101.91799926757812 -33.89400100708008,-105.35900115966797 -27.615999221801758,-109.00499725341797 C-19.090999603271484,-113.96099853515625 -8.10099983215332,-110.8550033569336 -3.3380000591278076,-102.18800354003906 C30.530000686645508,-40.5629997253418 46.9119987487793,20.80500030517578 44.986000061035156,81.91600036621094z"></path></g></g><g transform="matrix(1,0,0,1,252.708984375,211.48178100585938)" opacity="1" style="display: block;"><g opacity="1" transform="matrix(1,0,0,1,192.69500732421875,107.80799865722656)"><path fill="rgb(42,36,94)" fill-opacity="1" d=" M-32.17300033569336,-6.493000030517578 C-25.961000442504883,-17.983999252319336 -19.090999603271484,-28.624000549316406 -9.454000473022461,-35.68600082397461 C-6.414999961853027,-37.91299819946289 -2.8480000495910645,-39.42900085449219 0.9190000295639038,-39.513999938964844 C21.764999389648438,-39.987998962402344 32.17300033569336,-4.335000038146973 18.74799919128418,12.972999572753906 C6.888000011444092,26.826000213623047 -6.270999908447266,35.23500061035156 -20.302000045776367,39.987998962402344 C-20.302000045776367,39.987998962402344 -32.17300033569336,-6.493000030517578 -32.17300033569336,-6.493000030517578z"></path></g><g opacity="1" transform="matrix(1,0,0,1,121.22000122070312,50.32500076293945)"><path fill="rgb(42,36,94)" fill-opacity="1" d=" M-7.27400016784668,50.07500076293945 C-18.086000442504883,21.347000122070312 -25.253999710083008,-1.784000039100647 -28.489999771118164,-18.881999969482422 C-31.520999908447266,-34.89500045776367 -18.891000747680664,-50.07500076293945 -2.632999897003174,-48.946998596191406 C-2.1110000610351562,-48.9109992980957 -1.590999960899353,-48.85900115966797 -1.0709999799728394,-48.790000915527344 C6.172999858856201,-47.82500076293945 12.331999778747559,-42.981998443603516 15.496999740600586,-36.39400100708008 C24.17799949645996,-18.320999145507812 28.545000076293945,12.541000366210938 31.520000457763672,47.534000396728516 C31.520000457763672,47.534000396728516 -7.27400016784668,50.07500076293945 -7.27400016784668,50.07500076293945z"></path></g><g opacity="1" transform="matrix(1,0,0,1,65.38700103759766,72.58699798583984)"><path fill="rgb(42,36,94)" fill-opacity="1" d=" M5.723999977111816,51.12799835205078 C-9.333000183105469,28.31100082397461 -24.83300018310547,5.164000034332275 -32.73400115966797,-12.322999954223633 C-37.03900146484375,-21.85300064086914 -36.37099838256836,-33.084999084472656 -30.332000732421875,-41.62300109863281 C-26.38599967956543,-47.20000076293945 -21.1200008392334,-50.284000396728516 -14.41100025177002,-50.64400100708008 C-5.415999889373779,-51.12799835205078 2.994999885559082,-46.150001525878906 7.543000221252441,-38.375 C17.791000366210938,-20.85300064086914 27.457000732421875,5.038000106811523 37.03900146484375,32.1349983215332 C37.03900146484375,32.1349983215332 5.723999977111816,51.12799835205078 5.723999977111816,51.12799835205078z"></path></g><g opacity="1" transform="matrix(1,0,0,1,31.274999618530273,120.17900085449219)"><path fill="rgb(42,36,94)" fill-opacity="1" d=" M31.024999618530273,11.729999542236328 C21.93899917602539,-3.746999979019165 12.869999885559082,-19.035999298095703 4.4120001792907715,-28.099000930786133 C-1.6510000228881836,-34.595001220703125 -11.006999969482422,-37.266998291015625 -19.365999221801758,-34.25299835205078 C-25.09000015258789,-32.18899917602539 -28.520000457763672,-28.215999603271484 -29.78499984741211,-22.445999145507812 C-31.024999618530273,-16.790000915527344 -29.68199920654297,-10.842000007629395 -26.43199920654297,-6.050000190734863 C-15.020000457763672,10.776000022888184 0.38199999928474426,24.552000045776367 17.176000595092773,37.26599884033203 C17.176000595092773,37.26599884033203 31.024999618530273,11.729999542236328 31.024999618530273,11.729999542236328z"></path></g><g opacity="1" transform="matrix(1,0,0,1,115.1449966430664,149.60000610351562)"><path fill="rgb(42,36,94)" fill-opacity="1" d=" M-66.69300079345703,7.84499979019165 C-63.42300033569336,-26.31599998474121 12.83899974822998,-68.5459976196289 45.375999450683594,-48.284000396728516 C66.69300079345703,0.7839999794960022 60.0620002746582,34.685001373291016 19.56999969482422,50.21099853515625 C-20.16699981689453,68.5469970703125 -48.683998107910156,53.72100067138672 -66.69300079345703,7.84499979019165z"></path></g></g></g></svg>