<svg xmlns="http://www.w3.org/2000/svg" viewBox="0 0 1080 1080" width="1080" height="1080" preserveAspectRatio="xMidYMid meet" style="width: 100%; height: 100%; transform: translate3d(0px, 0px, 0px);"><defs><clipPath id="__lottie_element_65"><rect width="1080" height="1080" x="0" y="0"></rect></clipPath></defs><g clip-path="url(#__lottie_element_65)"><g transform="matrix(0.9999594688415527,0.009003912098705769,-0.009003912098705769,0.9999594688415527,160.71371459960938,500.6583251953125)" opacity="1" style="display: block;"><g opacity="1" transform="matrix(1,0,0,1,66.31199645996094,66.31300354003906)"><path fill="rgb(42,36,94)" fill-opacity="1" d=" M-22.55900001525879,-53.604000091552734 C-52.16299819946289,-41.14500045776367 -66.06300354003906,-7.044000148773193 -53.604000091552734,22.559999465942383 C-41.14500045776367,52.16400146484375 -7.044000148773193,66.06300354003906 22.559999465942383,53.60300064086914 C52.16400146484375,41.14400100708008 66.06300354003906,7.044000148773193 53.604000091552734,-22.559999465942383 C41.14500045776367,-52.165000915527344 7.045000076293945,-66.06300354003906 -22.55900001525879,-53.604000091552734z"></path></g><g opacity="1" transform="matrix(1,0,0,1,172.95700073242188,114.66500091552734)"><path fill="rgb(53,205,206)" fill-opacity="1" d=" M-53.654998779296875,-85.75900268554688 C-82.9469985961914,-70.11900329589844 -107.04499816894531,-52.27199935913086 -121.23100280761719,-30.195999145507812 C-129.53199768066406,-17.302000045776367 -134.44500732421875,-2.9489998817443848 -135.03199768066406,13.244999885559082 C-92.46900177001953,44.28300094604492 -40.89500045776367,63.58700180053711 12.366999626159668,80.7229995727539 C40.51499938964844,85.75900268554688 71.51899719238281,76.29299926757812 93.40899658203125,59.26599884033203 C121.9010009765625,37.12900161743164 135.0330047607422,2.2290000915527344 106.55599975585938,-30.141000747680664 C65.68599700927734,-54.821998596191406 13.01099967956543,-73.72599792480469 -53.654998779296875,-85.75900268554688z"></path></g><g opacity="1" transform="matrix(1,0,0,1,152.14500427246094,142.4459991455078)"><path fill="rgb(2,193,194)" fill-opacity="1" d=" M-100.41899871826172,-57.97800064086914 C-108.72000122070312,-45.08399963378906 -113.63300323486328,-30.729999542236328 -114.22100067138672,-14.53600025177002 C-71.65699768066406,16.50200080871582 -20.08300018310547,35.80500030517578 33.18000030517578,52.941001892089844 C61.327999114990234,57.97700119018555 92.33100128173828,48.51100158691406 114.22100067138672,31.483999252319336 C50.08300018310547,22.253999710083008 -21.304000854492188,-7.098999977111816 -100.41899871826172,-57.97800064086914z"></path></g></g><g transform="matrix(0.9999594688415527,0.009003912098705769,-0.009003912098705769,0.9999594688415527,170.5938262939453,304.8863525390625)" opacity="1" style="display: block;"><g opacity="1" transform="matrix(1,0,0,1,138.5659942626953,135.5760040283203)"><path fill="rgb(53,205,206)" fill-opacity="1" d=" M-47.10300064086914,135.1529998779297 C-64.25,135.3249969482422 -80.05899810791016,131.8179931640625 -94.45099639892578,124.39900207519531 C-101.18800354003906,120.93699645996094 -107.5999984741211,116.63099670410156 -113.71600341796875,111.43699645996094 C-118.88500213623047,107.03500366210938 -123.81900024414062,102.01200103759766 -128.54100036621094,96.35199737548828 C-136.92300415039062,86.28299713134766 -138.3159942626953,72.11000061035156 -131.9499969482422,60.64699935913086 C-89.16400146484375,-16.344999313354492 -23.011999130249023,-98.83899688720703 45.72999954223633,-131.2449951171875 C53.53099822998047,-134.91600036621094 62.47700119018555,-135.3260040283203 70.51899719238281,-132.2270050048828 C80.23200225830078,-128.49400329589844 88.9489974975586,-124.0459976196289 96.68800354003906,-118.83999633789062 C110.5,-109.55999755859375 121.09600067138672,-97.88300323486328 128.29299926757812,-83.70500183105469 C132.17100524902344,-76.0459976196289 135.0749969482422,-67.65499877929688 136.94500732421875,-58.50899887084961 C138.3159942626953,-51.85300064086914 137.60899353027344,-44.92499923706055 134.7429962158203,-38.77199935913086 C101.48300170898438,32.486000061035156 43.19200134277344,87.05899810791016 -31.389999389648438,130.7480010986328 C-36.16299819946289,133.5449981689453 -41.582000732421875,135.08999633789062 -47.10300064086914,135.1529998779297z"></path></g><g opacity="1" transform="matrix(1,0,0,1,160.49899291992188,161.38600158691406)"><path fill="rgb(2,193,194)" fill-opacity="1" d=" M-69.03500366210938,109.34300231933594 C-86.18199920654297,109.51499938964844 -101.99099731445312,106.00800323486328 -116.38300323486328,98.58899688720703 C-30.354000091552734,38.13100051879883 46.3849983215332,-29.34000015258789 106.36100006103516,-109.51499938964844 C110.23899841308594,-101.85600280761719 113.14299774169922,-93.46600341796875 115.01300048828125,-84.31999969482422 C116.38400268554688,-77.66400146484375 115.6760025024414,-70.73600006103516 112.80999755859375,-64.58300018310547 C79.55000305175781,6.675000190734863 21.259000778198242,61.24800109863281 -53.323001861572266,104.93699645996094 C-58.09600067138672,107.73400115966797 -63.513999938964844,109.27999877929688 -69.03500366210938,109.34300231933594z"></path></g></g><g transform="matrix(0.9999954700469971,0.00300133996643126,-0.00300133996643126,0.9999954700469971,673.924072265625,322.33087158203125)" opacity="1" style="display: block;"><g opacity="1" transform="matrix(1,0,0,1,185.60899353027344,61.75899887084961)"><path fill="rgb(42,36,94)" fill-opacity="1" d=" M-6.788000106811523,-57.7599983215332 C25.111000061035156,-61.50899887084961 54.01100158691406,-38.68899917602539 57.7599983215332,-6.789000034332275 C61.50899887084961,25.111000061035156 38.68899917602539,54.0099983215332 6.789000034332275,57.75899887084961 C-25.111000061035156,61.50899887084961 -54.01100158691406,38.6879997253418 -57.7599983215332,6.788000106811523 C-61.50899887084961,-25.11199951171875 -38.6870002746582,-54.01100158691406 -6.788000106811523,-57.7599983215332z"></path></g><g opacity="1" transform="matrix(1,0,0,1,120.45899963378906,156.25999450683594)"><path fill="rgb(53,205,206)" fill-opacity="1" d=" M0.6079999804496765,-100.93499755859375 C33.801998138427734,-101.76200103759766 63.56700134277344,-98.10900115966797 86.79100036621094,-85.89199829101562 C100.36799621582031,-78.76399993896484 111.71600341796875,-68.69599914550781 120.20899963378906,-54.89400100708008 C98.47000122070312,-6.909999847412109 63.108001708984375,35.303001403808594 25.208999633789062,76.46299743652344 C3.197999954223633,94.71800231933594 -28.44300079345703,101.76100158691406 -55.88199996948242,97.73300170898438 C-91.58200073242188,92.51399993896484 -120.20899963378906,68.61799621582031 -111.38500213623047,26.41900062561035 C-87.98600006103516,-15.199000358581543 -51.46900177001953,-57.60900115966797 0.6079999804496765,-100.93499755859375z"></path></g><g opacity="1" transform="matrix(1,0,0,1,152.6219940185547,164.19500732421875)"><path fill="rgb(2,193,194)" fill-opacity="1" d=" M54.62799835205078,-93.8270034790039 C68.20500183105469,-86.6989974975586 79.55400085449219,-76.62999725341797 88.0459976196289,-62.827999114990234 C66.30799865722656,-14.845000267028809 30.94499969482422,27.3700008392334 -6.953999996185303,68.52899932861328 C-28.96500015258789,86.78399658203125 -60.60599899291992,93.82599639892578 -88.0459976196289,89.79900360107422 C-36.7869987487793,50.15800094604492 10.86299991607666,-10.5649995803833 54.62799835205078,-93.8270034790039z"></path></g></g><g transform="matrix(0.9999954700469971,0.00300133996643126,-0.00300133996643126,0.9999954700469971,573.6737670898438,215.6605224609375)" opacity="1" style="display: block;"><g opacity="1" transform="matrix(1,0,0,1,157.01600646972656,98.10700225830078)"><path fill="rgb(53,205,206)" fill-opacity="1" d=" M156.177001953125,19.972999572753906 C154.8560028076172,27.222000122070312 153.031005859375,34.02399826049805 150.70599365234375,40.39899826049805 C147.94500732421875,47.93199920654297 144.4949951171875,54.84299850463867 140.33599853515625,61.17499923706055 C131.4709930419922,74.7229995727539 119.44000244140625,85.56400299072266 104.44000244140625,93.87200164794922 C99.60399627685547,96.53600311279297 94.12200164794922,97.85700225830078 88.58699798583984,97.78099822998047 C2.1659998893737793,96.5250015258789 -75.45600128173828,77.75800323486328 -139.50799560546875,32.15700149536133 C-145.03199768066406,28.215999603271484 -149.0709991455078,22.527999877929688 -151.156005859375,16.065000534057617 C-154.03900146484375,7.177999973297119 -155.64199829101562,-1.5449999570846558 -156.0469970703125,-10.12600040435791 C-156.76600646972656,-26.010000228881836 -153.30599975585938,-41.393001556396484 -145.86000061035156,-56.27299880981445 C-144.8780059814453,-58.249000549316406 -143.81900024414062,-60.2140007019043 -142.68299865722656,-62.16899871826172 C-139.07000732421875,-68.47899627685547 -134.73699951171875,-74.68000030517578 -129.6820068359375,-80.81500244140625 C-124.21299743652344,-87.4749984741211 -116.23100280761719,-91.5250015258789 -107.62799835205078,-92.18000030517578 C-31.85099983215332,-97.85700225830078 66.37000274658203,-58.68600082397461 141.5469970703125,-12.779000282287598 C150.6300048828125,-7.2220001220703125 156.15499877929688,2.428999900817871 156.64599609375,12.767000198364258 C156.76699829101562,15.14799976348877 156.61399841308594,17.559999465942383 156.177001953125,19.972999572753906z"></path></g><g opacity="1" transform="matrix(1,0,0,1,157.01600646972656,111.49199676513672)"><path fill="rgb(2,193,194)" fill-opacity="1" d=" M156.177001953125,6.5879998207092285 C154.8560028076172,13.836999893188477 153.031005859375,20.638999938964844 150.70599365234375,27.013999938964844 C147.94500732421875,34.547000885009766 144.4949951171875,41.45800018310547 140.33599853515625,47.790000915527344 C131.4709930419922,61.3380012512207 119.44000244140625,72.18000030517578 104.44000244140625,80.48799896240234 C99.60399627685547,83.1520004272461 94.12200164794922,84.4729995727539 88.58699798583984,84.39700317382812 C2.1659998893737793,83.14099884033203 -75.45600128173828,64.37300109863281 -139.50799560546875,18.77199935913086 C-145.03199768066406,14.831000328063965 -149.0709991455078,9.144000053405762 -151.156005859375,2.680999994277954 C-154.03900146484375,-6.205999851226807 -155.64199829101562,-14.930000305175781 -156.0469970703125,-23.51099967956543 C-156.76600646972656,-39.39500045776367 -153.30599975585938,-54.77799987792969 -145.86000061035156,-69.65799713134766 C-144.8780059814453,-71.63400268554688 -143.81900024414062,-73.5979995727539 -142.68299865722656,-75.5530014038086 C-67.71499633789062,-84.47200012207031 33.93600082397461,-56.93899917602539 156.64599609375,-0.6179999709129333 C156.76699829101562,1.7630000114440918 156.61399841308594,4.175000190734863 156.177001953125,6.5879998207092285z"></path></g></g><g transform="matrix(1,0,0,1,412.3060302734375,489.1490173339844)" opacity="1" style="display: block;"><g opacity="1" transform="matrix(1,0,0,1,213.1009979248047,227.25999450683594)"><path fill="rgb(2,193,194)" fill-opacity="1" d=" M208.98899841308594,24.099000930786133 C208.3780059814453,101.11000061035156 152.62399291992188,166.32899475097656 77.23999786376953,180.41200256347656 C-79.35800170898438,209.63800048828125 -161.89199829101562,89.33000183105469 -209.09800720214844,-87.6050033569336 C-209.09800720214844,-87.6050033569336 -188.6719970703125,-94.96399688720703 -188.6719970703125,-94.96399688720703 C-188.6719970703125,-94.96399688720703 129.64199829101562,-209.63800048828125 129.64199829101562,-209.63800048828125 C168.2790069580078,-142.63900756835938 196.3260040283203,-77.1259994506836 205.63699340820312,-18.259000778198242 C207.9409942626953,-3.7070000171661377 209.09800720214844,10.442000389099121 208.98899841308594,24.099000930786133z"></path></g><g opacity="1" transform="matrix(1,0,0,1,221.58299255371094,188.51400756835938)"><path fill="rgb(53,205,206)" fill-opacity="1" d=" M197.15499877929688,20.486000061035156 C184.02200317382812,83.32599639892578 133.6719970703125,133.37100219726562 68.75800323486328,145.48899841308594 C-67.35900115966797,170.8939971923828 -147.51400756835938,83.31500244140625 -197.15499877929688,-56.21799850463867 C-197.15499877929688,-56.21799850463867 121.16000366210938,-170.89300537109375 121.16000366210938,-170.89300537109375 C159.7969970703125,-103.89399719238281 187.84300231933594,-38.380001068115234 197.15499877929688,20.486000061035156z"></path></g><g opacity="1" transform="matrix(1,0,0,1,172.76199340820312,77.26499938964844)"><path fill="rgb(42,36,94)" fill-opacity="1" d=" M-168.11900329589844,52.314998626708984 C-110.9020004272461,-30.88800048828125 -9.326000213623047,-77.01499938964844 160.16600036621094,-66.37999725341797 C167.99600219726562,-65.88800048828125 172.51199340820312,-57.577999114990234 168.46600341796875,-51.09400177001953 C135.1300048828125,2.3410000801086426 -42.28099822998047,77.01499938964844 -160.26199340820312,67.9469985961914 C-168.1840057373047,67.33699798583984 -172.51199340820312,58.702999114990234 -168.11900329589844,52.314998626708984z"></path></g><g opacity="1" transform="matrix(1,0,0,1,346.1189880371094,125.41699981689453)"><path fill="rgb(42,36,94)" fill-opacity="1" d=" M-32.01100158691406,-25.731000900268555 C-22.231000900268555,-32.303001403808594 -12.427000045776367,-41.57899856567383 -2.6040000915527344,-52.683998107910156 C-0.026000000536441803,-55.5989990234375 4.677000045776367,-55.090999603271484 6.742000102996826,-51.67599868774414 C21.871000289916992,-26.650999069213867 31.687999725341797,-2.312999963760376 35.71900177001953,21.27400016784668 C36.21900177001953,24.198999404907227 35.57500076293945,27.19499969482422 33.88800048828125,29.562000274658203 C21.893999099731445,46.404998779296875 9.005999565124512,54.16899871826172 -4.5289998054504395,55.37300109863281 C-7.078999996185303,55.5989990234375 -9.505999565124512,54.06700134277344 -10.39900016784668,51.59700012207031 C-10.39900016784668,51.59700012207031 -34.952999114990234,-16.333999633789062 -34.952999114990234,-16.333999633789062 C-36.21900177001953,-19.834999084472656 -35.01499938964844,-23.711000442504883 -32.01100158691406,-25.731000900268555z"></path></g><g opacity="1" transform="matrix(1,0,0,1,347.75299072265625,125.46099853515625)"><path fill="rgb(42,36,94)" fill-opacity="1" d=" M-25.283000946044922,-21.040000915527344 C-17.874000549316406,-26.055999755859375 -10.501999855041504,-33.21900177001953 -3.1540000438690186,-41.83399963378906 C-1.2259999513626099,-44.09600067138672 2.4119999408721924,-43.59299850463867 4.077000141143799,-40.83599853515625 C16.27400016784668,-20.636999130249023 24.35700035095215,-1.0959999561309814 27.959999084472656,17.72800064086914 C28.406999588012695,20.062000274658203 27.972999572753906,22.429000854492188 26.72100067138672,24.27400016784668 C17.81800079345703,37.4010009765625 8.03499984741211,43.29800033569336 -2.382999897003174,43.96900177001953 C-4.3460001945495605,44.09600067138672 -6.251999855041504,42.82500076293945 -6.992000102996826,40.845001220703125 C-6.992000102996826,40.845001220703125 -27.35700035095215,-13.637999534606934 -27.35700035095215,-13.637999534606934 C-28.406999588012695,-16.445999145507812 -27.558000564575195,-19.5 -25.283000946044922,-21.040000915527344z"></path></g><g opacity="1" transform="matrix(1,0,0,1,347.625,126.81600189208984)"><path fill="rgb(240,200,8)" fill-opacity="1" d=" M-1.024999976158142,-30.983999252319336 C-1.024999976158142,-30.983999252319336 -17.413999557495117,-21.176000595092773 -17.413999557495117,-21.176000595092773 C-18.027999877929688,-20.80900001525879 -18.32900047302246,-20.059999465942383 -18.134000778198242,-19.378999710083008 C-14.616999626159668,-7.058000087738037 -9.940999984741211,4.578000068664551 -3.947000026702881,15.434000015258789 C-3.563999891281128,16.125999450683594 -2.7070000171661377,16.3700008392334 -1.9950000047683716,15.994999885559082 C-1.9950000047683716,15.994999885559082 4.255000114440918,12.699000358581543 4.255000114440918,12.699000358581543 C5.065000057220459,12.272000312805176 6.0320000648498535,12.657999992370605 6.314000129699707,13.520999908447266 C6.314000129699707,13.520999908447266 11.711999893188477,29.993000030517578 11.711999893188477,29.993000030517578 C12.220999717712402,31.545000076293945 14.46500015258789,31.197999954223633 14.61299991607666,29.542999267578125 C14.61299991607666,29.542999267578125 18.22100067138672,-10.862000465393066 18.22100067138672,-10.862000465393066 C18.32900047302246,-12.072999954223633 17.08799934387207,-12.876999855041504 16.041000366210938,-12.272000312805176 C16.041000366210938,-12.272000312805176 5.4770002365112305,-6.177999973297119 5.4770002365112305,-6.177999973297119 C4.538000106811523,-5.636000156402588 3.3989999294281006,-6.224999904632568 3.296999931335449,-7.302999973297119 C3.296999931335449,-7.302999973297119 1.1759999990463257,-29.871000289916992 1.1759999990463257,-29.871000289916992 C1.0740000009536743,-30.959999084472656 -0.0860000029206276,-31.54599952697754 -1.024999976158142,-30.983999252319336z"></path></g></g><g transform="matrix(0.9999502301216125,0.009974935092031956,-0.009974935092031956,0.9999502301216125,353.13916015625,103.5771484375)" opacity="1" style="display: block;"><g opacity="1" transform="matrix(1,0,0,1,123.36199951171875,82.0780029296875)"><path fill="rgb(42,36,94)" fill-opacity="1" d=" M-23.507999420166016,-35.665000915527344 C-11.555000305175781,-6.2870001792907715 -9.222000122070312,17.81800079345703 -11.506999969482422,39.391998291015625 C-11.506999969482422,39.391998291015625 23.507999420166016,23.594999313354492 23.507999420166016,23.594999313354492 C3.174999952316284,10.494999885559082 -7.876999855041504,-11.142999649047852 -11.741000175476074,-39.391998291015625 C-11.741000175476074,-39.391998291015625 -23.507999420166016,-35.665000915527344 -23.507999420166016,-35.665000915527344z"></path></g><g opacity="1" transform="matrix(1,0,0,1,133.7550048828125,125.77300262451172)"><path fill="rgb(2,193,194)" fill-opacity="1" d=" M40.8390007019043,-7.567999839782715 C40.8390007019043,-7.567999839782715 21.679000854492188,0.3089999854564667 21.679000854492188,0.3089999854564667 C21.679000854492188,0.3089999854564667 -39.69300079345703,25.555999755859375 -39.69300079345703,25.555999755859375 C-40.8390007019043,10.291000366210938 -33.88800048828125,-3.931999921798706 -6.228000164031982,-15.538000106811523 C-1.8209999799728394,-17.233999252319336 2.368000030517578,-18.743999481201172 6.302000045776367,-19.966999053955078 C24.23900032043457,-25.555999755859375 36.91600036621094,-25.121999740600586 40.8390007019043,-7.567999839782715z"></path></g><g opacity="1" transform="matrix(1,0,0,1,157.3260040283203,113.1500015258789)"><path fill="rgb(53,205,206)" fill-opacity="1" d=" M17.268999099731445,5.054999828338623 C17.268999099731445,5.054999828338623 -1.8910000324249268,12.932000160217285 -1.8910000324249268,12.932000160217285 C-0.675000011920929,4.836999893188477 -6.668000221252441,-1.746999979019165 -17.268999099731445,-7.343999862670898 C0.6679999828338623,-12.932999610900879 13.345999717712402,-12.49899959564209 17.268999099731445,5.054999828338623z"></path></g><g opacity="1" transform="matrix(1,0,0,1,100.75900268554688,28.545000076293945)"><path fill="rgb(240,200,8)" fill-opacity="1" d=" M24.08300018310547,-7.626999855041504 C28.295000076293945,5.672999858856201 20.92799949645996,19.871000289916992 7.626999855041504,24.08300018310547 C-5.672999858856201,28.295000076293945 -19.871000289916992,20.92799949645996 -24.08300018310547,7.626999855041504 C-28.295000076293945,-5.672999858856201 -20.92799949645996,-19.871000289916992 -7.626999855041504,-24.08300018310547 C5.672999858856201,-28.295000076293945 19.871000289916992,-20.92799949645996 24.08300018310547,-7.626999855041504z"></path></g><g opacity="1" transform="matrix(1,0,0,1,108.37699890136719,27.003000259399414)"><path fill="rgb(42,36,94)" fill-opacity="1" d=" M16.46500015258789,-6.083000183105469 C20.677000045776367,7.2170000076293945 13.307999610900879,21.41699981689453 0.00800000037997961,25.628999710083008 C-1.930999994277954,26.243999481201172 -3.8980000019073486,26.618000030517578 -5.8429999351501465,26.75 C3.934999942779541,20.860000610351562 8.781000137329102,8.850000381469727 5.184000015258789,-2.509000062942505 C1.5859999656677246,-13.869000434875488 -9.291000366210938,-20.89900016784668 -20.676000595092773,-20.086000442504883 C-19.01099967956543,-21.097999572753906 -17.187999725341797,-21.923999786376953 -15.246999740600586,-22.538999557495117 C-1.9479999542236328,-26.75 12.253000259399414,-19.382999420166016 16.46500015258789,-6.083000183105469z"></path></g><g opacity="1" transform="matrix(1,0,0,1,184.8820037841797,266.593994140625)"><path fill="rgb(2,193,194)" fill-opacity="1" d=" M183.60699462890625,-8.505000114440918 C183.42100524902344,-7.894000053405762 183.17999267578125,-7.302999973297119 182.89700317382812,-6.724999904632568 C167.86399841308594,24.259000778198242 145.0260009765625,52.57699966430664 116.8479995727539,76.34400177001953 C53.974998474121094,129.40199279785156 -35.42599868774414,159.86199951171875 -123.79000091552734,147.03399658203125 C-132.84100341796875,145.7239990234375 -140.07899475097656,138.8350067138672 -141.8800048828125,129.86099243164062 C-156.83700561523438,55.481998443603516 -184.6320037841797,-20.1200008392334 -124.2490005493164,-87.30500030517578 C-116.98899841308594,-95.38400268554688 -108.4520034790039,-103.35399627685547 -98.46199798583984,-111.16999816894531 C-77.88300323486328,-127.27300262451172 -54.400001525878906,-139.04299926757812 -29.388999938964844,-145.81199645996094 C-19.42099952697754,-148.5189971923828 -9.192000389099121,-150.44000244140625 1.1799999475479126,-151.52099609375 C81.78199768066406,-159.86099243164062 144.6219940185547,-121.01799774169922 183.38900756835938,-18.07900047302246 C184.5570068359375,-14.98900032043457 184.63299560546875,-11.605999946594238 183.60699462890625,-8.505000114440918z"></path></g><g opacity="1" transform="matrix(1,0,0,1,204.56100463867188,244.1699981689453)"><path fill="rgb(53,205,206)" fill-opacity="1" d=" M163.92799377441406,13.920000076293945 C152.61700439453125,28.28700065612793 139.53900146484375,41.70399856567383 125.052001953125,53.92100143432617 C62.189998626708984,106.97899627685547 -27.211000442504883,137.43699645996094 -115.57599639892578,124.60900115966797 C-124.6259994506836,123.29900360107422 -131.86399841308594,116.41100311279297 -133.66600036621094,107.43699645996094 C-145.3800048828125,49.20500183105469 -164.95399475097656,-9.781999588012695 -143.92799377441406,-64.88099670410156 C-136.66799926757812,-72.95999908447266 -128.13099670410156,-80.93000030517578 -118.14099884033203,-88.74600219726562 C-97.56199645996094,-104.8489990234375 -74.0790023803711,-116.61900329589844 -49.06800079345703,-123.38800048828125 C-39.099998474121094,-126.09500122070312 -28.871000289916992,-128.01600646972656 -18.499000549316406,-129.0970001220703 C62.10300064086914,-137.43699645996094 124.94300079345703,-98.59400177001953 163.7100067138672,4.34499979019165 C164.8780059814453,7.434999942779541 164.95399475097656,10.819000244140625 163.92799377441406,13.920000076293945z"></path></g><g opacity="1" transform="matrix(1,0,0,1,201.82699584960938,248.11000061035156)"><path fill="rgb(42,36,94)" fill-opacity="1" d=" M-39.755001068115234,-100.28600311279297 C-130.99200439453125,-65.69499969482422 -144.25399780273438,-5.873000144958496 -132.19900512695312,62.14099884033203 C-118.9520034790039,119.01399993896484 -54.06800079345703,114.14299774169922 -1.9769999980926514,70.75800323486328 C12.633999824523926,58.5880012512207 30.27400016784668,49.96900177001953 49.250999450683594,46.64899826049805 C106.45899963378906,36.63999938964844 144.25399780273438,5.459000110626221 114.61000061035156,-44.9010009765625 C84.00399780273438,-111.99500274658203 27.643999099731445,-119.01499938964844 -39.755001068115234,-100.28600311279297z"></path></g></g><g transform="matrix(0.9999502301216125,0.009974935092031956,-0.009974935092031956,0.9999502301216125,398.0809631347656,247.57960510253906)" opacity="1" style="display: block;"><g opacity="1" transform="matrix(1,0,0,1,141.20399475097656,88.9729995727539)"><path fill="rgb(240,200,8)" fill-opacity="1" d=" M-130.34300231933594,33.44900131225586 C-130.34300231933594,33.44900131225586 -132.73300170898438,35.15399932861328 -132.73300170898438,35.15399932861328 C-137.98399353027344,38.900001525878906 -140.95399475097656,45.224998474121094 -140.0449981689453,51.61000061035156 C-139.2899932861328,56.91999816894531 -136.60000610351562,59.74399948120117 -132.43299865722656,60.66899871826172 C-130.7530059814453,61.04100036621094 -128.99200439453125,60.571998596191406 -127.63400268554688,59.51599884033203 C-127.63400268554688,59.51599884033203 -119.03500366210938,52.83000183105469 -119.03500366210938,52.83000183105469 C-103.41899871826172,86.14199829101562 -77.46499633789062,88.7229995727539 -45.09400177001953,72.22699737548828 C-21.711999893188477,57.558998107910156 -15.675000190734863,34.369998931884766 -18.485000610351562,6.834000110626221 C-3.4690001010894775,-6.693999767303467 14.984000205993652,-14.739999771118164 37.090999603271484,-16.95800018310547 C55.13199996948242,10.640000343322754 78.88200378417969,22.483999252319336 112.58699798583984,6.861000061035156 C130.93800354003906,-6.810999870300293 139.63499450683594,-27.08300018310547 126.12999725341797,-62.5359992980957 C126.12999725341797,-62.5359992980957 133.34800720214844,-65.68399810791016 133.34800720214844,-65.68399810791016 C138.12899780273438,-67.76899719238281 140.95399475097656,-72.83200073242188 140.0970001220703,-77.97699737548828 C139.13600158691406,-83.74500274658203 135.5279998779297,-87.35099792480469 129.18800354003906,-88.7229995727539 C97.58799743652344,-84.8219985961914 66.64600372314453,-69.4229965209961 35.895999908447266,-50.66999816894531 C28.55699920654297,-43.95399856567383 30.61199951171875,-37.84700012207031 33.29100036621094,-31.780000686645508 C8.892999649047852,-32.45100021362305 -10.211000442504883,-23.881000518798828 -24.410999298095703,-6.751999855041504 C-26.767000198364258,-16.327999114990234 -31.673999786376953,-20.09000015258789 -38.073001861572266,-20.450000762939453 C-68.86599731445312,-16.899999618530273 -99.60700225830078,7.327000141143799 -130.34300231933594,33.44900131225586z"></path></g><g opacity="1" transform="matrix(1,0,0,1,227.54800415039062,55.42599868774414)"><path fill="rgb(2,193,194)" fill-opacity="1" d=" M22.389999389648438,32.04499816894531 C20.190000534057617,33.654998779296875 17.760000228881836,34.915000915527344 15.1899995803833,35.775001525878906 C14.420000076293945,36.03499984741211 13.628999710083008,36.255001068115234 12.829000473022461,36.44499969482422 C-1.7009999752044678,39.79499816894531 -12.920999526977539,38.35499954223633 -21.389999389648438,33.1349983215332 C-32.111000061035156,26.545000076293945 -38.40999984741211,13.914999961853027 -41.439998626708984,-2.6549999713897705 C-42.11000061035156,-6.284999847412109 -40.54100036621094,-9.96500015258789 -37.45100021362305,-11.984999656677246 C-29.81100082397461,-16.985000610351562 -22.010000228881836,-21.55500030517578 -14.020999908447266,-25.594999313354492 C-3.180000066757202,-31.094999313354492 7.999000072479248,-35.64500045776367 19.599000930786133,-39.07500076293945 C19.80900001525879,-39.1349983215332 20.018999099731445,-39.185001373291016 20.229000091552734,-39.224998474121094 C23.200000762939453,-39.79499816894531 26.2189998626709,-38.244998931884766 27.489999771118164,-35.435001373291016 C42.11000061035156,-3.194999933242798 41.77000045776367,17.844999313354492 22.389999389648438,32.04499816894531z"></path></g><g opacity="1" transform="matrix(1,0,0,1,226.96800231933594,55.71099853515625)"><path fill="rgb(53,205,206)" fill-opacity="1" d=" M20.809999465942383,-39.5099983215332 C20.809999465942383,-39.5099983215332 15.769000053405762,35.4900016784668 15.769000053405762,35.4900016784668 C14.99899959564209,35.75 14.208999633789062,35.970001220703125 13.40999984741211,36.15999984741211 C-1.121000051498413,39.5099983215332 -12.34000015258789,38.06999969482422 -20.809999465942383,32.849998474121094 C-20.809999465942383,32.849998474121094 -13.4399995803833,-25.8799991607666 -13.4399995803833,-25.8799991607666 C-2.5989999771118164,-31.3799991607666 8.581000328063965,-35.93000030517578 20.18000030517578,-39.36000061035156 C20.389999389648438,-39.41999816894531 20.600000381469727,-39.470001220703125 20.809999465942383,-39.5099983215332z"></path></g><g opacity="1" transform="matrix(1,0,0,1,75.35800170898438,121.05599975585938)"><path fill="rgb(2,193,194)" fill-opacity="1" d=" M13.180000305175781,32.69499969482422 C12.899999618530273,32.8849983215332 12.600000381469727,33.05500030517578 12.289999961853027,33.20500183105469 C9.84000015258789,34.404998779296875 7.449999809265137,35.42499923706055 5.119999885559082,36.26499938964844 C-8.25,41.10499954223633 -19.639999389648438,40.01499938964844 -29.020000457763672,32.95500183105469 C-35.97999954223633,27.725000381469727 -41.84000015258789,19.225000381469727 -46.599998474121094,7.414999961853027 C-47.5,5.184999942779541 -47.130001068115234,2.615000009536743 -45.619998931884766,0.7350000143051147 C-40.189998626708984,-6.005000114440918 -33.31999969482422,-12.274999618530273 -24.93000030517578,-18.065000534057617 C-13.760000228881836,-25.764999389648438 0.14000000059604645,-32.595001220703125 17.030000686645508,-38.45500183105469 C18.649999618530273,-39.01499938964844 20.299999237060547,-39.57500076293945 21.969999313354492,-40.1150016784668 C25.020000457763672,-41.10499954223633 28.360000610351562,-39.79499816894531 29.940000534057617,-36.994998931884766 C47.5,-6.045000076293945 37.83000183105469,15.96500015258789 13.180000305175781,32.69499969482422z"></path></g><g opacity="1" transform="matrix(1,0,0,1,69.36299896240234,122.38099670410156)"><path fill="rgb(53,205,206)" fill-opacity="1" d=" M23.024999618530273,-39.779998779296875 C23.024999618530273,-39.779998779296875 11.114999771118164,34.939998626708984 11.114999771118164,34.939998626708984 C-2.255000114440918,39.779998779296875 -13.645000457763672,38.689998626708984 -23.024999618530273,31.6299991607666 C-23.024999618530273,31.6299991607666 -18.934999465942383,-19.389999389648438 -18.934999465942383,-19.389999389648438 C-7.764999866485596,-27.09000015258789 6.135000228881836,-33.91999816894531 23.024999618530273,-39.779998779296875z"></path></g></g><g transform="matrix(0.9999502301216125,0.009974935092031956,-0.009974935092031956,0.9999502301216125,525.8408813476562,341.5616760253906)" opacity="1" style="display: block;"><g opacity="1" transform="matrix(1,0,0,1,35.71099853515625,31.38800048828125)"><path stroke-linecap="round" stroke-linejoin="round" fill-opacity="0" stroke="rgb(240,200,8)" stroke-opacity="1" stroke-width="7" d=" M-18.211000442504883,3.5799999237060547 C-1.0160000324249268,13.887999534606934 12.003000259399414,10.866000175476074 18.211000442504883,-13.887999534606934"></path></g></g><g transform="matrix(1,0,0,1,705.7559814453125,862.2410278320312)" opacity="1" style="display: block;"><g opacity="1" transform="matrix(1,0,0,1,69.54900360107422,55.38399887084961)"><path fill="rgb(2,193,194)" fill-opacity="1" d=" M69.24299621582031,-22.589000701904297 C69.23799896240234,-21.06999969482422 68.8499984741211,-19.60099983215332 68.11699676513672,-18.364999771118164 C59.99800109863281,-4.63700008392334 50.78499984741211,7.1519999504089355 40.46900177001953,17.034000396728516 C17.160999298095703,39.374000549316406 -11.732000350952148,51.922000885009766 -46.060001373291016,54.987998962402344 C-47.71799850463867,55.13399887084961 -49.441001892089844,54.70500183105469 -50.94900131225586,53.78099822998047 C-59.18899917602539,48.70500183105469 -64.7040023803711,42.04800033569336 -67.64900207519531,33.90299987792969 C-69.29900360107422,29.344999313354492 -67.17500305175781,24.56100082397461 -62.98500061035156,23.27899932861328 C-30.597000122070312,13.380000114440918 -1.8910000324249268,-2.434999942779541 22.715999603271484,-24.827999114990234 C31.44499969482422,-32.75600051879883 39.64899826049805,-41.5260009765625 47.3390007019043,-51.145999908447266 C50.53200149536133,-55.13399887084961 56.72200012207031,-54.57400131225586 59.90399932861328,-49.999000549316406 C65.96800231933594,-41.3120002746582 69.29900360107422,-32.209999084472656 69.24299621582031,-22.589000701904297z"></path></g><g opacity="1" transform="matrix(1,0,0,1,115.55599975585938,36.33399963378906)"><path fill="rgb(53,205,206)" fill-opacity="1" d=" M23.236000061035156,-3.5390000343322754 C23.231000900268555,-2.0199999809265137 22.841999053955078,-0.5509999990463257 22.108999252319336,0.6850000023841858 C13.989999771118164,14.413000106811523 4.7769999504089355,26.20199966430664 -5.539000034332275,36.08399963378906 C0.0020000000949949026,18.444000244140625 -4.507999897003174,4.044000148773193 -23.29199981689453,-5.7779998779296875 C-14.562999725341797,-13.706000328063965 -6.359000205993652,-22.47599983215332 1.3309999704360962,-32.09600067138672 C4.52400016784668,-36.08399963378906 10.71399974822998,-35.52399826049805 13.895999908447266,-30.948999404907227 C19.959999084472656,-22.261999130249023 23.29199981689453,-13.15999984741211 23.236000061035156,-3.5390000343322754z"></path></g></g><g transform="matrix(1,0,0,1,760.5760498046875,934.916015625)" opacity="1" style="display: block;"><g opacity="1" transform="matrix(1,0,0,1,49.70000076293945,42.21099853515625)"><path fill="rgb(2,193,194)" fill-opacity="1" d=" M46.97200012207031,-31.854999542236328 C47.5989990234375,-30.100000381469727 48.095001220703125,-28.26300048828125 48.439998626708984,-26.361000061035156 C49.45000076293945,-20.958999633789062 48.11600112915039,-15.539999961853027 44.91899871826172,-11.604000091552734 C40.47600173950195,-6.111000061035156 35.73500061035156,-0.9049999713897705 30.722999572753906,4.041999816894531 C17.03700065612793,17.549999237060547 1.2790000438690186,29.047000885009766 -16.48699951171875,38.63800048828125 C-22.641000747680664,41.959999084472656 -30.190000534057617,41.86000061035156 -36.768001556396484,38.26300048828125 C-40.167999267578125,36.41899871826172 -42.89699935913086,34.33700180053711 -44.86899948120117,31.999000549316406 C-49.45000076293945,26.593000411987305 -48.41600036621094,18.450000762939453 -42.845001220703125,15.291999816894531 C-20.577999114990234,2.6589999198913574 -0.12700000405311584,-10.85099983215332 17.663000106811523,-25.665000915527344 C22.14699935913086,-29.38599967956543 26.451000213623047,-33.19499969482422 30.573999404907227,-37.08700180053711 C35.709999084472656,-41.96099853515625 44.310001373291016,-39.19599914550781 46.97200012207031,-31.854999542236328z"></path></g><g opacity="1" transform="matrix(1,0,0,1,83.25599670410156,23.25200080871582)"><path fill="rgb(53,205,206)" fill-opacity="1" d=" M13.416000366210938,-12.895999908447266 C14.043000221252441,-11.140999794006348 14.538000106811523,-9.303999900817871 14.883000373840332,-7.4019999504089355 C15.892999649047852,-2 14.559000015258789,3.4189999103546143 11.362000465393066,7.355000019073486 C6.919000148773193,12.847999572753906 2.178999900817871,18.054000854492188 -2.8329999446868896,23.000999450683594 C-2.7880001068115234,12.145999908447266 -6.5920000076293945,2.131999969482422 -15.892999649047852,-6.705999851226807 C-11.409000396728516,-10.427000045776367 -7.105000019073486,-14.236000061035156 -2.9820001125335693,-18.128000259399414 C2.1540000438690186,-23.00200080871582 10.753999710083008,-20.23699951171875 13.416000366210938,-12.895999908447266z"></path></g></g><g transform="matrix(0.9999502301216125,0.009974935092031956,-0.009974935092031956,0.9999502301216125,554.7333984375,62.116119384765625)" opacity="1" style="display: block;"><g opacity="1" transform="matrix(1,0,0,1,33.527000427246094,40.70399856567383)"><path fill="rgb(240,200,8)" fill-opacity="1" d=" M-25.96299934387207,37.979000091552734 C-25.96299934387207,37.979000091552734 31.285999298095703,-9.914999961853027 31.285999298095703,-9.914999961853027 C33.277000427246094,-11.579999923706055 33.09199905395508,-14.697999954223633 30.91699981689453,-16.114999771118164 C30.91699981689453,-16.114999771118164 -4.263000011444092,-39.053001403808594 -4.263000011444092,-39.053001403808594 C-6.409999847412109,-40.452999114990234 -9.300000190734863,-39.41400146484375 -10.062999725341797,-36.96699905395508 C-10.062999725341797,-36.96699905395508 -32.13100051879883,33.86600112915039 -32.13100051879883,33.86600112915039 C-33.277000427246094,37.54600143432617 -28.920000076293945,40.452999114990234 -25.96299934387207,37.979000091552734z"></path></g></g><g transform="matrix(0.9999502301216125,0.009974935092031956,-0.009974935092031956,0.9999502301216125,618.53662109375,119.25137329101562)" opacity="1" style="display: block;"><g opacity="1" transform="matrix(1,0,0,1,41.84000015258789,30.80900001525879)"><path fill="rgb(240,200,8)" fill-opacity="1" d=" M-35.347999572753906,29.774999618530273 C-35.347999572753906,29.774999618530273 37.73899841308594,14.616000175476074 37.73899841308594,14.616000175476074 C40.28099822998047,14.08899974822998 41.59000015258789,11.255000114440918 40.34299850463867,8.977999687194824 C40.34299850463867,8.977999687194824 20.177000045776367,-27.861000061035156 20.177000045776367,-27.861000061035156 C18.94700050354004,-30.108999252319336 15.907999992370605,-30.558000564575195 14.079999923706055,-28.761999130249023 C14.079999923706055,-28.761999130249023 -38.84000015258789,23.23699951171875 -38.84000015258789,23.23699951171875 C-41.59000015258789,25.93899917602539 -39.12200164794922,30.558000564575195 -35.347999572753906,29.774999618530273z"></path></g></g><g transform="matrix(0.9999502301216125,0.009974935092031956,-0.009974935092031956,0.9999502301216125,301.2619323730469,121.04891967773438)" opacity="1" style="display: block;"><g opacity="1" transform="matrix(1,0,0,1,38.71200180053711,36.7869987487793)"><path fill="rgb(240,200,8)" fill-opacity="1" d=" M36.430999755859375,29.354999542236328 C36.430999755859375,29.354999542236328 -2.9140000343322754,-34.07500076293945 -2.9140000343322754,-34.07500076293945 C-4.2820000648498535,-36.28099822998047 -7.394000053405762,-36.5359992980957 -9.104000091552734,-34.58300018310547 C-9.104000091552734,-34.58300018310547 -36.77299880981445,-2.989000082015991 -36.77299880981445,-2.989000082015991 C-38.46200180053711,-1.0609999895095825 -37.840999603271484,1.9479999542236328 -35.5260009765625,3.046999931335449 C-35.5260009765625,3.046999931335449 31.489999771118164,34.88100051879883 31.489999771118164,34.88100051879883 C34.97200012207031,36.5359992980957 38.4630012512207,32.630001068115234 36.430999755859375,29.354999542236328z"></path></g></g><g transform="matrix(0.9999502301216125,0.009974935092031956,-0.009974935092031956,0.9999502301216125,251.3541259765625,228.28439331054688)" opacity="1" style="display: block;"><g opacity="1" transform="matrix(1,0,0,1,40.750999450683594,25.666000366210938)"><path fill="rgb(240,200,8)" fill-opacity="1" d=" M36.624000549316406,-5.743000030517578 C36.624000549316406,-5.743000030517578 -35.555999755859375,-24.753999710083008 -35.555999755859375,-24.753999710083008 C-38.066001892089844,-25.415000915527344 -40.500999450683594,-23.46299934387207 -40.4010009765625,-20.868000030517578 C-40.4010009765625,-20.868000030517578 -38.77199935913086,21.097999572753906 -38.77199935913086,21.097999572753906 C-38.67300033569336,23.659000396728516 -36.15299987792969,25.416000366210938 -33.715999603271484,24.62299919128418 C-33.715999603271484,24.62299919128418 36.834999084472656,1.6679999828338623 36.834999084472656,1.6679999828338623 C40.500999450683594,0.4749999940395355 40.35200119018555,-4.761000156402588 36.624000549316406,-5.743000030517578z"></path></g></g></g></svg>