<svg xmlns="http://www.w3.org/2000/svg" viewBox="0 0 1080 1080" width="1080" height="1080" preserveAspectRatio="xMidYMid meet" style="width: 100%; height: 100%; transform: translate3d(0px, 0px, 0px);"><defs><clipPath id="__lottie_element_35"><rect width="1080" height="1080" x="0" y="0"></rect></clipPath></defs><g clip-path="url(#__lottie_element_35)"><g transform="matrix(0.998754620552063,-0.04989146441221237,0.04989146441221237,0.998754620552063,163.61260986328125,528.3485717773438)" opacity="1" style="display: block;"><g opacity="1" transform="matrix(1,0,0,1,58.35599899291992,229.93899536132812)"><path fill="rgb(42,36,94)" fill-opacity="1" d=" M58.106998443603516,0 C58.106998443603516,34.178001403808594 32.09199905395508,61.8849983215332 0.0010000000474974513,61.8849983215332 C-32.090999603271484,61.8849983215332 -58.106998443603516,34.178001403808594 -58.106998443603516,0 C-58.106998443603516,-34.17900085449219 -32.090999603271484,-61.8849983215332 0.0010000000474974513,-61.8849983215332 C32.09199905395508,-61.8849983215332 58.106998443603516,-34.17900085449219 58.106998443603516,0z"></path></g><g opacity="1" transform="matrix(1,0,0,1,114.2229995727539,121.39800262451172)"><path fill="rgb(53,205,206)" fill-opacity="1" d=" M-5.875999927520752,121.14700317382812 C-36.54899978637695,118.9219970703125 -63.834999084472656,111.61599731445312 -84.66300201416016,94.58499908447266 C-96.84100341796875,84.64700317382812 -106.81700134277344,71.37000274658203 -113.9729995727539,53.85499954223633 C-91.5469970703125,-2.059999942779541 -56.83399963378906,-49.67300033569336 -19.83099937438965,-95.76599884033203 C1.3799999952316284,-115.7030029296875 30.924999237060547,-121.14800262451172 56.04800033569336,-113.61199951171875 C88.73400115966797,-103.83200073242188 113.9729995727539,-72.15499877929688 103.7490005493164,-21.979999542236328 C80.10399627685547,26.075000762939453 44.316001892089844,73.81300354003906 -5.875999927520752,121.14700317382812z"></path></g><g opacity="1" transform="matrix(1,0,0,1,85.26100158691406,108.11699676513672)"><path fill="rgb(2,193,194)" fill-opacity="1" d=" M-55.70000076293945,107.86699676513672 C-67.87799835205078,97.92900085449219 -77.85399627685547,84.6510009765625 -85.01000213623047,67.13700103759766 C-62.58399963378906,11.220999717712402 -27.8700008392334,-36.393001556396484 9.133000373840332,-82.48600006103516 C30.343000411987305,-102.4229965209961 59.887001037597656,-107.86599731445312 85.01000213623047,-100.33000183105469 C35.75400161743164,-57.37300109863281 -11.208999633789062,11.430999755859375 -55.70000076293945,107.86699676513672z"></path></g></g><g transform="matrix(0.9970527291297913,0.07671903073787689,-0.07671903073787689,0.9970527291297913,597.5316162109375,503.5384521484375)" opacity="1" style="display: block;"><g opacity="1" transform="matrix(1,0,0,1,176.28900146484375,219.45599365234375)"><path fill="rgb(42,36,94)" fill-opacity="1" d=" M-58.10599899291992,0 C-58.10599899291992,34.17900085449219 -32.090999603271484,61.88600158691406 -0.0010000000474974513,61.88600158691406 C32.090999603271484,61.88600158691406 58.10599899291992,34.17900085449219 58.10599899291992,0 C58.10599899291992,-34.17900085449219 32.090999603271484,-61.88600158691406 -0.0010000000474974513,-61.88600158691406 C-32.090999603271484,-61.88600158691406 -58.10599899291992,-34.17900085449219 -58.10599899291992,0z"></path></g><g opacity="1" transform="matrix(1,0,0,1,114.2229995727539,121.39800262451172)"><path fill="rgb(53,205,206)" fill-opacity="1" d=" M5.875999927520752,121.14700317382812 C36.54899978637695,118.9219970703125 63.83399963378906,111.61499786376953 84.66200256347656,94.58499908447266 C96.83999633789062,84.64600372314453 106.81600189208984,71.37000274658203 113.9729995727539,53.854000091552734 C91.5459976196289,-2.061000108718872 56.83300018310547,-49.67399978637695 19.829999923706055,-95.76599884033203 C-1.3819999694824219,-115.7030029296875 -30.926000595092773,-121.14800262451172 -56.04899978637695,-113.61199951171875 C-88.73400115966797,-103.83200073242188 -113.9729995727539,-72.15499877929688 -103.7490005493164,-21.979999542236328 C-80.10399627685547,26.075000762939453 -44.316001892089844,73.81199645996094 5.875999927520752,121.14700317382812z"></path></g><g opacity="1" transform="matrix(1,0,0,1,143.18499755859375,108.11699676513672)"><path fill="rgb(2,193,194)" fill-opacity="1" d=" M55.70000076293945,107.86699676513672 C67.87799835205078,97.9280014038086 77.85399627685547,84.6510009765625 85.01100158691406,67.13600158691406 C62.58399963378906,11.220999717712402 27.871000289916992,-36.39400100708008 -9.131999969482422,-82.48600006103516 C-30.3439998626709,-102.4229965209961 -59.88800048828125,-107.86699676513672 -85.01100158691406,-100.33100128173828 C-35.75400161743164,-57.37300109863281 11.210000038146973,11.430000305175781 55.70000076293945,107.86699676513672z"></path></g></g><g transform="matrix(1,0,0,1,270.0299987792969,481.30145263671875)" opacity="1" style="display: block;"><g opacity="1" transform="matrix(1,0,0,1,222.23699951171875,222.10800170898438)"><path fill="rgb(2,193,194)" fill-opacity="1" d=" M221.98699951171875,-172.64100646972656 C220.16700744628906,44.810001373291016 167.7010040283203,175.76400756835938 1.437000036239624,179.86900329589844 C1.437000036239624,179.86900329589844 1.4240000247955322,179.8699951171875 1.4240000247955322,179.8699951171875 C-3.8239998817443848,180.00900268554688 -9.182000160217285,180.0030059814453 -14.664999961853027,179.87600708007812 C-28.722999572753906,178.5330047607422 -41.85599899291992,176.39300537109375 -54.10300064086914,173.54400634765625 C-205.2969970703125,138.4080047607422 -221.98699951171875,-7.159999847412109 -205.45599365234375,-180.00900268554688 C-205.45599365234375,-180.00900268554688 -171.2010040283203,-179.42300415039062 -171.2010040283203,-179.42300415039062 C-171.2010040283203,-179.42300415039062 -42.777000427246094,-177.2030029296875 -42.777000427246094,-177.2030029296875 C-42.777000427246094,-177.2030029296875 94.2300033569336,-174.8459930419922 94.2300033569336,-174.8459930419922 C94.2300033569336,-174.8459930419922 94.28500366210938,-174.8459930419922 94.28500366210938,-174.8459930419922 C94.28500366210938,-174.8459930419922 202.45199584960938,-172.98399353027344 202.45199584960938,-172.98399353027344 C202.45199584960938,-172.98399353027344 221.98699951171875,-172.64100646972656 221.98699951171875,-172.64100646972656z"></path></g><g opacity="1" transform="matrix(1,0,0,1,230.37399291992188,208.81300354003906)"><path fill="rgb(53,205,206)" fill-opacity="1" d=" M194.31500244140625,-159.68899536132812 C184.0780029296875,39.12300109863281 133.2480010986328,158.86199951171875 -5.046999931335449,165.7779998779297 C-5.046999931335449,165.7779998779297 -5.060999870300293,165.7779998779297 -5.060999870300293,165.7779998779297 C-9.640999794006348,166.0189971923828 -14.317000389099121,166.1269989013672 -19.090999603271484,166.1009979248047 C-31.336000442504883,165.02999877929688 -42.73699951171875,163.14999389648438 -53.34700012207031,160.5489959716797 C-178.6269989013672,129.85800170898438 -194.31500244140625,-3.7190001010894775 -179.33799743652344,-166.1269989013672 C-179.33799743652344,-166.1269989013672 -50.91400146484375,-163.9080047607422 -50.91400146484375,-163.9080047607422 C-50.91400146484375,-163.9080047607422 86.09300231933594,-161.55099487304688 86.09300231933594,-161.55099487304688 C86.09300231933594,-161.55099487304688 86.14800262451172,-161.55099487304688 86.14800262451172,-161.55099487304688 C86.14800262451172,-161.55099487304688 194.31500244140625,-159.68899536132812 194.31500244140625,-159.68899536132812z"></path></g><g opacity="1" transform="matrix(1,0,0,1,375.02398681640625,160.4340057373047)"><path fill="rgb(42,36,94)" fill-opacity="1" d=" M-14.812000274658203,-43.1510009765625 C-14.812000274658203,-43.1510009765625 24.990999221801758,-43.98400115966797 24.990999221801758,-43.98400115966797 C30.020000457763672,-44.0880012512207 33.99599838256836,-40.2400016784668 33.220001220703125,-36.013999938964844 C33.220001220703125,-36.013999938964844 19.79800033569336,37.202999114990234 19.79800033569336,37.202999114990234 C19.260000228881836,40.14099884033203 16.531999588012695,42.42900085449219 13.064000129699707,42.77199935913086 C-0.28299999237060547,44.0880012512207 -13.678000450134277,43.19499969482422 -27.113000869750977,40.564998626708984 C-31.222000122070312,39.7599983215332 -33.994998931884766,36.428001403808594 -33.4370002746582,32.893001556396484 C-33.4370002746582,32.893001556396484 -22.354999542236328,-37.400001525878906 -22.354999542236328,-37.400001525878906 C-21.841999053955078,-40.64799880981445 -18.665000915527344,-43.07099914550781 -14.812000274658203,-43.1510009765625z"></path></g><g opacity="1" transform="matrix(1,0,0,1,378.7380065917969,133.74000549316406)"><path fill="rgb(240,200,8)" fill-opacity="1" d=" M-18.760000228881836,-4.379000186920166 C-18.760000228881836,-4.379000186920166 -19.636999130249023,5.060999870300293 -19.636999130249023,5.060999870300293 C-19.77899932861328,6.586999893188477 -18.340999603271484,7.908999919891357 -16.542999267578125,7.9079999923706055 C-16.542999267578125,7.9079999923706055 14.607999801635742,7.886000156402588 14.607999801635742,7.886000156402588 C16.08099937438965,7.885000228881836 17.31999969482422,6.982999801635742 17.547000885009766,5.745999813079834 C17.547000885009766,5.745999813079834 19.481000900268555,-4.802999973297119 19.481000900268555,-4.802999973297119 C19.77899932861328,-6.432000160217285 18.22800064086914,-7.908999919891357 16.29199981689453,-7.841000080108643 C16.29199981689453,-7.841000080108643 -15.916999816894531,-6.710999965667725 -15.916999816894531,-6.710999965667725 C-17.42799949645996,-6.6579999923706055 -18.641000747680664,-5.664000034332275 -18.760000228881836,-4.379000186920166z"></path></g><g opacity="1" transform="matrix(1,0,0,1,375.3970031738281,158.83999633789062)"><path fill="rgb(240,200,8)" fill-opacity="1" d=" M-18.023000717163086,-6.35099983215332 C-18.023000717163086,-6.35099983215332 -19.702999114990234,2.813999891281128 -19.702999114990234,2.813999891281128 C-19.9689998626709,4.265999794006348 -18.756000518798828,5.639999866485596 -17.038000106811523,5.833000183105469 C-17.038000106811523,5.833000183105469 12.864999771118164,9.196000099182129 12.864999771118164,9.196000099182129 C14.416000366210938,9.371000289916992 15.847000122070312,8.517000198364258 16.173999786376953,7.2220001220703125 C16.173999786376953,7.2220001220703125 19.549999237060547,-6.135000228881836 19.549999237060547,-6.135000228881836 C19.9689998626709,-7.793000221252441 18.41900062561035,-9.369999885559082 16.42300033569336,-9.317999839782715 C16.42300033569336,-9.317999839782715 -15.173999786376953,-8.48900032043457 -15.173999786376953,-8.48900032043457 C-16.61199951171875,-8.45199966430664 -17.801000595092773,-7.559000015258789 -18.023000717163086,-6.35099983215332z"></path></g><g opacity="1" transform="matrix(1,0,0,1,370.4289855957031,184.97900390625)"><path fill="rgb(240,200,8)" fill-opacity="1" d=" M-17.67799949645996,-7.26800012588501 C-17.67799949645996,-7.26800012588501 -19.62299919128418,3.3420000076293945 -19.62299919128418,3.3420000076293945 C-19.89299964904785,4.814000129699707 -18.645000457763672,6.198999881744385 -16.899999618530273,6.367000102996826 C-16.899999618530273,6.367000102996826 14.222000122070312,9.350000381469727 14.222000122070312,9.350000381469727 C15.821000099182129,9.503000259399414 17.259000778198242,8.574000358581543 17.5049991607666,7.22599983215332 C17.5049991607666,7.22599983215332 19.617000579833984,-4.293000221252441 19.617000579833984,-4.293000221252441 C19.89299964904785,-5.798999786376953 18.58099937438965,-7.205999851226807 16.788999557495117,-7.326000213623047 C16.788999557495117,-7.326000213623047 -14.5,-9.399999618530273 -14.5,-9.399999618530273 C-16.062999725341797,-9.503000259399414 -17.437999725341797,-8.581000328063965 -17.67799949645996,-7.26800012588501z"></path></g><g opacity="1" transform="matrix(1,0,0,1,230.56700134277344,46.9010009765625)"><path fill="rgb(42,36,94)" fill-opacity="1" d=" M-206.83099365234375,6.943999767303467 C-146.61300659179688,42.41999816894531 150.09500122070312,46.6510009765625 207.6580047607422,13.107999801635742 C216.66799926757812,7.85699987411499 215.322998046875,-3.9260001182556152 205.37100219726562,-8.128000259399414 C140.25100708007812,-35.62699890136719 -138.16299438476562,-46.6510009765625 -205.57699584960938,-16.125999450683594 C-215.9499969482422,-11.428999900817871 -216.66799926757812,1.1490000486373901 -206.83099365234375,6.943999767303467z"></path></g></g><g transform="matrix(0.9979156255722046,0.0645323097705841,-0.0645323097705841,0.9979156255722046,356.88726806640625,53.90277099609375)" opacity="1" style="display: block;"><g opacity="1" transform="matrix(1,0,0,1,206.53500366210938,86.67900085449219)"><path fill="rgb(42,36,94)" fill-opacity="1" d=" M2.446000099182129,-40.053001403808594 C0.4390000104904175,-5.64900016784668 -8.539999961853027,19.08799934387207 -20.864999771118164,39.180999755859375 C-20.864999771118164,39.180999755859375 20.864999771118164,40.053001403808594 20.864999771118164,40.053001403808594 C7.044000148773193,17.698999404907227 6.316999912261963,-8.692000389099121 15.729999542236328,-38.207000732421875 C15.729999542236328,-38.207000732421875 2.446000099182129,-40.053001403808594 2.446000099182129,-40.053001403808594z"></path></g><g opacity="1" transform="matrix(1,0,0,1,203.67799377441406,136.30299377441406)"><path fill="rgb(53,205,206)" fill-opacity="1" d=" M45.060001373291016,15.680000305175781 C45.060001373291016,15.680000305175781 22.58300018310547,14.45199966430664 22.58300018310547,14.45199966430664 C22.58300018310547,14.45199966430664 -49.41699981689453,10.529999732971191 -49.41699981689453,10.529999732971191 C-43.40599822998047,-4.979000091552734 -29.940000534057617,-15.680000305175781 2.617000102996826,-14.13599967956543 C7.73199987411499,-13.739999771118164 12.54699993133545,-13.263999938964844 16.97800064086914,-12.625 C37.18600082397461,-9.722000122070312 49.41699981689453,-3.372999906539917 45.060001373291016,15.680000305175781z"></path></g><g opacity="1" transform="matrix(1,0,0,1,236.875,137.8300018310547)"><path fill="rgb(2,193,194)" fill-opacity="1" d=" M11.86299991607666,14.152999877929688 C11.86299991607666,14.152999877929688 -10.614999771118164,12.923999786376953 -10.614999771118164,12.923999786376953 C-5.63700008392334,5.552000045776367 -8.437999725341797,-3.7070000171661377 -16.219999313354492,-14.152999877929688 C3.98799991607666,-11.25 16.219999313354492,-4.900000095367432 11.86299991607666,14.152999877929688z"></path></g><g opacity="1" transform="matrix(1,0,0,1,218.2209930419922,29.523000717163086)"><path fill="rgb(240,200,8)" fill-opacity="1" d=" M27.18899917602539,3.7750000953674316 C25.104000091552734,18.791000366210938 11.239999771118164,29.273000717163086 -3.7760000228881836,27.18899917602539 C-18.79199981689453,25.104000091552734 -29.273000717163086,11.239999771118164 -27.187999725341797,-3.7750000953674316 C-25.10300064086914,-18.791000366210938 -11.241000175476074,-29.273000717163086 3.7750000953674316,-27.18899917602539 C18.791000366210938,-25.104000091552734 29.27400016784668,-11.241000175476074 27.18899917602539,3.7750000953674316z"></path></g><g opacity="1" transform="matrix(1,0,0,1,195.7740020751953,282.9580078125)"><path fill="rgb(53,205,206)" fill-opacity="1" d=" M162.91799926757812,89.92400360107422 C160.97799682617188,95.47599792480469 156.718994140625,99.93599700927734 151.28399658203125,102.18299865722656 C116.6240005493164,116.48600006103516 82.77200317382812,125.74099731445312 49.641998291015625,130.3249969482422 C-32.74700164794922,141.76199340820312 -110.55999755859375,124.31800079345703 -184.72500610351562,83.81600189208984 C-191.5019989013672,80.11499786376953 -195.5240020751953,72.79499816894531 -194.88900756835938,65.09700012207031 C-186.0749969482422,-42.39400100708008 -126.19999694824219,-137.2519989013672 -1.3519999980926514,-141.38299560546875 C10.151000022888184,-141.76300048828125 21.67099952697754,-140.87399291992188 32.91400146484375,-138.51699829101562 C32.91400146484375,-138.51699829101562 32.9379997253418,-138.51400756835938 32.9379997253418,-138.51400756835938 C35.981998443603516,-137.87399291992188 39.01100158691406,-137.11700439453125 42.01499938964844,-136.26600646972656 C137.31300354003906,-108.99199676513672 195.5240020751953,-3.680999994277954 162.91799926757812,89.92400360107422z"></path></g><g opacity="1" transform="matrix(1,0,0,1,309.9930114746094,278.86199951171875)"><path fill="rgb(2,193,194)" fill-opacity="1" d=" M48.69900131225586,94.0199966430664 C46.75899887084961,99.5719985961914 42.5,104.03099822998047 37.064998626708984,106.27799987792969 C2.4049999713897705,120.58100128173828 -31.44700050354004,129.83700561523438 -64.5770034790039,134.42100524902344 C-14.590999603271484,56.27000045776367 -3.2269999980926514,-29.834999084472656 -81.30500030517578,-134.42100524902344 C-81.30500030517578,-134.42100524902344 -81.28099822998047,-134.41799926757812 -81.28099822998047,-134.41799926757812 C-78.23699951171875,-133.7779998779297 -75.20800018310547,-133.02099609375 -72.2040023803711,-132.1699981689453 C23.0939998626709,-104.89600372314453 81.30500030517578,0.41499999165534973 48.69900131225586,94.0199966430664z"></path></g><g opacity="1" transform="matrix(1,0,0,1,198.53900146484375,288.3420104980469)"><path fill="rgb(42,36,94)" fill-opacity="1" d=" M1.225000023841858,-102.48100280761719 C-73.03600311279297,-88.8280029296875 -113.64099884033203,-34.819000244140625 -130.46499633789062,7.3520002365112305 C-152.34100341796875,76.66600036621094 -118.04399871826172,96.4020004272461 -26.156999588012695,74.2969970703125 C-2.86299991607666,68.69300079345703 20.795000076293945,70.18399810791016 43.01900100708008,77.927001953125 C122.8219985961914,105.72699737548828 152.34100341796875,58.92399978637695 120.90799713134766,-27.65399932861328 C105.40599822998047,-66.60099792480469 82.79100036621094,-89.28199768066406 53.54499816894531,-99.26599884033203 C36.750999450683594,-104.9990005493164 18.884000778198242,-105.72799682617188 1.225000023841858,-102.48100280761719z"></path></g></g><g transform="matrix(0.9003187417984009,-0.4352310597896576,0.4352310597896576,0.9003187417984009,599.7791748046875,574.8147583007812)" opacity="1" style="display: block;"><g opacity="1" transform="matrix(1,0,0,1,112.49400329589844,125.66200256347656)"><path fill="rgb(53,205,206)" fill-opacity="1" d=" M-9.293000221252441,-122.79499816894531 C-17.57699966430664,-122.00299835205078 -25.051000595092773,-117.58899688720703 -30.009000778198242,-110.9260025024414 C-72.23899841308594,-54.16299819946289 -96.75199890136719,10.819000244140625 -109.69400024414062,81.16999816894531 C-112.24400329589844,94.98999786376953 -104.74600219726562,108.7979965209961 -91.65899658203125,113.93599700927734 C-74.89800262451172,120.52100372314453 -56.95399856567383,124.7300033569336 -37.0890007019043,125.16699981689453 C-25.54599952697754,125.41100311279297 -13.350000381469727,124.38500213623047 -0.382999986410141,121.79100036621094 C6.047999858856201,120.50599670410156 11.859000205993652,117.05899810791016 16.1200008392334,112.08399963378906 C64.38899993896484,55.65700149536133 98.87300109863281,-6.5 110.04299926757812,-77.09200286865234 C112.24400329589844,-91.04399871826172 104.21199798583984,-104.58499908447266 90.93000030517578,-109.41799926757812 C86.51499938964844,-111.02400207519531 82.16000366210938,-112.48300170898438 77.83799743652344,-113.7979965209961 C46.784000396728516,-123.23899841308594 17.990999221801758,-125.41200256347656 -9.293000221252441,-122.79499816894531z"></path></g><g opacity="1" transform="matrix(1,0,0,1,150.0709991455078,131.46800231933594)"><path fill="rgb(2,193,194)" fill-opacity="1" d=" M40.26100158691406,-119.6050033569336 C18.179000854492188,-23.375999450683594 -20.091999053955078,56.3120002746582 -74.66600036621094,119.36100006103516 C-63.12300109863281,119.6050033569336 -50.926998138427734,118.5790023803711 -37.959999084472656,115.98500061035156 C-31.52899932861328,114.69999694824219 -25.718000411987305,111.25299835205078 -21.457000732421875,106.27799987792969 C26.812000274658203,49.85100173950195 61.29499816894531,-12.307000160217285 72.46499633789062,-82.89900207519531 C74.66600036621094,-96.85099792480469 66.63500213623047,-110.39199829101562 53.35300064086914,-115.2249984741211 C48.9379997253418,-116.83100128173828 44.58300018310547,-118.29100036621094 40.26100158691406,-119.6050033569336z"></path></g></g><g transform="matrix(0.7217602729797363,-0.6921431422233582,0.6921431422233582,0.7217602729797363,586.0369873046875,464.7579345703125)" opacity="1" style="display: block;"><g opacity="1" transform="matrix(1,0,0,1,90.22599792480469,71.09700012207031)"><path fill="rgb(42,36,94)" fill-opacity="1" d=" M-19.53700065612793,10.35099983215332 C-19.53700065612793,10.35099983215332 -42.10900115966797,2.6689999103546143 -42.10900115966797,2.6689999103546143 C-75.80999755859375,-2.450000047683716 -89.97599792480469,19.697999954223633 -65.66699981689453,40.9900016784668 C-65.66699981689453,40.9900016784668 -18.422000885009766,62.5890007019043 -18.422000885009766,62.5890007019043 C9.503999710083008,70.84700012207031 31.424999237060547,61.20100021362305 45.604000091552734,27.402000427246094 C45.604000091552734,27.402000427246094 75.26000213623047,-28.18600082397461 75.26000213623047,-28.18600082397461 C89.97699737548828,-63.17499923706055 65.81099700927734,-70.84700012207031 41.7400016784668,-44.60200119018555 C41.7400016784668,-44.60200119018555 10.493000030517578,0.4580000042915344 10.493000030517578,0.4580000042915344 C3.815000057220459,10.09000015258789 -8.440999984741211,14.126999855041504 -19.53700065612793,10.35099983215332z"></path></g><g opacity="1" transform="matrix(1,0,0,1,138.03599548339844,92.38899993896484)"><path fill="rgb(42,36,94)" fill-opacity="1" d=" M23.615999221801758,-42.29100036621094 C34.02000045776367,-28.785999298095703 35.83700180053711,-15.496000289916992 26.57900047302246,-2.4820001125335693 C35.992000579833984,26.85300064086914 -7.327000141143799,38.99399948120117 -35.992000579833984,42.29100036621094 C-35.992000579833984,42.29100036621094 23.615999221801758,-42.29100036621094 23.615999221801758,-42.29100036621094z"></path></g></g><g transform="matrix(0.9523438215255737,-0.30502650141716003,0.30502650141716003,0.9523438215255737,158.50949096679688,631.074951171875)" opacity="1" style="display: block;"><g opacity="1" transform="matrix(1,0,0,1,126.73200225830078,108.64600372314453)"><path fill="rgb(53,205,206)" fill-opacity="1" d=" M122.76699829101562,14.324000358581543 C121.64099884033203,22.569000244140625 116.93000030517578,29.858999252319336 110.0719985961914,34.54499816894531 C51.650001525878906,74.447998046875 -14.270999908447266,96.31700134277344 -85.08699798583984,106.40699768066406 C-98.99800109863281,108.39600372314453 -112.49099731445312,100.34700012207031 -117.0979995727539,87.06400299072266 C-123.0009994506836,70.0510025024414 -126.48200225830078,51.95000076293945 -126.11499786376953,32.08399963378906 C-125.89299774169922,20.541000366210938 -124.375,8.395000457763672 -121.26000213623047,-4.455999851226807 C-119.71499633789062,-10.829000473022461 -116.03800201416016,-16.496000289916992 -110.8949966430664,-20.55299949645996 C-52.564998626708984,-66.50299835205078 10.9350004196167,-98.4489974975586 81.9209976196289,-106.76000213623047 C95.95099639892578,-108.39600372314453 109.15499877929688,-99.822998046875 113.447998046875,-86.35700225830078 C114.8740005493164,-81.88099670410156 116.15799713134766,-77.47000122070312 117.2959976196289,-73.0989990234375 C125.47599792480469,-41.689998626708984 126.48300170898438,-12.831999778747559 122.76699829101562,14.324000358581543z"></path></g><g opacity="1" transform="matrix(1,0,0,1,122.3219985961914,70.48999786376953)"><path fill="rgb(2,193,194)" fill-opacity="1" d=" M121.70600128173828,-34.94300079345703 C24.663000106811523,-16.764999389648438 -56.50400161743164,18.256999969482422 -121.70600128173828,70.23999786376953 C-121.48300170898438,58.696998596191406 -119.96499633789062,46.55099868774414 -116.8499984741211,33.70000076293945 C-115.30599975585938,27.32699966430664 -111.62799835205078,21.65999984741211 -106.48500061035156,17.60300064086914 C-48.154998779296875,-28.347000122070312 15.345000267028809,-60.29399871826172 86.33100128173828,-68.60399627685547 C100.36000061035156,-70.23999786376953 113.56600189208984,-61.667999267578125 117.85800170898438,-48.20100021362305 C119.28500366210938,-43.724998474121094 120.56700134277344,-39.31399917602539 121.70600128173828,-34.94300079345703z"></path></g></g><g transform="matrix(0.999991238117218,0.0041929990984499454,-0.0041929990984499454,0.999991238117218,411.225341796875,384.9121398925781)" opacity="1" style="display: block;"><g opacity="1" transform="matrix(1,0,0,1,210.1790008544922,143.8090057373047)"><path fill="rgb(240,200,8)" fill-opacity="1" d=" M-195.42599487304688,134.16299438476562 C-195.42599487304688,134.16299438476562 -147.26600646972656,-88.36499786376953 -147.26600646972656,-88.36499786376953 C-147.26600646972656,-88.36499786376953 -49.29600143432617,-77.85199737548828 -49.29600143432617,-77.85199737548828 C-49.29600143432617,-77.85199737548828 90.29499816894531,-107.63899993896484 90.29499816894531,-107.63899993896484 C90.29499816894531,-107.63899993896484 195.42599487304688,-143.5590057373047 195.42599487304688,-143.5590057373047 C195.42599487304688,-143.5590057373047 147.24099731445312,88.60600280761719 147.24099731445312,88.60600280761719 C147.24099731445312,88.60600280761719 63.13600158691406,86.85399627685547 63.13600158691406,86.85399627685547 C63.13600158691406,86.85399627685547 -110.9260025024414,143.5590057373047 -110.9260025024414,143.5590057373047 C-110.9260025024414,143.5590057373047 -195.42599487304688,134.16299438476562 -195.42599487304688,134.16299438476562z"></path></g><g opacity="1" transform="matrix(1,0,0,1,199.86399841308594,161.7689971923828)"><path fill="rgb(243,211,57)" fill-opacity="1" d=" M-100.61000061035156,125.5979995727539 C-100.61000061035156,125.5979995727539 -38.98099899291992,-95.81199645996094 -38.98099899291992,-95.81199645996094 C-38.98099899291992,-95.81199645996094 100.61000061035156,-125.5979995727539 100.61000061035156,-125.5979995727539 C100.61000061035156,-125.5979995727539 73.45099639892578,68.8949966430664 73.45099639892578,68.8949966430664 C73.45099639892578,68.8949966430664 -100.61000061035156,125.5979995727539 -100.61000061035156,125.5979995727539z"></path></g><g opacity="1" transform="matrix(1,0,0,1,59.840999603271484,173.92799377441406)"><path fill="rgb(42,36,94)" fill-opacity="1" d=" M-39.32099914550781,-44.082000732421875 C-55.7140007019043,-21.19499969482422 -59.590999603271484,5.883999824523926 -55.14099884033203,35.75299835205078 C-53.04600143432617,49.8120002746582 -42.62099838256836,60.558998107910156 -29.91699981689453,61.89099884033203 C-11.253000259399414,63.84600067138672 6.429999828338623,63.481998443603516 22.04599952697754,58.23400115966797 C24.687999725341797,57.34700012207031 27.201000213623047,56.01300048828125 29.4950008392334,54.30099868774414 C49.71799850463867,39.196998596191406 59.590999603271484,17.429000854492188 54.527000427246094,-13.958000183105469 C53.7760009765625,-18.608999252319336 53.9010009765625,-23.395000457763672 54.983001708984375,-27.96500015258789 C57.66299819946289,-39.275001525878906 55.32400131225586,-47.68000030517578 49.51900100708008,-54.07699966430664 C44.70500183105469,-59.382999420166016 38.15800094604492,-62.207000732421875 31.4060001373291,-62.63999938964844 C12.607000350952148,-63.84600067138672 -6.1539998054504395,-60.5989990234375 -24.892000198364258,-54.79199981689453 C-30.589000701904297,-53.0260009765625 -35.62799835205078,-49.237998962402344 -39.32099914550781,-44.082000732421875z"></path></g></g><g transform="matrix(1,0,0,1,413.07501220703125,914.7847290039062)" opacity="1" style="display: block;"><g opacity="1" transform="matrix(1,0,0,1,84.63999938964844,28.496999740600586)"><path fill="rgb(53,205,206)" fill-opacity="1" d=" M76.78900146484375,6.438000202178955 C75.9229965209961,7.613999843597412 74.7249984741211,8.557999610900879 73.34200286865234,9.147000312805176 C57.994998931884766,15.704999923706055 42.73500061035156,20.204999923706055 27.534000396728516,22.66900062561035 C-6.817999839782715,28.246999740600586 -40.792999267578125,23.413000106811523 -74.4260025024414,8.480999946594238 C-76.05000305175781,7.756999969482422 -77.40499877929688,6.557000160217285 -78.28099822998047,5.078999996185303 C-83.04900360107422,-3.0139999389648438 -84.38999938964844,-10.960000038146973 -82.49500274658203,-18.763999938964844 C-81.43699645996094,-23.131999969482422 -76.74600219726562,-25.773000717163086 -72.1240005493164,-24.65399932861328 C-36.40800094604492,-16.00200080871582 -0.75,-13.795999526977539 34.8390007019043,-18.761999130249023 C47.45500183105469,-20.510000228881836 60.06100082397461,-23.177000045776367 72.67400360107422,-26.761999130249023 C77.90699768066406,-28.246999740600586 83.33899688720703,-24.691999435424805 83.69499969482422,-19.53700065612793 C84.38999938964844,-9.73900032043457 82.30999755859375,-0.9990000128746033 76.78900146484375,6.438000202178955z"></path></g><g opacity="1" transform="matrix(1,0,0,1,140.6020050048828,25.70800018310547)"><path fill="rgb(2,193,194)" fill-opacity="1" d=" M20.82699966430664,9.22700023651123 C19.961000442504883,10.402999877929688 18.76300048828125,11.347000122070312 17.3799991607666,11.935999870300293 C2.0329999923706055,18.493999481201172 -13.22700023651123,22.993999481201172 -28.42799949645996,25.45800018310547 C-13.253000259399414,14.567000389099121 -9.256999969482422,1.1200000047683716 -21.124000549316406,-15.972999572753906 C-8.508000373840332,-17.72100067138672 4.098999977111816,-20.38800048828125 16.711999893188477,-23.972999572753906 C21.94499969482422,-25.45800018310547 27.37700080871582,-21.902999877929688 27.732999801635742,-16.74799919128418 C28.42799949645996,-6.949999809265137 26.347999572753906,1.7899999618530273 20.82699966430664,9.22700023651123z"></path></g></g><g transform="matrix(1,0,0,1,434.69598388671875,977.900390625)" opacity="1" style="display: block;"><g opacity="1" transform="matrix(1,0,0,1,62.499000549316406,19.114999771118164)"><path fill="rgb(53,205,206)" fill-opacity="1" d=" M60.55099868774414,-5.343999862670898 C60.13600158691406,-3.6659998893737793 59.553001403808594,-1.9889999628067017 58.79100036621094,-0.3409999907016754 C56.659000396728516,4.359000205993652 52.3390007019043,7.892000198364258 47.13199996948242,9.333000183105469 C39.88199996948242,11.354000091552734 32.516998291015625,13.003000259399414 25.048999786376953,14.314000129699707 C4.656000137329102,17.891000747680664 -16.518999099731445,18.86400032043457 -38.474998474121094,17.34600067138672 C-46.08100128173828,16.820999145507812 -53.0359992980957,12.9350004196167 -57.10200119018555,6.828999996185303 C-59.21200180053711,3.683000087738037 -60.564998626708984,0.6930000185966492 -61.06700134277344,-2.115000009536743 C-62.249000549316406,-8.619000434875488 -56.659000396728516,-14.418000221252441 -49.689998626708984,-14.059000015258789 C-21.820999145507812,-12.630999565124512 4.85699987411499,-12.79800033569336 29.804000854492188,-15.319999694824219 C36.08599853515625,-15.946999549865723 42.24800109863281,-16.731000900268555 48.29100036621094,-17.67099952697754 C55.83399963378906,-18.86400032043457 62.25,-12.380999565124512 60.55099868774414,-5.343999862670898z"></path></g><g opacity="1" transform="matrix(1,0,0,1,106.14800262451172,16.839000701904297)"><path fill="rgb(2,193,194)" fill-opacity="1" d=" M16.902000427246094,-3.068000078201294 C16.48699951171875,-1.3899999856948853 15.904000282287598,0.28600001335144043 15.142000198364258,1.934000015258789 C13.010000228881836,6.633999824523926 8.6899995803833,10.166999816894531 3.4830000400543213,11.607999801635742 C-3.7669999599456787,13.628999710083008 -11.131999969482422,15.277999877929688 -18.600000381469727,16.589000701904297 C-12.38700008392334,8.189000129699707 -10.227999687194824,-1.4980000257492065 -13.845000267028809,-13.045000076293945 C-7.563000202178955,-13.67199993133545 -1.4010000228881836,-14.456000328063965 4.642000198364258,-15.395999908447266 C12.1850004196167,-16.589000701904297 18.60099983215332,-10.104999542236328 16.902000427246094,-3.068000078201294z"></path></g></g><g transform="matrix(0.9969455003738403,0.07810071110725403,-0.07810071110725403,0.9969455003738403,123.49884033203125,207.39495849609375)" opacity="1" style="display: block;"><g opacity="1" transform="matrix(1,0,0,1,84.34600067138672,127.68499755859375)"><path fill="rgb(240,200,8)" fill-opacity="1" d=" M-82.40399932861328,-41.994998931884766 C-84.09600067138672,-52.47600173950195 -82.4469985961914,-63.63800048828125 -77.4540023803711,-75.48200225830078 C-72.46299743652344,-87.32499694824219 -64.08000183105469,-97.82099914550781 -52.31100082397461,-106.96600341796875 C-40.54199981689453,-116.11000061035156 -26.052000045776367,-122.072998046875 -8.84000015258789,-124.85199737548828 C7.15500020980835,-127.43399810791016 21.756000518798828,-126.76100158691406 34.95500183105469,-122.83899688720703 C48.154998779296875,-118.91300201416016 58.909000396728516,-112.41400146484375 67.2249984741211,-103.34100341796875 C75.53900146484375,-94.26699829101562 80.65799713134766,-83.7750015258789 82.58100128173828,-71.85900115966797 C84.09600067138672,-62.48099899291992 83.5199966430664,-53.952999114990234 80.85299682617188,-46.27899932861328 C78.18699645996094,-38.604000091552734 74.6449966430664,-31.777000427246094 70.23600006103516,-25.799999237060547 C65.822998046875,-19.823999404907227 57.81100082397461,-9.67199993133545 46.20100021362305,4.656000137329102 C43.000999450683594,8.680999755859375 40.47800064086914,12.175000190734863 38.63800048828125,15.130000114440918 C36.79399871826172,18.08799934387207 35.49399948120117,20.732999801635742 34.7400016784668,23.062000274658203 C33.98400115966797,25.392000198364258 33.472999572753906,27.680999755859375 33.215999603271484,29.93000030517578 C32.95600128173828,32.17900085449219 32.65700149536133,36.108001708984375 32.314998626708984,41.70800018310547 C32.071998596191406,53.52299880981445 26.430999755859375,60.31800079345703 15.399999618530273,62.0989990234375 C9.663000106811523,63.0260009765625 4.531000137329102,61.93000030517578 0.010999999940395355,58.810001373291016 C-4.511000156402588,55.694000244140625 -7.368000030517578,50.43600082397461 -8.562000274658203,43.04399871826172 C-10.057999610900879,33.7760009765625 -9.92300033569336,25.51799964904785 -8.14799976348877,18.268999099731445 C-6.375,11.020000457763672 -3.5299999713897705,4.447999954223633 0.38600000739097595,-1.4479999542236328 C4.298999786376953,-7.343999862670898 9.715999603271484,-14.472999572753906 16.6299991607666,-22.834999084472656 C22.691999435424805,-30.152999877929688 27.04400062561035,-35.638999938964844 29.680999755859375,-39.29100036621094 C32.31700134277344,-42.94300079345703 34.400001525878906,-46.869998931884766 35.928001403808594,-51.08100128173828 C37.45500183105469,-55.290000915527344 37.85499954223633,-59.65399932861328 37.124000549316406,-64.18000030517578 C35.69900131225586,-73.00599670410156 31.21299934387207,-79.9229965209961 23.67099952697754,-84.93199920654297 C16.12700080871582,-89.93800354003906 7.165999889373779,-91.60700225830078 -3.2019999027252197,-89.93199920654297 C-15.340999603271484,-87.9729995727539 -23.784000396728516,-83.46800231933594 -28.530000686645508,-76.41899871826172 C-33.27899932861328,-69.36900329589844 -36.676998138427734,-59.56700134277344 -38.724998474121094,-47.0099983215332 C-40.4630012512207,-33.935001373291016 -46.571998596191406,-26.554000854492188 -57.053001403808594,-24.86199951171875 C-63.23400115966797,-23.86400032043457 -68.79900360107422,-25.197999954223633 -73.7490005493164,-28.87299919128418 C-78.69999694824219,-32.54499816894531 -81.58499908447266,-36.91999816894531 -82.40399932861328,-41.994998931884766z M27.64299964904785,126.34700012207031 C20.913000106811523,127.43399810791016 14.685999870300293,126.2030029296875 8.961999893188477,122.65599822998047 C3.2360000610351562,119.10900115966797 -0.25600001215934753,113.4209976196289 -1.5210000276565552,105.58599853515625 C-2.6440000534057617,98.63500213623047 -1.1629999876022339,92.3949966430664 2.927999973297119,86.86699676513672 C7.017000198364258,81.34100341796875 12.590999603271484,78.00399780273438 19.652999877929688,76.86499786376953 C26.60300064086914,75.74199676513672 32.83399963378906,77.1719970703125 38.34400177001953,81.14800262451172 C43.85200119018555,85.12699890136719 47.16999816894531,90.59100341796875 48.29199981689453,97.54199981689453 C49.53900146484375,105.26499938964844 48.03799819946289,111.73699951171875 43.78499984741211,116.94999694824219 C39.53200149536133,122.16200256347656 34.152000427246094,125.2959976196289 27.64299964904785,126.34700012207031z"></path></g></g><g transform="matrix(0.9954972267150879,-0.09479072690010071,0.09479072690010071,0.9954972267150879,706.989501953125,142.646484375)" opacity="1" style="display: block;"><g opacity="1" transform="matrix(1,0,0,1,80.73400115966797,121.427001953125)"><path fill="rgb(240,200,8)" fill-opacity="1" d=" M-79.84400177001953,-63.465999603271484 C-78.52300262451172,-73.5 -73.96299743652344,-83.24099731445312 -66.16400146484375,-92.69000244140625 C-58.36800003051758,-102.13999938964844 -47.840999603271484,-109.43199920654297 -34.59400177001953,-114.56400299072266 C-21.34600067138672,-119.69400024414062 -6.484000205993652,-121.177001953125 9.993000030517578,-119.00700378417969 C25.30500030517578,-116.99099731445312 38.45500183105469,-112.38300323486328 49.435001373291016,-105.19000244140625 C60.415000915527344,-97.99600219726562 68.45700073242188,-89.11799621582031 73.56999969482422,-78.55999755859375 C78.68000030517578,-67.99800109863281 80.48400115966797,-57.01900100708008 78.98200225830078,-45.61199951171875 C77.79900360107422,-36.6349983215332 74.94100189208984,-29.003000259399414 70.40799713134766,-22.72599983215332 C65.87300109863281,-16.445999145507812 60.77199935913086,-11.180999755859375 55.111000061035156,-6.929999828338623 C49.446998596191406,-2.680000066757202 39.354000091552734,4.39900016784668 24.83300018310547,14.307000160217285 C20.81100082397461,17.107999801635742 17.551000595092773,19.610000610351562 15.062000274658203,21.80500030517578 C12.569999694824219,24.00200080871582 10.657999992370605,26.059999465942383 9.331999778747559,27.979999542236328 C8.003999710083008,29.900999069213867 6.913000106811523,31.85300064086914 6.063000202178955,33.83599853515625 C5.210000038146973,35.81999969482422 3.86299991607666,39.32400131225586 2.0199999809265137,44.34400177001953 C-1.434000015258789,55.066001892089844 -8.444000244140625,59.72999954223633 -19.003000259399414,58.3390007019043 C-24.496000289916992,57.6150016784668 -28.881999969482422,55.21099853515625 -32.15700149536133,51.12699890136719 C-35.43299865722656,47.04399871826172 -36.60599899291992,41.459999084472656 -35.67300033569336,34.382999420166016 C-34.505001068115234,25.51099967956543 -32.12300109863281,18.009000778198242 -28.518999099731445,11.875 C-24.917999267578125,5.741000175476074 -20.52199935913086,0.5170000195503235 -15.333999633789062,-3.7960000038146973 C-10.14799976348877,-8.109999656677246 -3.250999927520752,-13.138999938964844 5.348999977111816,-18.882999420166016 C12.88599967956543,-23.908000946044922 18.361000061035156,-27.726999282836914 21.767000198364258,-30.34000015258789 C25.173999786376953,-32.95399856567383 28.149999618530273,-35.97100067138672 30.69700050354004,-39.39799880981445 C33.24399948120117,-42.82400131225586 34.80099868774414,-46.70000076293945 35.37200164794922,-51.03300094604492 C36.48500061035156,-59.481998443603516 34.27899932861328,-67.0260009765625 28.761999130249023,-73.66300201416016 C23.243000030517578,-80.2969970703125 15.515999794006348,-84.2699966430664 5.590000152587891,-85.5780029296875 C-6.03000020980835,-87.10800170898438 -14.970999717712402,-85.30500030517578 -21.232999801635742,-80.16600036621094 C-27.49799919128418,-75.0270004272461 -33.28200149536133,-67.00499725341797 -38.58599853515625,-56.0989990234375 C-43.75,-44.63399887084961 -51.34700012207031,-39.566001892089844 -61.38100051879883,-40.887001037597656 C-67.2979965209961,-41.66600036621094 -72.01399993896484,-44.40800094604492 -75.52899932861328,-49.117000579833984 C-79.04499816894531,-53.82500076293945 -80.48400115966797,-58.606998443603516 -79.84400177001953,-63.465999603271484z M-25.398000717163086,120.3550033569336 C-31.84000015258789,119.50599670410156 -37.189998626708984,116.68000030517578 -41.44599914550781,111.875 C-45.70500183105469,107.06999969482422 -47.33700180053711,100.91999816894531 -46.3489990234375,93.41899871826172 C-45.472999572753906,86.76499938964844 -42.415000915527344,81.4739990234375 -37.16699981689453,77.54399871826172 C-31.92099952697754,73.61699676513672 -25.91900062561035,72.09400177001953 -19.15999984741211,72.98400115966797 C-12.505000114440918,73.86100006103516 -7.206999778747559,76.87100219726562 -3.263000011444092,82.00800323486328 C0.6779999732971191,87.14800262451172 2.2139999866485596,93.0459976196289 1.3380000591278076,99.69999694824219 C0.36500000953674316,107.09300231933594 -2.7769999504089355,112.59100341796875 -8.086000442504883,116.18800354003906 C-13.395000457763672,119.78399658203125 -19.166000366210938,121.1760025024414 -25.398000717163086,120.3550033569336z"></path></g></g><g transform="matrix(0.9979156255722046,0.0645323097705841,-0.0645323097705841,0.9979156255722046,461.26708984375,357.6226806640625)" opacity="1" style="display: block;"><g opacity="1" transform="matrix(1,0,0,1,12.392999649047852,20.631000518798828)"><path fill="rgb(240,200,8)" fill-opacity="1" d=" M10.805129051208496,1.534231424331665 C9.305129051208496,11.5719575881958 3.3241286277770996,19.095726013183594 -2.5528714656829834,18.33768653869629 C-8.43087100982666,17.579647064208984 -11.980871200561523,8.826833724975586 -10.47987174987793,-1.2118120193481445 C-8.97987174987793,-11.24953842163086 -2.998871326446533,-18.771469116210938 2.8791286945343018,-18.013429641723633 C8.756128311157227,-17.255390167236328 12.305129051208496,-8.503495216369629 10.805129051208496,1.534231424331665z"></path></g></g><g transform="matrix(0.9979156255722046,0.0645323097705841,-0.0645323097705841,0.9979156255722046,606.622314453125,374.338623046875)" opacity="1" style="display: block;"><g opacity="1" transform="matrix(1,0,0,1,12.392000198364258,20.631000518798828)"><path fill="rgb(240,200,8)" fill-opacity="1" d=" M10.642000198364258,1.373886227607727 C9.142000198364258,11.424501419067383 3.1619999408721924,18.957996368408203 -2.7160000801086426,18.198986053466797 C-8.593999862670898,17.439973831176758 -12.142999649047852,8.675810813903809 -10.642999649047852,-1.3757240772247314 C-9.142999649047852,-11.426340103149414 -3.1610000133514404,-18.957996368408203 2.7160000801086426,-18.198986053466797 C8.593999862670898,-17.439973831176758 12.142918586730957,-8.676729202270508 10.642000198364258,1.373886227607727z"></path></g></g><g transform="matrix(0.9979156255722046,0.0645323097705841,-0.0645323097705841,0.9979156255722046,516.51513671875,363.04827880859375)" opacity="1" style="display: block;"><g opacity="1" transform="matrix(1,0,0,1,39.827999114990234,21.81999969482422)"><path stroke-linecap="round" stroke-linejoin="round" fill-opacity="0" stroke="rgb(240,200,8)" stroke-opacity="1" stroke-width="7" d=" M-16.99799919128418,17.00200080871582 C-4.151000022888184,14.864999771118164 6.205999851226807,16.198999404907227 16.593000411987305,24.777000427246094"></path></g></g></g></svg>