<svg xmlns="http://www.w3.org/2000/svg" viewBox="0 0 1080 1080" width="1080" height="1080" preserveAspectRatio="xMidYMid meet" style="width: 100%; height: 100%; transform: translate3d(0px, 0px, 0px);"><defs><clipPath id="__lottie_element_426"><rect width="1080" height="1080" x="0" y="0"></rect></clipPath></defs><g clip-path="url(#__lottie_element_426)"><g transform="matrix(1,0,0,1,557.3619995117188,172.05758666992188)" opacity="1" style="display: block;"><g opacity="1" transform="matrix(1,0,0,1,211.66299438476562,211.66299438476562)"><path fill="rgb(53,205,206)" fill-opacity="1" d=" M211.41299438476562,0 C211.41299438476562,116.76000213623047 116.76000213623047,211.41299438476562 -0.0010000000474974513,211.41299438476562 C-116.76100158691406,211.41299438476562 -211.41299438476562,116.76000213623047 -211.41299438476562,0 C-211.41299438476562,-116.76000213623047 -116.76100158691406,-211.41299438476562 -0.0010000000474974513,-211.41299438476562 C116.76000213623047,-211.41299438476562 211.41299438476562,-116.76000213623047 211.41299438476562,0z"></path></g><g opacity="1" transform="matrix(1,0,0,1,211.66299438476562,211.66299438476562)"><path fill="rgb(42,36,94)" fill-opacity="1" d=" M164.46299743652344,0 C164.46299743652344,90.83000183105469 90.83000183105469,164.46200561523438 -0.0010000000474974513,164.46200561523438 C-90.83100128173828,164.46200561523438 -164.46299743652344,90.83000183105469 -164.46299743652344,0 C-164.46299743652344,-90.83000183105469 -90.83100128173828,-164.46200561523438 -0.0010000000474974513,-164.46200561523438 C90.83000183105469,-164.46200561523438 164.46299743652344,-90.83000183105469 164.46299743652344,0z"></path></g><g opacity="1" transform="matrix(1,0,0,1,211.66299438476562,211.66299438476562)"><path fill="rgb(53,205,206)" fill-opacity="1" d=" M115.71499633789062,0 C115.71499633789062,63.90700149536133 63.90700149536133,115.71499633789062 -0.0010000000474974513,115.71499633789062 C-63.90800094604492,115.71499633789062 -115.71499633789062,63.90700149536133 -115.71499633789062,0 C-115.71499633789062,-63.90800094604492 -63.90800094604492,-115.71499633789062 -0.0010000000474974513,-115.71499633789062 C63.90700149536133,-115.71499633789062 115.71499633789062,-63.90800094604492 115.71499633789062,0z"></path></g><g opacity="1" transform="matrix(1,0,0,1,211.66299438476562,211.66299438476562)"><path fill="rgb(42,36,94)" fill-opacity="1" d=" M61.05500030517578,0 C61.05500030517578,33.71900177001953 33.71900177001953,61.05500030517578 -0.0010000000474974513,61.05500030517578 C-33.720001220703125,61.05500030517578 -61.05500030517578,33.71900177001953 -61.05500030517578,0 C-61.05500030517578,-33.720001220703125 -33.720001220703125,-61.05500030517578 -0.0010000000474974513,-61.05500030517578 C33.71900177001953,-61.05500030517578 61.05500030517578,-33.720001220703125 61.05500030517578,0z"></path></g></g><g transform="matrix(1,0,0,1,105.20100402832031,553.9495849609375)" opacity="1" style="display: block;"><g opacity="1" transform="matrix(1,0,0,1,201.822998046875,198.16900634765625)"><path fill="rgb(2,193,194)" fill-opacity="1" d=" M186.8090057373047,43.189998626708984 C175.05499267578125,104.92500305175781 138.28599548339844,147.91900634765625 68.0770034790039,169.57699584960938 C68.0770034790039,169.57699584960938 68.06400299072266,169.56900024414062 68.06400299072266,169.56900024414062 C63.73500061035156,170.91900634765625 59.2760009765625,172.1750030517578 54.67900085449219,173.33999633789062 C42.62900161743164,175.4770050048828 31.149999618530273,176.72799682617188 20.22100067138672,177.1529998779297 C-114.73999786376953,182.5050048828125 -166.64500427246094,62.27199935913086 -198.04299926757812,-88.95999908447266 C-198.04299926757812,-88.95999908447266 -176.29600524902344,-94.64900207519531 -176.29600524902344,-94.64900207519531 C-176.29600524902344,-94.64900207519531 -61.974998474121094,-124.55999755859375 -61.974998474121094,-124.55999755859375 C-61.974998474121094,-124.55999755859375 52.625999450683594,-154.5399932861328 52.625999450683594,-154.5399932861328 C52.625999450683594,-154.5399932861328 52.667999267578125,-154.5489959716797 52.667999267578125,-154.5489959716797 C52.667999267578125,-154.5489959716797 159.49000549316406,-182.5050048828125 159.49000549316406,-182.5050048828125 C186.47999572753906,-91.73400115966797 198.04299926757812,-15.732999801635742 186.8090057373047,43.189998626708984z"></path></g><g opacity="1" transform="matrix(1,0,0,1,212.6959991455078,176.71200561523438)"><path fill="rgb(53,205,206)" fill-opacity="1" d=" M175.93499755859375,64.64600372314453 C157.3730010986328,103.93599700927734 123.4990005493164,132.2779998779297 70.72100067138672,148.55499267578125 C70.72100067138672,148.55499267578125 70.70999908447266,148.55599975585938 70.70999908447266,148.55599975585938 C66.36900329589844,149.8990020751953 61.9109992980957,151.15499877929688 57.32600021362305,152.32899475097656 C45.27399826049805,154.4550018310547 33.79399871826172,155.70700073242188 22.854999542236328,156.13299560546875 C-100.96199798583984,161.0489959716797 -154.87399291992188,60.266998291015625 -187.1699981689453,-73.19200134277344 C-187.1699981689453,-73.19200134277344 -72.8479995727539,-103.10399627685547 -72.8479995727539,-103.10399627685547 C-72.8479995727539,-103.10399627685547 41.75199890136719,-133.08299255371094 41.75199890136719,-133.08299255371094 C41.75199890136719,-133.08299255371094 41.79399871826172,-133.0919952392578 41.79399871826172,-133.0919952392578 C41.79399871826172,-133.0919952392578 148.61700439453125,-161.0489959716797 148.61700439453125,-161.0489959716797 C175.60699462890625,-70.27799987792969 187.16900634765625,5.7230000495910645 175.93499755859375,64.64600372314453z"></path></g><g opacity="1" transform="matrix(1,0,0,1,331.5830078125,124.74299621582031)"><path fill="rgb(42,36,94)" fill-opacity="1" d=" M-22.452999114990234,-31.628000259399414 C-22.452999114990234,-31.628000259399414 10.440999984741211,-41.63199996948242 10.440999984741211,-41.63199996948242 C14.597999572753906,-42.89699935913086 18.91200065612793,-40.542999267578125 19.371000289916992,-36.7599983215332 C19.371000289916992,-36.7599983215332 27.32699966430664,28.80500030517578 27.32699966430664,28.80500030517578 C27.64699935913086,31.434999465942383 25.97599983215332,34.02199935913086 23.18000030517578,35.124000549316406 C12.420999526977539,39.36399841308594 1.0420000553131104,41.729000091552734 -10.821999549865723,42.624000549316406 C-14.449999809265137,42.89699935913086 -17.62700080871582,40.70600128173828 -18.086999893188477,37.56100082397461 C-18.086999893188477,37.56100082397461 -27.225000381469727,-24.96299934387207 -27.225000381469727,-24.96299934387207 C-27.64699935913086,-27.85300064086914 -25.63800048828125,-30.659000396728516 -22.452999114990234,-31.628000259399414z"></path></g><g opacity="1" transform="matrix(1,0,0,1,328.4630126953125,102.83399963378906)"><path fill="rgb(240,200,8)" fill-opacity="1" d=" M-16.374000549316406,0.6330000162124634 C-16.374000549316406,0.6330000162124634 -14.637999534606934,8.887999534606934 -14.637999534606934,8.887999534606934 C-14.357000350952148,10.220999717712402 -12.815999984741211,11.012999534606934 -11.321000099182129,10.592000007629395 C-11.321000099182129,10.592000007629395 14.58899974822998,3.2990000247955322 14.58899974822998,3.2990000247955322 C15.8149995803833,2.9539999961853027 16.610000610351562,1.8960000276565552 16.47599983215332,0.7879999876022339 C16.47599983215332,0.7879999876022339 15.329000473022461,-8.657999992370605 15.329000473022461,-8.657999992370605 C15.152000427246094,-10.116000175476074 13.47599983215332,-11.012999534606934 11.881999969482422,-10.503999710083008 C11.881999969482422,-10.503999710083008 -14.618000030517578,-2.0179998874664307 -14.618000030517578,-2.0179998874664307 C-15.861000061035156,-1.621000051498413 -16.610000610351562,-0.49000000953674316 -16.374000549316406,0.6330000162124634z"></path></g><g opacity="1" transform="matrix(1,0,0,1,331.9289855957031,123.4520034790039)"><path fill="rgb(240,200,8)" fill-opacity="1" d=" M-15.96399974822998,0.3440000116825104 C-15.96399974822998,0.3440000116825104 -14.968999862670898,8.550999641418457 -14.968999862670898,8.550999641418457 C-14.810999870300293,9.85200023651123 -13.444000244140625,10.739999771118164 -11.963000297546387,10.503000259399414 C-11.963000297546387,10.503000259399414 13.791999816894531,6.388000011444092 13.791999816894531,6.388000011444092 C15.128000259399414,6.173999786376953 16.094999313354492,5.111999988555908 16.02899932861328,3.930999994277954 C16.02899932861328,3.930999994277954 15.348999977111816,-8.246000289916992 15.348999977111816,-8.246000289916992 C15.265000343322754,-9.758000373840332 13.564000129699707,-10.739999771118164 11.916999816894531,-10.229000091552734 C11.916999816894531,-10.229000091552734 -14.154000282287598,-2.1429998874664307 -14.154000282287598,-2.1429998874664307 C-15.34000015258789,-1.7760000228881836 -16.094999313354492,-0.7379999756813049 -15.96399974822998,0.3440000116825104z"></path></g><g opacity="1" transform="matrix(1,0,0,1,335.2349853515625,148.0279998779297)"><path fill="rgb(240,200,8)" fill-opacity="1" d=" M-16.52899932861328,-1.6469999551773071 C-16.52899932861328,-1.6469999551773071 -15.376999855041504,7.855000019073486 -15.376999855041504,7.855000019073486 C-15.217000007629395,9.17199993133545 -13.815999984741211,10.062000274658203 -12.319999694824219,9.79699993133545 C-12.319999694824219,9.79699993133545 14.350000381469727,5.072999954223633 14.350000381469727,5.072999954223633 C15.720000267028809,4.830999851226807 16.672000885009766,3.7019999027252197 16.525999069213867,2.496000051498413 C16.525999069213867,2.496000051498413 15.27400016784668,-7.820000171661377 15.27400016784668,-7.820000171661377 C15.109999656677246,-9.168000221252441 13.652000427246094,-10.062000274658203 12.130000114440918,-9.744999885559082 C12.130000114440918,-9.744999885559082 -14.442999839782715,-4.206999778747559 -14.442999839782715,-4.206999778747559 C-15.770000457763672,-3.930000066757202 -16.672000885009766,-2.822999954223633 -16.52899932861328,-1.6469999551773071z"></path></g><g opacity="1" transform="matrix(1,0,0,1,182.7239990234375,67.01799774169922)"><path fill="rgb(42,36,94)" fill-opacity="1" d=" M-170.08900451660156,50.58000183105469 C-110.72599792480469,66.76699829101562 137.2220001220703,1.0880000591278076 176.3489990234375,-40.95399856567383 C182.4739990234375,-47.53499984741211 178.2760009765625,-57.26900100708008 168.8990020751953,-58.527000427246094 C107.54100036621094,-66.76799774169922 -126.95899963378906,-11.152000427246094 -175.07000732421875,30.618000030517578 C-182.4739990234375,37.04499816894531 -179.78599548339844,47.93600082397461 -170.08900451660156,50.58000183105469z"></path></g></g><g transform="matrix(0.9882283806800842,0.1529858410358429,-0.1529858410358429,0.9882283806800842,148.9042510986328,125.123291015625)" opacity="1" style="display: block;"><g opacity="1" transform="matrix(1,0,0,1,169.70799255371094,287.75299072265625)"><path fill="rgb(2,193,194)" fill-opacity="1" d=" M169.45799255371094,23.197999954223633 C155.6790008544922,39.9630012512207 141.32400512695312,54.64799880981445 126.41500091552734,67.302001953125 C47.404998779296875,134.32200622558594 -47.33700180053711,144.13600158691406 -156.32000732421875,102.21499633789062 C-169.45799255371094,13.387999534606934 -161.3090057373047,-66.4540023803711 -78.68399810791016,-114.89800262451172 C-70.88600158691406,-119.46800231933594 -62.417999267578125,-123.77100372314453 -53.2400016784668,-127.76200103759766 C-28.479999542236328,-138.54600524902344 -1.687000036239624,-144.13499450683594 25.29599952697754,-142.92999267578125 C109.38899993896484,-139.1929931640625 151.5279998779297,-75.33999633789062 169.45799255371094,23.197999954223633z"></path></g><g opacity="1" transform="matrix(1,0,0,1,186.6510009765625,273.2690124511719)"><path fill="rgb(53,205,206)" fill-opacity="1" d=" M152.51400756835938,37.68199920654297 C138.73500061035156,54.446998596191406 124.37999725341797,69.13099670410156 109.47100067138672,81.78500366210938 C37.27299880981445,127.02899932861328 -46.645999908447266,129.6510009765625 -141.3209991455078,93.22599792480469 C-152.51400756835938,17.531999588012695 -148.2530059814453,-51.63399887084961 -95.62699890136719,-100.41500091552734 C-87.8290023803711,-104.98500061035156 -79.36100006103516,-109.28800201416016 -70.18299865722656,-113.27899932861328 C-45.42300033569336,-124.06300354003906 -18.6299991607666,-129.6510009765625 8.352999687194824,-128.4459991455078 C92.44599914550781,-124.70899963378906 134.58399963378906,-60.85599899291992 152.51400756835938,37.68199920654297z"></path></g><g opacity="1" transform="matrix(1,0,0,1,132.9290008544922,148.5919952392578)"><path fill="rgb(2,193,194)" fill-opacity="1" d=" M48.731998443603516,-3.688999891281128 C48.731998443603516,-3.688999891281128 22.527000427246094,5.945000171661377 22.527000427246094,5.945000171661377 C22.527000427246094,5.945000171661377 -41.53099822998047,29.506999969482422 -41.53099822998047,29.506999969482422 C-43.88800048828125,13.156999588012695 -48.73099899291992,-3.734999895095825 -4.835000038146973,-18.697999954223633 C-3.319000005722046,-19.315000534057617 -1.8220000267028809,-19.87299919128418 -0.3479999899864197,-20.398000717163086 C25.07699966430664,-29.506999969482422 42.50699996948242,-25.545000076293945 48.731998443603516,-3.688999891281128z"></path></g><g opacity="1" transform="matrix(1,0,0,1,157.1199951171875,137.3209991455078)"><path fill="rgb(53,205,206)" fill-opacity="1" d=" M-4.064000129699707,18.23699951171875 C-3.4519999027252197,-0.5009999871253967 -10.347000122070312,-8.293999671936035 -24.540000915527344,-9.128000259399414 C0.8859999775886536,-18.23699951171875 18.315000534057617,-14.274999618530273 24.540000915527344,7.581999778747559 C24.540000915527344,7.581999778747559 -4.064000129699707,18.23699951171875 -4.064000129699707,18.23699951171875z"></path></g><g opacity="1" transform="matrix(1,0,0,1,122.61900329589844,85.29900360107422)"><path fill="rgb(42,36,94)" fill-opacity="1" d=" M-26.031999588012695,-46.07699966430664 C-13.944000244140625,-7.644000053405762 -8.244000434875488,25.045000076293945 -10.112000465393066,50.926998138427734 C-10.112000465393066,50.926998138427734 26.031999588012695,38.77199935913086 26.031999588012695,38.77199935913086 C3.494999885559082,19.117000579833984 -9.123000144958496,-13.871999740600586 -18.716999053955078,-50.926998138427734 C-18.716999053955078,-50.926998138427734 -26.031999588012695,-46.07699966430664 -26.031999588012695,-46.07699966430664z"></path></g><g opacity="1" transform="matrix(1,0,0,1,99.38899993896484,32.40999984741211)"><path fill="rgb(240,200,8)" fill-opacity="1" d=" M29.48699951171875,-4.840000152587891 C32.15999984741211,11.444999694824219 21.125,26.81399917602539 4.840000152587891,29.48699951171875 C-11.446000099182129,32.15999984741211 -26.81399917602539,21.124000549316406 -29.48699951171875,4.839000225067139 C-32.159000396728516,-11.446000099182129 -21.124000549316406,-26.815000534057617 -4.839000225067139,-29.48699951171875 C11.446000099182129,-32.15999984741211 26.81399917602539,-21.125 29.48699951171875,-4.840000152587891z"></path></g><g opacity="1" transform="matrix(1,0,0,1,109.66000366210938,31.322999954223633)"><path fill="rgb(243,211,57)" fill-opacity="1" d=" M19.214000701904297,-3.750999927520752 C21.88599967956543,12.532999992370605 10.848999977111816,27.90399932861328 -5.434000015258789,30.57699966430664 C-7.809999942779541,30.965999603271484 -10.175999641418457,31.07200050354004 -12.473999977111816,30.895999908447266 C-0.028999999165534973,25.663000106811523 7.684999942779541,12.425000190734863 5.4019999504089355,-1.4830000400543213 C3.119999885559082,-15.392000198364258 -8.420000076293945,-25.468000411987305 -21.88599967956543,-26.450000762939453 C-19.764999389648438,-27.351999282836914 -17.48900032043457,-28.007999420166016 -15.11400032043457,-28.398000717163086 C1.1699999570846558,-31.070999145507812 16.541000366210938,-20.03499984741211 19.214000701904297,-3.750999927520752z"></path></g><g opacity="1" transform="matrix(1,0,0,1,198.0540008544922,266.6130065917969)"><path fill="rgb(42,36,94)" fill-opacity="1" d=" M99.6719970703125,-66.58799743652344 C1.1629999876022339,-107.01699829101562 -58.395999908447266,-79.16699981689453 -97.98999786376953,-16.31999969482422 C-137.2469940185547,54.84299850463867 -104.51399993896484,107.01699829101562 -42.82500076293945,96.70700073242188 C-27.344999313354492,94.12000274658203 -12.692999839782715,87.87899780273438 0.15399999916553497,78.86399841308594 C33.2760009765625,55.62200164794922 51.86800003051758,38.72200012207031 86.1719970703125,42.768001556396484 C87.5770034790039,42.93299865722656 88.96800231933594,43.20399856567383 90.3550033569336,43.48699951171875 C112.81999969482422,48.07699966430664 129.46200561523438,43.51100158691406 137.2469940185547,25.016000747680664 C128.69200134277344,-10.675999641418457 117.20099639892578,-42.551998138427734 99.6719970703125,-66.58799743652344z"></path></g></g><g transform="matrix(0.9882283806800842,0.1529858410358429,-0.1529858410358429,0.9882283806800842,264.65283203125,408.0314636230469)" opacity="1" style="display: block;"><g opacity="1" transform="matrix(1,0,0,1,11.647000312805176,18.881000518798828)"><path fill="rgb(240,200,8)" fill-opacity="1" d=" M9.380000114440918,-1.9529999494552612 C11.39799976348877,7.741000175476074 8.835000038146973,16.474000930786133 3.6549999713897705,17.55299949645996 C-1.524999976158142,18.631000518798828 -7.361000061035156,11.647000312805176 -9.378999710083008,1.9529999494552612 C-11.397000312805176,-7.742000102996826 -8.833999633789062,-16.474000930786133 -3.6540000438690186,-17.55299949645996 C1.5260000228881836,-18.631000518798828 7.361999988555908,-11.647000312805176 9.380000114440918,-1.9529999494552612z"></path></g></g><g transform="matrix(0.9882283806800842,0.1529858410358429,-0.1529858410358429,0.9882283806800842,387.3033447265625,391.502685546875)" opacity="1" style="display: block;"><g opacity="1" transform="matrix(1,0,0,1,11.170000076293945,16.900999069213867)"><path fill="rgb(240,200,8)" fill-opacity="1" d=" M8.08899974822998,-2.740000009536743 C10.920999526977539,5.619999885559082 9.593999862670898,13.62399959564209 5.126999855041504,15.13700008392334 C0.6600000262260437,16.649999618530273 -5.256999969482422,11.098999977111816 -8.088000297546387,2.739000082015991 C-10.920000076293945,-5.620999813079834 -9.595000267028809,-13.625 -5.126999855041504,-15.13700008392334 C-0.6610000133514404,-16.650999069213867 5.256999969482422,-11.100000381469727 8.08899974822998,-2.740000009536743z"></path></g></g><g transform="matrix(0.9882283806800842,0.1529858410358429,-0.1529858410358429,0.9882283806800842,310.96063232421875,401.3533020019531)" opacity="1" style="display: block;"><g opacity="1" transform="matrix(1,0,0,1,38.119998931884766,31.363000869750977)"><path stroke-linecap="round" stroke-linejoin="round" fill-opacity="0" stroke="rgb(240,200,8)" stroke-opacity="1" stroke-width="7" d=" M-20.6200008392334,-1.5490000247955322 C-5.109000205993652,13.862000465393066 18.474000930786133,4.479000091552734 20.6200008392334,-13.862000465393066"></path></g></g><g transform="matrix(0.9937679171562195,-0.11146893352270126,0.11146893352270126,0.9937679171562195,96.6319808959961,634.0831909179688)" opacity="1" style="display: block;"><g opacity="1" transform="matrix(1,0,0,1,262.9909973144531,91.3949966430664)"><path fill="rgb(42,36,94)" fill-opacity="1" d=" M67.03399658203125,-3.5390000343322754 C68.63300323486328,33.56399917602539 39.91699981689453,65.22599792480469 2.8949999809265137,67.18099975585938 C-34.125999450683594,69.13500213623047 -65.43499755859375,40.641998291015625 -67.03399658203125,3.5390000343322754 C-68.63300323486328,-33.56399917602539 -39.91699981689453,-65.22699737548828 -2.8949999809265137,-67.18099975585938 C34.125999450683594,-69.13600158691406 65.43499755859375,-40.643001556396484 67.03399658203125,-3.5390000343322754z"></path></g><g opacity="1" transform="matrix(1,0,0,1,128.1020050048828,96.49400329589844)"><path fill="rgb(2,193,194)" fill-opacity="1" d=" M125.35600280761719,69.0250015258789 C81.3010025024414,87.6719970703125 35.02199935913086,96.24299621582031 -5.73799991607666,94.27100372314453 C-68.3219985961914,91.24400329589844 -117.88999938964844,63.35900115966797 -126.4010009765625,8.84000015258789 C-127.85199737548828,-0.44699999690055847 -127.61000061035156,-9.89900016784668 -125.5979995727539,-18.975000381469727 C-123.63500213623047,-27.966999053955078 -119.92500305175781,-36.584999084472656 -114.41200256347656,-44.31999969482422 C-85.63600158691406,-84.73200225830078 -16.33300018310547,-96.24400329589844 98.24700164794922,-75.46099853515625 C102.572998046875,-64.4540023803711 106.39299774169922,-53.720001220703125 109.69400024414062,-43.224998474121094 C122.71700286865234,-1.899999976158142 127.85199737548828,35.472999572753906 125.35600280761719,69.0250015258789z"></path></g><g opacity="1" transform="matrix(1,0,0,1,120.1500015258789,38.88399887084961)"><path fill="rgb(53,205,206)" fill-opacity="1" d=" M117.64600372314453,14.385000228881836 C9.555000305175781,-1.3179999589920044 -68.83300018310547,6.795000076293945 -117.64600372314453,38.63399887084961 C-115.68299865722656,29.642000198364258 -111.9729995727539,21.02400016784668 -106.45899963378906,13.288999557495117 C-77.68399810791016,-27.12299919128418 -8.380999565124512,-38.63399887084961 106.1989974975586,-17.85099983215332 C110.5250015258789,-6.843999862670898 114.34500122070312,3.890000104904175 117.64600372314453,14.385000228881836z"></path></g></g><g transform="matrix(1,0,0,1,382.93804931640625,901.7078247070312)" opacity="1" style="display: block;"><g opacity="1" transform="matrix(1,0,0,1,61.5620002746582,46.95500183105469)"><path fill="rgb(2,193,194)" fill-opacity="1" d=" M60.979000091552734,-18.35700035095215 C60.93000030517578,-17.04800033569336 60.547000885009766,-15.788999557495117 59.87200164794922,-14.736000061035156 C52.38800048828125,-3.0390000343322754 44.00899887084961,6.968999862670898 34.7239990234375,15.315999984741211 C13.746000289916992,34.18299865722656 -11.807999610900879,44.52299880981445 -41.81800079345703,46.60499954223633 C-43.26900100708008,46.70399856567383 -44.757999420166016,46.30699920654297 -46.04600143432617,45.486000061035156 C-53.07600021362305,40.97700119018555 -57.685001373291016,35.152000427246094 -60.00899887084961,28.084999084472656 C-61.3120002746582,24.131000518798828 -59.31999969482422,20.042999267578125 -55.62900161743164,19.006999969482422 C-27.10700035095215,11.005000114440918 -1.6180000305175781,-2.1510000228881836 20.493000030517578,-21.04400062561035 C28.336000442504883,-27.732999801635742 35.749000549316406,-35.15700149536133 42.736000061035156,-43.31999969482422 C45.63800048828125,-46.70500183105469 51.01599884033203,-46.119998931884766 53.65399932861328,-42.125999450683594 C58.680999755859375,-34.54199981689453 61.3129997253418,-26.645000457763672 60.979000091552734,-18.35700035095215z"></path></g><g opacity="1" transform="matrix(1,0,0,1,102.46499633789062,31.260000228881836)"><path fill="rgb(53,205,206)" fill-opacity="1" d=" M20.076000213623047,-2.6619999408721924 C20.027000427246094,-1.3530000448226929 19.643999099731445,-0.09399999678134918 18.9689998626709,0.9589999914169312 C11.484999656677246,12.656000137329102 3.1059999465942383,22.663000106811523 -6.178999900817871,31.010000228881836 C-0.8259999752044678,15.899999618530273 -4.329999923706055,3.4189999103546143 -20.40999984741211,-5.349999904632568 C-12.567000389099121,-12.038999557495117 -5.1539998054504395,-19.461999893188477 1.8329999446868896,-27.625 C4.735000133514404,-31.010000228881836 10.11299991607666,-30.426000595092773 12.75100040435791,-26.43199920654297 C17.777999877929688,-18.847999572753906 20.40999984741211,-10.949999809265137 20.076000213623047,-2.6619999408721924z"></path></g></g><g transform="matrix(1,0,0,1,433.40545654296875,971.3380126953125)" opacity="1" style="display: block;"><g opacity="1" transform="matrix(1,0,0,1,44.05500030517578,35.93000030517578)"><path fill="rgb(2,193,194)" fill-opacity="1" d=" M41.96900177001953,-26.788000106811523 C42.4630012512207,-25.266000747680664 42.84199905395508,-23.67300033569336 43.084999084472656,-22.02899932861328 C43.80500030517578,-17.357999801635742 42.48099899291992,-12.711000442504883 39.57899856567383,-9.371999740600586 C35.542999267578125,-4.711999893188477 31.256000518798828,-0.30300000309944153 26.739999771118164,3.878000020980835 C14.41100025177002,15.293000221252441 0.33500000834465027,24.941999435424805 -15.432999610900879,32.91699981689453 C-20.895999908447266,35.67900085449219 -27.472000122070312,35.470001220703125 -33.097999572753906,32.263999938964844 C-36.00699996948242,30.618999481201172 -38.32400131225586,28.780000686645508 -39.972999572753906,26.733999252319336 C-43.80500030517578,22.000999450683594 -42.6619987487793,15 -37.7140007019043,12.369999885559082 C-17.93000030517578,1.8489999771118164 0.29499998688697815,-9.458999633789062 16.239999771118164,-21.93199920654297 C20.259000778198242,-25.06599998474121 24.12299919128418,-28.274999618530273 27.832000732421875,-31.562000274658203 C32.452999114990234,-35.67900085449219 39.86600112915039,-33.15599822998047 41.96900177001953,-26.788000106811523z"></path></g><g opacity="1" transform="matrix(1,0,0,1,74.0770034790039,20.02899932861328)"><path fill="rgb(53,205,206)" fill-opacity="1" d=" M11.946999549865723,-10.88700008392334 C12.440999984741211,-9.364999771118164 12.819000244140625,-7.7729997634887695 13.062000274658203,-6.129000186920166 C13.781999588012695,-1.4579999446868896 12.458000183105469,3.190000057220459 9.555999755859375,6.5289998054504395 C5.519999980926514,11.189000129699707 1.2330000400543213,15.597999572753906 -3.2829999923706055,19.77899932861328 C-2.9200000762939453,10.425000190734863 -5.938000202178955,1.7359999418258667 -13.782999992370605,-6.031000137329102 C-9.763999938964844,-9.164999961853027 -5.900000095367432,-12.375 -2.190999984741211,-15.661999702453613 C2.430000066757202,-19.77899932861328 9.843999862670898,-17.2549991607666 11.946999549865723,-10.88700008392334z"></path></g></g><g transform="matrix(1,0,0,1,455.16278076171875,147.67935180664062)" opacity="1" style="display: block;"><g opacity="1" transform="matrix(1,0,0,1,54.38399887084961,46.06700134277344)"><path fill="rgb(240,200,8)" fill-opacity="1" d=" M44.82099914550781,43.85100173950195 C44.82099914550781,43.85100173950195 -49.76599884033203,5.795000076293945 -49.76599884033203,5.795000076293945 C-53.055999755859375,4.4720001220703125 -54.13399887084961,0.5540000200271606 -51.90999984741211,-1.9989999532699585 C-51.90999984741211,-1.9989999532699585 -15.939000129699707,-43.29600143432617 -15.939000129699707,-43.29600143432617 C-13.743000030517578,-45.816001892089844 -9.552000045776367,-45.59700012207031 -7.5269999504089355,-42.85599899291992 C-7.5269999504089355,-42.85599899291992 51.09000015258789,36.499000549316406 51.09000015258789,36.499000549316406 C54.13399887084961,40.62200164794922 49.70600128173828,45.816001892089844 44.82099914550781,43.85100173950195z"></path></g></g><g transform="matrix(1,0,0,1,471.52069091796875,267.2454833984375)" opacity="1" style="display: block;"><g opacity="1" transform="matrix(1,0,0,1,33.82699966430664,20.104999542236328)"><path fill="rgb(240,200,8)" fill-opacity="1" d=" M30.11400032043457,5.306000232696533 C30.11400032043457,5.306000232696533 -29.61199951171875,19.368000030517578 -29.61199951171875,19.368000030517578 C-31.68899917602539,19.856000900268555 -33.57699966430664,18.30299949645996 -33.36800003051758,16.275999069213867 C-33.36800003051758,16.275999069213867 -29.985000610351562,-16.509000778198242 -29.985000610351562,-16.509000778198242 C-29.777999877929688,-18.510000228881836 -27.638999938964844,-19.854999542236328 -25.69300079345703,-19.20800018310547 C-25.69300079345703,-19.20800018310547 30.64900016784668,-0.48399999737739563 30.64900016784668,-0.48399999737739563 C33.57699966430664,0.49000000953674316 33.19900131225586,4.579999923706055 30.11400032043457,5.306000232696533z"></path></g></g><g transform="matrix(1,0,0,1,565.9805908203125,134.71298217773438)" opacity="1" style="display: block;"><g opacity="1" transform="matrix(1,0,0,1,19.908000946044922,33.69200134277344)"><path fill="rgb(240,200,8)" fill-opacity="1" d=" M11.149999618530273,30.670000076293945 C11.149999618530273,30.670000076293945 -18.621999740600586,-22.98200035095215 -18.621999740600586,-22.98200035095215 C-19.658000946044922,-24.847999572753906 -18.676000595092773,-27.086999893188477 -16.66900062561035,-27.437000274658203 C-16.66900062561035,-27.437000274658203 15.800999641418457,-33.09600067138672 15.800999641418457,-33.09600067138672 C17.783000946044922,-33.441001892089844 19.658000946044922,-31.75 19.565000534057617,-29.701000213623047 C19.565000534057617,-29.701000213623047 16.868000030517578,29.610000610351562 16.868000030517578,29.610000610351562 C16.726999282836914,32.69200134277344 12.687999725341797,33.441001892089844 11.149999618530273,30.670000076293945z"></path></g></g><g transform="matrix(0.9999862909317017,0.005235956981778145,-0.005235956981778145,0.9999862909317017,348.20977783203125,501.7861328125)" opacity="1" style="display: block;"><g opacity="1" transform="matrix(1,0,0,1,117.78900146484375,121.427001953125)"><path fill="rgb(2,193,194)" fill-opacity="1" d=" M115.51599884033203,-12.651000022888184 C81.1259994506836,57.88100051879883 27.886999130249023,96.69000244140625 -34.86800003051758,119.48699951171875 C-39.51599884033203,121.1760025024414 -44.67399978637695,120.78600311279297 -48.94599914550781,118.45099639892578 C-82.302001953125,100.18900299072266 -105.74099731445312,74.00800323486328 -114.12100219726562,35.79999923706055 C-116.34500122070312,25.711999893188477 -117.50900268554688,14.77299976348877 -117.52300262451172,2.930999994277954 C-117.53800201416016,-0.3930000066757202 -116.46399688720703,-3.674999952316284 -114.44499969482422,-6.394999980926514 C-75.85800170898438,-58.54800033569336 -27.43199920654297,-98.40799713134766 35.74100112915039,-119.76499938964844 C39.90299987792969,-121.1760025024414 44.47999954223633,-120.94499969482422 48.41699981689453,-119.10900115966797 C56.55099868774414,-115.31700134277344 63.97100067138672,-110.68800354003906 70.7249984741211,-105.25399780273438 C93.59200286865234,-86.8219985961914 108.65799713134766,-59.06700134277344 116.76399993896484,-22.979999542236328 C117.53900146484375,-19.52199935913086 117.08899688720703,-15.88700008392334 115.51599884033203,-12.651000022888184z"></path></g><g opacity="1" transform="matrix(1,0,0,1,94.38200378417969,78.73899841308594)"><path fill="rgb(53,205,206)" fill-opacity="1" d=" M94.13300323486328,-62.566001892089844 C21.28700065612793,-25.996000289916992 -40.12900161743164,21.20400047302246 -90.71499633789062,78.48799896240234 C-92.93900299072266,68.4000015258789 -94.10299682617188,57.459999084472656 -94.11599731445312,45.61899948120117 C-94.13200378417969,42.29399871826172 -93.05699920654297,39.012001037597656 -91.03900146484375,36.29199981689453 C-52.45100021362305,-15.861000061035156 -4.026000022888184,-55.71900177001953 59.145999908447266,-77.0770034790039 C63.30799865722656,-78.48799896240234 67.88500213623047,-78.25700378417969 71.8219985961914,-76.4209976196289 C79.95600128173828,-72.62899780273438 87.37799835205078,-68.0009994506836 94.13300323486328,-62.566001892089844z"></path></g></g><g transform="matrix(0.9997014999389648,-0.02443218044936657,0.02443218044936657,0.9997014999389648,360.87054443359375,373.0384826660156)" opacity="1" style="display: block;"><g opacity="1" transform="matrix(1,0,0,1,220.38999938964844,88.50800323486328)"><path fill="rgb(42,36,94)" fill-opacity="1" d=" M34.54100036621094,-35.27899932861328 C34.00400161743164,-44.48899841308594 29.288999557495117,-52.939998626708984 21.535999298095703,-60.8390007019043 C20.84000015258789,-61.54800033569336 20.079999923706055,-62.20800018310547 19.281999588012695,-62.79999923706055 C-14.979999542236328,-88.25800323486328 -50.2130012512207,-71.41400146484375 -63.486000061035156,-27.45800018310547 C-64.03900146484375,-25.625999450683594 -64.3010025024414,-23.708999633789062 -64.29399871826172,-21.79599952697754 C-64.03800201416016,49.2859992980957 -26.27199935913086,88.25800323486328 25.086000442504883,57.20000076293945 C25.599000930786133,56.888999938964844 26.107999801635742,56.551998138427734 26.594999313354492,56.20199966430664 C47.04499816894531,41.499000549316406 59.159000396728516,24.687999725341797 62.52199935913086,5.665999889373779 C64.3010025024414,-4.396999835968018 58.36899948120117,-14.232000350952148 48.64699935913086,-17.3799991607666 C40.75199890136719,-19.93600082397461 35.02399826049805,-26.993999481201172 34.54100036621094,-35.27899932861328z"></path></g><g opacity="1" transform="matrix(1,0,0,1,61.82600021362305,121.01200103759766)"><path fill="rgb(42,36,94)" fill-opacity="1" d=" M61.57699966430664,-0.45899999141693115 C61.57699966430664,-0.45899999141693115 13.95199966430664,-27.29800033569336 13.95199966430664,-27.29800033569336 C13.95199966430664,-27.29800033569336 -61.57699966430664,1.5609999895095825 -61.57699966430664,1.5609999895095825 C-61.57699966430664,1.5609999895095825 -8.871000289916992,27.29800033569336 -8.871000289916992,27.29800033569336 C-8.871000289916992,27.29800033569336 61.57699966430664,-0.45899999141693115 61.57699966430664,-0.45899999141693115z"></path></g><g opacity="1" transform="matrix(1,0,0,1,82.802001953125,171.41400146484375)"><path fill="rgb(42,36,94)" fill-opacity="1" d=" M-44.03099822998047,42.611000061035156 C-44.03099822998047,42.611000061035156 -27.14299964904785,-10.97599983215332 -27.14299964904785,-10.97599983215332 C-27.14299964904785,-10.97599983215332 44.03099822998047,-42.611000061035156 44.03099822998047,-42.611000061035156 C44.03099822998047,-42.611000061035156 28.426000595092773,11.654000282287598 28.426000595092773,11.654000282287598 C28.426000595092773,11.654000282287598 -44.03099822998047,42.611000061035156 -44.03099822998047,42.611000061035156z"></path></g><g opacity="1" transform="matrix(1,0,0,1,215.093994140625,86.41500091552734)"><path fill="rgb(240,200,8)" fill-opacity="1" d=" M-175.72900390625,65.30500030517578 C-164.2449951171875,60.55400085449219 -152.76100158691406,55.803001403808594 -141.27699279785156,51.05099868774414 C-113.7020034790039,39.643001556396484 -86.1259994506836,28.233999252319336 -58.55099868774414,16.826000213623047 C-25.333999633789062,3.0829999446868896 7.88100004196167,-10.659000396728516 41.09700012207031,-24.402000427246094 C69.95500183105469,-36.340999603271484 98.81099700927734,-48.27899932861328 127.66699981689453,-60.21799850463867 C141.68099975585938,-66.01599884033203 155.5919952392578,-72.37899780273438 169.81300354003906,-77.65499877929688 C170.01800537109375,-77.73100280761719 170.2169952392578,-77.8219985961914 170.41700744628906,-77.90499877929688 C178.5570068359375,-81.27200317382812 183.875,-68.6760025024414 175.72799682617188,-65.30500030517578 C164.24400329589844,-60.55500030517578 152.76100158691406,-55.803001403808594 141.27699279785156,-51.05099868774414 C113.7020034790039,-39.643001556396484 86.1259994506836,-28.235000610351562 58.55099868774414,-16.826000213623047 C25.333999633789062,-3.0840001106262207 -7.88100004196167,10.659000396728516 -41.097999572753906,24.400999069213867 C-69.9540023803711,36.34000015258789 -98.81099700927734,48.27899932861328 -127.66799926757812,60.21799850463867 C-141.6820068359375,66.01499938964844 -155.59300231933594,72.37799835205078 -169.81399536132812,77.65499877929688 C-170.0189971923828,77.73100280761719 -170.2169952392578,77.8219985961914 -170.41900634765625,77.90499877929688 C-178.5570068359375,81.27200317382812 -183.87600708007812,68.6760025024414 -175.72900390625,65.30500030517578z"></path></g><g opacity="1" transform="matrix(1,0,0,1,258.5159912109375,98.38300323486328)"><path fill="rgb(42,36,94)" fill-opacity="1" d=" M-35.37099838256836,4.701000213623047 C-27.54800033569336,-11.604999542236328 -19.53700065612793,-26.461999893188477 -10.746999740600586,-35.266998291015625 C-5.7129998207092285,-40.310001373291016 0.9959999918937683,-43.53300094604492 8.121999740600586,-43.47999954223633 C14.439000129699707,-43.433998107910156 20.51099967956543,-41.09400177001953 26.3700008392334,-36.770999908447266 C35.332000732421875,-30.15999984741211 39.137001037597656,-18.63599967956543 36.25699996948242,-7.879000186920166 C31.198999404907227,11.017000198364258 18.273000717163086,25.78499984741211 0.453000009059906,37.98500061035156 C-2.9049999713897705,40.28499984741211 -6.757999897003174,41.81700134277344 -10.791999816894531,42.358001708984375 C-19.547000885009766,43.53300094604492 -27.884000778198242,41.762001037597656 -34.72100067138672,29.389999389648438 C-38.93000030517578,21.77199935913086 -39.137001037597656,12.54800033569336 -35.37099838256836,4.701000213623047z"></path></g></g></g></svg>